<svg width="115" height="36" fill="none" xmlns="http://www.w3.org/2000/svg"><g clip-path="url(#a)"><path fill-rule="evenodd" clip-rule="evenodd" d="M105.847 18.287c-3.914 0-7.168-3.14-7.168-7.645 0-4.42 2.995-7.706 7.256-7.706 3.652 0 5.522 2.409 6.159 3.339l2.139-2.157c-.595-.84-1.297-1.521-2.164-2.142-1.093-.784-3.112-1.948-6.134-1.948-2.246 0-5.212.58-7.602 3.11-1.987 2.094-2.878 4.796-2.878 7.501 0 2.703.834 5.35 3.05 7.587 1.728 1.745 4.031 2.964 7.255 2.964 4.235 0 6.509-2.325 7.574-3.836.053-.075.092-.153.145-.229l-2.189-2.21c-.973 2.017-2.94 3.372-5.443 3.372Z" fill="#005392"/><path fill-rule="evenodd" clip-rule="evenodd" d="M51.85 10.204h8.292v.639c0 1.976-.23 4.246-1.813 6.513-1.066 1.511-3.341 3.84-7.574 3.84-3.224 0-5.53-1.223-7.255-2.967-2.219-2.24-3.053-4.885-3.053-7.587 0-2.703.892-5.408 2.878-7.5C45.715.611 48.681.03 50.927.03c3.023 0 5.04 1.162 6.135 1.948.891.642 1.613 1.34 2.216 2.21l-2.189 2.094c-.632-.93-2.505-3.343-6.162-3.343-4.263 0-7.255 3.286-7.255 7.705 0 4.505 3.254 7.645 7.168 7.645 3.194 0 5.53-2.21 6.018-5.174h-5.01v-2.91h.003Z" fill="#878586"/><path fill-rule="evenodd" clip-rule="evenodd" d="M72.64 3.344h-8.004v4.884h4.026v2.906h-4.026v6.745h8.005v2.906H61.526V.437h11.115v2.907ZM73.577 20.785 77.605 0h.003l7.198 14.186L92.09 0l3.598 20.785h-3.165L90.505 8.927l-5.87 12.296-5.79-12.324-2.099 11.886h-3.17Z" fill="#005392"/><path d="M35.612.045H0V36h35.612V.045Z" fill="#878586"/><path fill-rule="evenodd" clip-rule="evenodd" d="m26.228 6.65.642.819.842.194-.416.362.65.874-.954-.626-.508.385-.124-.812-.966-.669.906.171-.072-.699ZM29.97 11.416l.77.985.799.056-.287.616.795 1.06-1.009-.638-.373.669-.3-1.111-1.032-.694.861.015-.224-.958ZM30.963 17.643l1.011 1.405.969-.188-.289 1.156 1.066 1.551-1.288-.736-.405 1.337-.461-1.853-1.337-.834 1.078-.282-.343-1.556ZM11.583 3.2l.607 1.15 1.848.411-1.454.375.585 1.252-1.656-1-1.835.412.742-1.086-1.663-1.061 2.136.422.69-.875ZM25.623 24.325l1.3 2.285 1.668-.69-.782 2.29 1.394 2.621-2.012-.927-1.13 2.939-.232-3.608-2.108-1.131 2.006-.963-.104-2.816ZM6.74 9.485l.69 1.823 2.813.173-2.378 1.104.648 2.076-2.46-1.264-3.257 1.395 1.616-2.28-2.517-1.415 3.486.115L6.74 9.485ZM12.476 20.74l1.044 2.605 2.89-.599-2.193 2.462 1.068 3.08-2.799-1.21-3.216 3.376 1.332-4.246-2.918-1.448 3.697-.928 1.095-3.092ZM19.71 3.248l.597.855 1.135.312-.744.263.593.91-1.128-.734-.907.267.155-.764-1.14-.78 1.252.317.186-.646Z" fill="#FEFEFE"/><path fill-rule="evenodd" clip-rule="evenodd" d="M45.218 28.594c0 .485-.105.794-.351 1.066a1.434 1.434 0 0 1-1.078.472c-.401 0-.767-.148-1.041-.427-.386-.387-.386-.855-.386-1.667 0-.784 0-1.277.386-1.666a1.427 1.427 0 0 1 1.053-.428c.538 0 .832.199 1.208.56l-.292.295c-.269-.272-.503-.463-.911-.463-.281 0-.53.106-.722.297-.296.307-.286.804-.286 1.405v.159c0 .756.057 1.023.286 1.254a.983.983 0 0 0 .704.292.984.984 0 0 0 .77-.355c.16-.19.221-.417.221-.752v-.306h-.99v-.387h1.426v.65h.003ZM48.352 30.1l-.928-1.828h-.981V30.1h-.436v-4.12h1.564c.73 0 1.21.452 1.21 1.146 0 .377-.137.676-.401.885-.132.105-.237.148-.488.216l.968 1.87h-.508v.003Zm-.819-2.218c.508 0 .812-.279.812-.751 0-.478-.304-.76-.812-.76h-1.09v1.511h1.09ZM51.89 29.705a1.436 1.436 0 0 1-1.043.427c-.406 0-.767-.148-1.04-.427-.374-.377-.387-.842-.387-1.667 0-.583-.04-1.24.386-1.666.274-.277.64-.428 1.041-.428.401 0 .767.15 1.043.428.424.427.384 1.083.384 1.666 0 .825-.01 1.29-.384 1.667Zm-.34-3.072a.984.984 0 0 0-1.41 0c-.311.314-.286.782-.286 1.405 0 .548-.033 1.084.286 1.405a.981.981 0 0 0 1.41 0c.32-.324.286-.857.286-1.405 0-.573.025-1.09-.287-1.405ZM55.916 28.74c0 .814-.595 1.395-1.426 1.395-.832 0-1.422-.578-1.422-1.395v-2.76h.433v2.724c0 .627.389 1.036.986 1.036.598 0 .991-.41.991-1.035v-2.726h.436v2.76h.002ZM58.367 25.98c.756 0 1.26.485 1.26 1.209 0 .726-.504 1.214-1.26 1.214h-1.084V30.1h-.433v-4.12h1.517Zm-.04 2.03c.545 0 .866-.306.866-.821 0-.516-.321-.815-.866-.815h-1.044v1.637h1.044ZM63.63 29.705a1.428 1.428 0 0 1-1.043.427c-.406 0-.767-.148-1.041-.427-.373-.377-.383-.842-.383-1.667 0-.583-.043-1.24.383-1.666.274-.277.64-.428 1.04-.428.404 0 .77.15 1.044.428.423.427.383 1.083.383 1.666 0 .825-.01 1.29-.383 1.667Zm-.336-3.072a.994.994 0 0 0-.707-.297.993.993 0 0 0-.705.297c-.309.314-.286.782-.286 1.405 0 .548-.033 1.084.286 1.405a.99.99 0 0 0 1.412 0c.321-.324.284-.857.284-1.405 0-.573.025-1.09-.284-1.405ZM65.29 26.372v1.518h1.788v.392h-1.787V30.1h-.436v-4.12h2.535v.392h-2.1ZM70.32 30.132c-.413 0-.78-.148-1.053-.427-.406-.415-.386-1-.386-1.667 0-.784-.01-1.267.386-1.666a1.45 1.45 0 0 1 1.048-.428c.5 0 .78.174 1.14.505l-.29.294c-.255-.248-.476-.404-.845-.404-.281 0-.533.105-.717.289-.274.284-.286.739-.286 1.41v.159c0 .756.057 1.02.286 1.252.184.19.43.289.717.289.366 0 .59-.156.844-.405l.291.297c-.356.324-.642.502-1.135.502ZM74.433 29.705a1.428 1.428 0 0 1-1.043.427c-.406 0-.767-.148-1.04-.427-.374-.377-.384-.842-.384-1.667 0-.583-.042-1.24.383-1.666.274-.277.64-.428 1.041-.428.403 0 .77.15 1.043.428.424.427.384 1.083.384 1.666 0 .825-.01 1.29-.384 1.667Zm-.338-3.072a.989.989 0 0 0-1.412 0c-.309.314-.286.782-.286 1.405 0 .548-.033 1.084.286 1.405a.99.99 0 0 0 1.412 0c.32-.324.284-.857.284-1.405.002-.573.027-1.09-.284-1.405ZM78.718 30.1v-3.133l-1.115 2.482h-.374l-1.135-2.482V30.1h-.436v-4.12h.436l1.33 2.92 1.294-2.92h.438v4.12h-.438ZM81.649 25.98c.757 0 1.26.485 1.26 1.209 0 .726-.503 1.214-1.26 1.214h-1.08V30.1h-.437v-4.12h1.517Zm-.04 2.03c.545 0 .866-.306.866-.821 0-.516-.32-.815-.866-.815h-1.04v1.637h1.04ZM85.742 30.1l-.326-.933h-1.78l-.326.933h-.464l1.502-4.12h.366l1.494 4.12h-.466Zm-1.21-3.492-.767 2.174h1.526l-.759-2.174ZM89.362 30.1l-2.166-3.304V30.1h-.433v-4.12h.41l2.167 3.29v-3.29h.433v4.12h-.41Z" fill="#878586"/><path d="M91.185 25.98h-.436v4.12h.436v-4.12Z" fill="#878586"/><path fill-rule="evenodd" clip-rule="evenodd" d="M92.148 30.1v-4.12h2.532v.392h-2.093v1.455h1.785v.39h-1.785v1.488h2.093v.395h-2.532ZM97.096 26.42a1.4 1.4 0 0 0-.52-.091c-.558 0-.885.284-.885.767 0 .387.24.618.732.693l.449.07c.373.059.567.134.746.29.227.196.342.475.342.814 0 .73-.55 1.17-1.462 1.17-.281 0-.55-.05-.772-.146-.214-.086-.328-.169-.575-.4l.299-.297c.214.201.311.264.488.34.174.068.37.108.6.108.625 0 .986-.284.986-.77 0-.218-.062-.392-.194-.507-.122-.111-.224-.151-.533-.199l-.478-.075c-.705-.111-1.06-.476-1.06-1.076 0-.73.502-1.17 1.341-1.17.237 0 .466.04.653.116.189.07.298.141.527.337l-.281.284c-.172-.148-.251-.2-.403-.259Z" fill="#878586"/><path fill-rule="evenodd" clip-rule="evenodd" d="M42.519 35.887v-4.12h2.534v.394h-2.099v1.453h1.788v.392h-1.788v1.489h2.1v.392h-2.535ZM48.554 34.53c0 .814-.595 1.395-1.427 1.395-.831 0-1.421-.579-1.421-1.396v-2.76h.433v2.723c0 .626.388 1.035.986 1.035.595 0 .99-.41.99-1.035v-2.725h.437v2.762h.002ZM51.83 35.887l-.928-1.828h-.979v1.828h-.435v-4.12h1.563c.727 0 1.21.452 1.21 1.146 0 .377-.139.676-.403.885-.13.105-.234.148-.488.216l.969 1.87h-.508v.003Zm-.819-2.215c.51 0 .815-.279.815-.752 0-.477-.304-.759-.815-.759h-1.088v1.511h1.088ZM55.371 35.492c-.276.28-.637.428-1.043.428-.406 0-.767-.149-1.04-.428-.374-.377-.387-.842-.387-1.666 0-.584-.04-1.24.386-1.667.274-.277.64-.428 1.041-.428.4 0 .767.151 1.043.428.423.427.384 1.083.384 1.666 0 .825-.01 1.293-.384 1.667Zm-.338-3.07a.984.984 0 0 0-1.41 0c-.31.315-.286.783-.286 1.406 0 .548-.035 1.083.286 1.408a.982.982 0 0 0 1.41 0c.323-.325.286-.857.286-1.408 0-.573.025-1.094-.286-1.405ZM58.117 31.769c.757 0 1.26.485 1.26 1.21 0 .726-.503 1.214-1.26 1.214h-1.083v1.696h-.433v-4.12h1.517Zm-.04 2.029c.543 0 .865-.307.865-.822 0-.516-.322-.815-.864-.815h-1.044v1.637h1.044ZM60.025 35.887v-4.12h2.532v.394H60.46v1.453h1.786v.392H60.46v1.489h2.097v.392h-2.532ZM65.86 35.887l-.325-.933h-1.78l-.327.933h-.463l1.501-4.12h.367l1.493 4.12h-.465Zm-1.21-3.49-.766 2.175h1.526l-.76-2.175ZM69.484 35.887l-2.17-3.303v3.303h-.432v-4.12h.41l2.167 3.293v-3.294h.435v4.12h-.41ZM74.991 35.887v-3.13l-1.118 2.481h-.37l-1.136-2.481v3.13h-.436v-4.12h.436l1.33 2.923 1.294-2.923h.436v4.12h-.436ZM76.403 35.887v-4.12h2.534v.394h-2.096v1.453h1.785v.392h-1.785v1.489h2.096v.392h-2.534ZM81.019 31.769c.423 0 .784.133 1.03.38.334.337.404.834.404 1.284v.335c0 .58.027 1.292-.403 1.737-.24.249-.608.382-1.031.382h-1.397v-4.12h1.397v.002Zm-.075 3.723c.344 0 .625-.103.802-.301.184-.202.269-.536.269-1.1v-.313c0-.812-.058-1.086-.27-1.32-.183-.196-.457-.3-.8-.3h-.89v3.332h.89v.002Z" fill="#005392"/><path d="M83.73 31.767h-.435v4.12h.435v-4.12Z" fill="#005392"/><path fill-rule="evenodd" clip-rule="evenodd" d="M86.008 35.922c-.41 0-.776-.148-1.053-.427-.406-.415-.383-1-.383-1.667 0-.785-.01-1.267.383-1.667a1.458 1.458 0 0 1 1.049-.427c.5 0 .779.173 1.142.505l-.293.294c-.254-.249-.478-.404-.844-.404a.997.997 0 0 0-.715.289c-.276.284-.286.739-.286 1.41v.158c0 .757.057 1.024.286 1.255.184.19.43.289.715.289.365 0 .59-.156.844-.405l.293.297c-.358.322-.645.5-1.138.5ZM90.406 35.887l-.327-.933H88.3l-.326.933h-.463l1.501-4.12h.366l1.494 4.12h-.465Zm-1.208-3.49-.77 2.175h1.527l-.757-2.175ZM91.424 35.887v-4.12h.436v3.728h2.086v.392h-2.522ZM96.847 35.922c-.414 0-.78-.148-1.056-.427-.406-.415-.383-1-.383-1.667 0-.785-.01-1.267.383-1.667a1.46 1.46 0 0 1 1.05-.427c.501 0 .78.173 1.141.505l-.294.294c-.251-.249-.475-.404-.841-.404-.282 0-.533.105-.717.289-.277.284-.287.739-.287 1.41v.158c0 .757.058 1.024.287 1.255.184.19.43.289.717.289.366 0 .59-.156.841-.405l.294.297c-.356.322-.64.5-1.135.5ZM98.687 35.887v-4.12h2.532v.394h-2.097v1.453h1.788v.392h-1.788v1.489h2.097v.392h-2.532ZM104.503 35.887l-2.164-3.303v3.303h-.435v-4.12h.41l2.166 3.293v-3.294h.439v4.12h-.416ZM107.142 32.161v3.726h-.433V32.16h-1.18v-.395h2.793v.395h-1.18ZM108.932 35.887v-4.12h2.532v.394h-2.096v1.453h1.785v.392h-1.785v1.489h2.096v.392h-2.532ZM114.492 35.887l-.926-1.828h-.981v1.828h-.436v-4.12h1.564c.727 0 1.21.452 1.21 1.146 0 .377-.137.676-.401.885-.132.105-.237.148-.488.216l.966 1.868v.002h-.508v.003Zm-.817-2.215c.508 0 .812-.279.812-.752 0-.477-.304-.759-.812-.759h-1.09v1.511h1.09Z" fill="#005392"/></g><defs><clipPath id="a"><path fill="#fff" d="M0 0h115v36H0z"/></clipPath></defs></svg>