<svg xmlns="http://www.w3.org/2000/svg" width="28" height="28" fill="none"><path stroke="#9BA3A8" stroke-linecap="round" stroke-linejoin="round" stroke-miterlimit="10" stroke-width="2" d="M10.278 2.333 6.055 6.568M17.722 2.333l4.223 4.235"/><path stroke="#9BA3A8" stroke-width="2" d="M2.333 9.158c0-2.158 1.155-2.333 2.59-2.333h18.154c1.435 0 2.59.175 2.59 2.333 0 2.509-1.155 2.334-2.59 2.334H4.923c-1.435 0-2.59.175-2.59-2.334Z"/><path stroke="#9BA3A8" stroke-linecap="round" stroke-width="2" d="M11.387 16.333v4.142M16.753 16.333v4.142M4.083 11.667l1.645 10.08c.374 2.263 1.272 3.92 4.609 3.92h7.035c3.628 0 4.165-1.587 4.585-3.78l1.96-10.22"/></svg>