<svg xmlns="http://www.w3.org/2000/svg" width="35" height="39" fill="none"><path fill="#1446A0" d="m33.712 12.31-14.71 8.826a.501.501 0 0 0-.24.433v16.443c0 .388.418.627.747.433l14.71-8.498a.515.515 0 0 0 .255-.433V12.742c-.015-.388-.434-.627-.762-.433Zm-32.408 0a.508.508 0 0 0-.762.432v16.772c0 .18.09.344.254.433l14.71 8.498a.497.497 0 0 0 .747-.433V21.569c0-.18-.09-.344-.239-.433l-14.71-8.827Zm8.975 15.233-.746-.404v2.51c0 .343-.27.462-.613.283l-1.896-1.015c-.344-.18-.613-.598-.613-.941v-2.51l-.746-.403c-.523-.283-.807-1.045-.463-1.254l2.3-1.419c.239-.15.672.09.925.493l2.3 3.898c.359.567.075 1.045-.448.762Z"/><path fill="#FF6A3D" d="M23.258 3.752 17.747.57a.485.485 0 0 0-.493 0L2.364 9.158a.504.504 0 0 0 0 .866l5.69 3.405c.164.09.359.09.508 0l14.71-8.826c.314-.194.314-.672-.014-.851Zm9.931 5.436L30.68 3.722a.51.51 0 0 0-.717-.224l-14.89 8.93a.502.502 0 0 0-.194.628l2.39 5.526a.49.49 0 0 0 .717.224L32.995 9.8a.464.464 0 0 0 .194-.612Z"/></svg>