<svg width="7" height="6" fill="none" xmlns="http://www.w3.org/2000/svg"><path d="m1.061 5.439-.085.091c.065.06.143.095.232.095a.31.31 0 0 0 .232-.1L3.5 3.47l2.054 2.057.005.005a.335.335 0 0 0 .307.082.255.255 0 0 0 .162-.087.25.25 0 0 0 .087-.157.355.355 0 0 0-.002-.165v-.003a.358.358 0 0 0-.08-.144l-.005-.006L3.971 3 6.03.948l.003-.004a.309.309 0 0 0 .086-.243.328.328 0 0 0-.09-.22.318.318 0 0 0-.238-.106.315.315 0 0 0-.237.1L3.501 2.53 1.44.474a.31.31 0 0 0-.232-.099.328.328 0 0 0-.235.103.32.32 0 0 0-.098.23c0 .09.034.17.095.236l.003.003L3.022 3 .973 5.053l-.003.003a.341.341 0 0 0-.095.236c0 .092.033.175.102.238l.084-.091Zm0 0A.19.19 0 0 1 1 5.292c0-.057.02-.107.061-.151l.289.298a.185.185 0 0 1-.142.061.21.21 0 0 1-.147-.061Z" fill="#fff" stroke="#fff" stroke-width=".25"/></svg>