<svg width="32" height="32" viewBox="0 0 32 32" fill="none" xmlns="http://www.w3.org/2000/svg">
	<path d="M6.6665 13.3334H9.33317C11.9998 13.3334 13.3332 12.0001 13.3332 9.33341V6.66675C13.3332 4.00008 11.9998 2.66675 9.33317 2.66675H6.6665C3.99984 2.66675 2.6665 4.00008 2.6665 6.66675V9.33341C2.6665 12.0001 3.99984 13.3334 6.6665 13.3334Z" stroke="#FF6A3D" stroke-width="2" stroke-miterlimit="10" stroke-linecap="round" stroke-linejoin="round"/>
	<path d="M22.6665 13.3334H25.3332C27.9998 13.3334 29.3332 12.0001 29.3332 9.33342V6.66675C29.3332 4.00008 27.9998 2.66675 25.3332 2.66675H22.6665C19.9998 2.66675 18.6665 4.00008 18.6665 6.66675V9.33342C18.6665 12.0001 19.9998 13.3334 22.6665 13.3334Z" fill="#FF6A3D" stroke="#FF6A3D" stroke-width="2" stroke-miterlimit="10" stroke-linecap="round" stroke-linejoin="round"/>
	<path d="M22.6665 29.3334H25.3332C27.9998 29.3334 29.3332 28.0001 29.3332 25.3334V22.6667C29.3332 20.0001 27.9998 18.6667 25.3332 18.6667H22.6665C19.9998 18.6667 18.6665 20.0001 18.6665 22.6667V25.3334C18.6665 28.0001 19.9998 29.3334 22.6665 29.3334Z" stroke="#FF6A3D" stroke-width="2" stroke-miterlimit="10" stroke-linecap="round" stroke-linejoin="round"/>
	<path d="M6.6665 29.3334H9.33317C11.9998 29.3334 13.3332 28.0001 13.3332 25.3334V22.6667C13.3332 20.0001 11.9998 18.6667 9.33317 18.6667H6.6665C3.99984 18.6667 2.6665 20.0001 2.6665 22.6667V25.3334C2.6665 28.0001 3.99984 29.3334 6.6665 29.3334Z" fill="#FF6A3D" stroke="#FF6A3D" stroke-width="2" stroke-miterlimit="10" stroke-linecap="round" stroke-linejoin="round"/>
	</svg>
	