<svg width="20" height="23" fill="none" xmlns="http://www.w3.org/2000/svg"><path d="M17.87 21.173c1.482-1.544 1.482-4.053 0-5.597L7.391 4.661a2.164 2.164 0 0 0-3.138 0c-.86.896-.86 2.362 0 3.257l9.723 10.128.006.007a.619.619 0 0 0 .448.198.619.619 0 0 0 .451-.192l-.072-.07.072.07a.662.662 0 0 0 .183-.463h-.1a.562.562 0 0 0-.16-.391l3.066 3.968Zm0 0a3.705 3.705 0 0 1-5.384 0L2.007 10.258c-2.097-2.184-2.104-5.72-.02-7.913l.02-.023a5.244 5.244 0 0 1 7.63 0l9.729 10.135a.663.663 0 0 1 .006.925l-1.502 7.79Zm-2.995-4.038 4.425-3.823a.518.518 0 0 1-.378.162v.1h-.001a.619.619 0 0 1-.448-.199L8.743 3.24l.073-.07-.072.07c-1.626-1.694-4.218-1.694-5.844 0a4.418 4.418 0 0 0 0 6.098l10.48 10.915c1.003 1.046 2.593 1.046 3.597 0a2.72 2.72 0 0 0 0-3.76L6.498 5.58a.916.916 0 0 0-1.352 0 1.02 1.02 0 0 0 0 1.421l9.729 10.135Z" fill="#FF6A3D" stroke="#FF6A3D" stroke-width=".2"/></svg>