<svg width="39" height="39" viewBox="0 0 39 39" fill="none" xmlns="http://www.w3.org/2000/svg">
<path d="M31.5334 8.92218C31.7357 8.70451 31.8211 8.45593 31.7902 8.17579C31.7902 7.91159 31.6969 7.6783 31.5102 7.47625C31.3079 7.25858 31.0667 7.1499 30.7867 7.1499C30.4912 7.1499 30.25 7.25076 30.0635 7.45282L19.4935 18.0412L8.87688 7.45282C8.69016 7.25076 8.45682 7.1499 8.17688 7.1499C7.91229 7.1499 7.67115 7.25858 7.45341 7.47625C7.25133 7.67831 7.15002 7.9116 7.15002 8.17579C7.15002 8.45593 7.25132 8.70452 7.45341 8.92218L18.0001 19.4872L7.45341 30.0523C7.25133 30.27 7.15002 30.5189 7.15002 30.7987C7.15002 31.0941 7.25132 31.3352 7.45341 31.5217C7.67112 31.7237 7.91226 31.8249 8.17688 31.8249C8.45682 31.8249 8.69016 31.7237 8.87688 31.5217L19.4935 20.9333L30.0635 31.5217C30.2034 31.646 30.3591 31.7315 30.5302 31.7784C30.7013 31.8249 30.8802 31.8249 31.0667 31.7784C31.2534 31.7628 31.4091 31.6772 31.5333 31.5217C31.6891 31.3974 31.7745 31.2497 31.7901 31.0785C31.8367 30.8921 31.8367 30.7053 31.7901 30.5189C31.7435 30.3477 31.6578 30.1922 31.5333 30.0523L20.94 19.4872L31.5334 8.92218Z" fill="white"/>
</svg>
