<svg width="22" height="20" fill="none" xmlns="http://www.w3.org/2000/svg"><path d="M16.417.792H5.583C2.333.792.167 2.417.167 6.208v7.584c0 3.791 2.166 5.416 5.416 5.416h10.834c3.25 0 5.416-1.625 5.416-5.416V6.208c0-3.791-2.166-5.416-5.416-5.416Zm.509 6.597-3.391 2.709c-.715.574-1.625.855-2.535.855-.91 0-1.83-.281-2.535-.855l-3.39-2.709a.833.833 0 0 1-.13-1.148.81.81 0 0 1 1.137-.13l3.39 2.708c.824.661 2.221.661 3.045 0l3.39-2.708a.8.8 0 0 1 1.138.13.822.822 0 0 1-.12 1.148Z" fill="#FF6A3D"/></svg>