<svg width="21" height="25" viewBox="0 0 21 25" fill="none" xmlns="http://www.w3.org/2000/svg">
<path fill-rule="evenodd" clip-rule="evenodd" d="M20.865 10.5522C20.865 16.1183 12.1896 23.7277 11.2003 24.5768C10.7844 24.9344 10.1686 24.9328 9.75489 24.5726C8.76128 23.7276 0.0859375 16.1182 0.0859375 10.5521C0.0859375 4.72423 4.73739 0 10.4754 0C16.2131 0 20.865 4.72449 20.865 10.5522ZM15.198 9.9001C15.198 12.3853 13.0836 14.4001 10.4755 14.4001C7.8674 14.4001 5.75303 12.3853 5.75303 9.9001C5.75303 7.41487 7.8674 5.4001 10.4755 5.4001C13.0836 5.4001 15.198 7.41487 15.198 9.9001Z" fill="#FF6A3D"/>
</svg>
