<svg width="314" height="58" fill="none" xmlns="http://www.w3.org/2000/svg"><g clip-path="url(#a)"><path d="m20.115 14.064-5.673 13.858-5.674-13.858H0v21.763h6.292L6.19 20.428l6.19 15.399h4.126l6.189-15.399-.103 15.399h6.292V14.064h-8.768ZM128.736 14.064l-5.777 13.858-5.673-13.858h-8.768v21.763h6.292l-.103-15.399 6.292 15.399h4.023l6.19-15.399v15.399h6.189V14.064h-8.665ZM210.021 14.064l-5.673 13.858-5.674-13.858h-8.768v21.763h6.292l-.103-15.399 6.293 15.399h4.023l6.189-15.399v15.399h6.189V14.064h-8.768ZM52.608 35.827H31.875V14.064h20.733v4.209l-14.441.102v4.106h12.378v4.107H38.167v5.132h14.441v4.107ZM64.471 14.064c-6.396.308-8.768 7.699-8.768 17.656h-2.27v4.107h24.964V14.064H64.47Zm7.737 17.656H61.892v-2.566c0-6.16 1.444-10.676 5.467-10.881h4.849V31.72ZM104.185 35.93h-5.157V20.427L89.744 35.93H82.42V14.064h5.26v16.63l10.316-16.63h6.189v21.865ZM146.375 35.93h-5.158V14.063h5.158v8.52h5.158l6.292-8.52h6.499l-7.633 10.47 7.427 11.395H157.619l-5.674-8.726-5.57.103v8.623Z" fill="#fff"/><path d="M175.877 14.064c-6.499 0-11.863 4.927-11.863 10.881 0 5.954 5.364 10.984 11.863 10.984s11.863-4.927 11.863-10.881c0-5.954-5.261-10.984-11.863-10.984Zm0 17.246c-3.61 0-6.602-2.875-6.602-6.365s2.992-6.364 6.602-6.364c3.611 0 6.602 2.874 6.602 6.364 0 3.593-2.991 6.365-6.602 6.365ZM0 47.221h1.135l2.682 4.004.515.821c.207-.308.31-.616.516-.821l2.58-4.004h1.134v8.315H7.427v-6.775c-.206.308-.31.616-.516.924l-2.579 3.798h-.206L1.65 49.788c-.103-.103-.206-.308-.309-.411-.103-.103-.103-.308-.206-.308l-.103-.103V55.434H.103V47.324L0 47.22ZM10.109 47.221h5.158v1.027c-.413 0-.825-.103-1.135-.103H11.45v2.874l3.3-.102-.102 1.026-3.301-.102v2.874H15.267l-.103.924h-4.952v-8.213l-.103-.205ZM15.37 54.715h.619c.103-.205.31-.308.412-.513l.31-.616c.103-.206.206-.41.206-.719 0-.308.103-.513.206-.718.104-.206.104-.514.104-.822 0-.308.103-.615.103-.82 0-.206.103-.514.103-.925 0-.41 0-.718.103-.924 0-.205 0-.616.103-1.026h4.849v7.494h1.134v3.182l-1.031.103-.207-2.464h-5.88v2.361l-1.031.103-.103-3.696Zm1.857 0h4.023v-6.57h-2.682c-.104 1.643-.207 2.874-.413 3.901-.206 1.026-.516 1.95-.928 2.669ZM24.447 47.221l1.238-.102V54.099h.103c.207-.41.413-.821.62-1.129l3.816-5.749 1.135-.102v8.315H30.12v-6.878c-.103.308-.31.718-.516 1.026l-3.92 5.852h-1.134V47.22h-.104ZM32.906 47.221l1.238-.102v7.493h4.23v-7.596l1.237-.103v7.494h1.135V57.59l-1.032.103-.206-2.464h-6.499v-8.212l-.103.205ZM41.57 47.221l1.239-.102V54.099h.103c.206-.41.413-.821.619-1.129l3.816-5.749 1.135-.102v8.315h-1.238v-6.878c-.103.308-.31.718-.515 1.026l-3.92 5.852h-1.135V47.22h-.103ZM50.03 47.221l1.237-.102v3.593h4.23V47.016l1.237-.103v8.315h-1.237V51.43h-4.23v3.798H50.03v-8.212.205ZM57.972 51.635c0-.924.104-1.745.413-2.36a4.085 4.085 0 0 1 1.238-1.643c.619-.41 1.238-.616 2.063-.616h.722c.206 0 .516.102.722.102.206 0 .413.103.619.103l-.206 1.027s-.31 0-.825-.103c-.516-.103-.929-.103-1.238-.103-.516 0-.929.103-1.238.411-.413.308-.62.719-.825 1.13a4.238 4.238 0 0 0-.31 1.642c0 .41 0 .718.103 1.026l.31.924c.103.308.31.513.515.821.207.206.516.411.826.514.31.102.722.205 1.031.205.31 0 .62 0 .929-.103.31 0 .515-.102.619-.102l.206-.103.206.821s-.103.103-.206.103-.31.103-.62.103c-.309.102-.721.102-1.134.102-1.238 0-2.166-.41-2.785-1.129-.825-.616-1.135-1.54-1.135-2.772ZM64.78 47.221h1.238v3.696h.826c.825-1.027 1.34-1.745 1.65-2.259.31-.41.619-.924.825-1.334h1.238c-.31.513-.619 1.026-1.031 1.54-.413.513-1.032 1.334-1.857 2.36l2.579 3.491c.103.103.206.205.31.41.102.206.205.206.309.309l.103.102-1.444.103-2.889-3.901h-.619v3.696h-1.237V47.22ZM71.589 47.221l1.238-.102V54.099h.103c.206-.41.412-.821.619-1.129l3.816-5.749h1.032v8.315h-1.238v-6.878c-.103.308-.31.72-.516 1.027l-3.92 5.851H71.59v-8.315ZM80.047 47.221h5.158l-.103 1.027c-.413 0-.825-.103-1.135-.103h-2.682v2.874l3.301-.102-.103 1.026-3.301-.102v2.874H85.102l-.103.924h-5.055v-8.213l.103-.205ZM88.506 47.221h1.238v6.981h.103c.206-.41.413-.822.619-1.13l3.817-5.748 1.134-.103v8.315H94.18V48.658c-.103.308-.31.719-.516 1.027l-3.92 5.851H88.61v-8.212l-.103-.103ZM96.242 55.331v-.924c.104 0 .207 0 .31.103.103 0 .31.102.619.102.31 0 .619.103.928.103.62 0 1.135-.103 1.444-.41.31-.309.413-.616.413-1.13 0-.513-.103-.82-.413-1.129-.31-.308-.722-.41-1.238-.41h-.825v-.822h.929c.515 0 .825-.102 1.031-.41.207-.206.413-.616.413-1.027 0-.41-.103-.821-.31-1.027-.206-.308-.515-.41-1.031-.41-.207 0-.62 0-1.135.102-.412.103-.722.206-.825.206l-.103-.924c.103 0 .31 0 .619-.103.31 0 .515-.102.722-.102h.619c.825 0 1.547.205 1.96.616.412.41.619.923.619 1.642 0 .41-.104.821-.31 1.13-.206.307-.516.615-1.031.718a2.46 2.46 0 0 1 1.134.616c.31.308.413.718.413 1.232 0 .718-.31 1.334-.825 1.847-.516.514-1.238.719-2.27.719-.31 0-.619 0-1.031-.103-.31 0-.516-.102-.722-.102l-.104-.103ZM101.297 54.715h.619c.103-.205.309-.308.413-.513l.309-.616c.103-.206.206-.41.206-.719.103-.308.103-.513.207-.718.103-.206.103-.514.103-.822 0-.308.103-.615.103-.82 0-.206.103-.514.103-.925 0-.41 0-.718.103-.924 0-.205 0-.616.103-1.026h4.849v7.494h1.134v3.182l-1.031.103-.207-2.464h-5.982v2.361l-1.032.103v-3.696Zm1.857 0h4.023v-6.57h-2.682c-.103 1.643-.207 2.874-.413 3.901-.206 1.026-.516 1.95-.928 2.669ZM110.375 47.221h5.157l-.103.924c-.413 0-.825-.103-1.135-.103h-2.682v2.875l3.301-.103-.103 1.027-3.301-.103v2.874H115.429l-.103.924h-5.055v-8.212l.104-.103ZM115.635 54.612a.788.788 0 0 0 .516-.205c.103-.103.31-.205.413-.41l.309-.617c.103-.205.206-.513.31-.82.103-.309.103-.617.206-.925 0-.308.103-.718.103-1.231 0-.514.103-1.027.103-1.438 0-.41.103-1.026.207-1.745h4.641v8.213h-1.237v-7.392h-2.476c-.103.719-.103 1.335-.206 1.746 0 .41-.104.924-.104 1.54-.103.615-.103 1.026-.206 1.334-.103.308-.206.718-.309 1.026-.103.411-.31.719-.516.924l-.619.616c-.206.206-.516.308-.825.41l-.31-1.026ZM124.197 47.221l1.238-.102V54.099h.103c.206-.41.413-.821.619-1.129l3.817-5.749 1.134-.102v8.315h-1.237v-6.878c-.104.308-.31.718-.516 1.026l-3.92 5.852H124.3V47.22h-.103ZM131.831 55.536l2.063-3.182c-.516-.205-.826-.513-1.135-.924-.31-.41-.413-.924-.413-1.437 0-.821.31-1.437.826-1.95.515-.514 1.237-.719 2.166-.719h2.372v8.418l-1.238.102v-2.977H134.822l-1.857 2.977h-1.134v-.308Zm1.753-5.646c0 .514.206 1.027.516 1.335.309.308.825.513 1.444.513h1.032v-3.593h-1.032c-.619 0-1.135.205-1.444.513-.31.309-.516.72-.516 1.232ZM.103 40.857H239.73v1.026H.103" fill="#fff"/><path d="M239.626 41.37h.722a.703.703 0 0 0 .722-.719V39.01c0-.206.103-.41.207-.513l.412-.514a.783.783 0 0 0 .206-.513l.207-6.16c0-.615.206-1.231.516-1.744l1.444-2.362v-2.668c0-.308 0-.514.103-.822l.103-.205v-.821c0-.206.103-.41.206-.616l.103-.103c.104-.205.207-.41.207-.616V19.71L245.506 0M250.045 39.42v-.616a.783.783 0 0 0-.207-.514l-.412-.513a.783.783 0 0 1-.207-.513l-.206-6.16c0-.616-.206-1.231-.516-1.745L247.053 27v-2.67c0-.308 0-.513-.103-.821l-.103-.205v-.822c0-.205-.103-.41-.206-.616l-.104-.102c-.103-.206-.206-.41-.206-.616v-1.643L245.506.205M266.756 41.575c0-.102.412.308.928.719.516.41 1.547.513 1.65-.205.31-2.772 3.301-5.75 7.221-5.852.103 0 0-.718 0-1.232 0-.102.825-.82 1.341-1.642.31-.513.207-2.772.207-4.106 0-.206.825-.411.825-.924 0-1.335.619-2.361 1.96-3.285v-2.053c0-.103.928-2.67.928-2.67" stroke="#fff" stroke-miterlimit="10"/><path d="M295.845 41.986c-.413 1.232-1.238-.103-1.341-.513-.722-2.567-3.507-5.133-7.118-5.236-.103 0 0-.718 0-1.232 0-.102-.825-.82-1.341-1.642-.309-.513-.206-2.772-.206-4.106 0-.206-.825-.41-.825-.924 0-1.335-.722-2.464-1.96-3.285v-2.053c0-.103-1.032-3.183-1.032-3.183l-.928 3.183M250.045 39.111s-.103 3.08-.103 3.696c.309 3.182 1.134 13.653 1.134 13.653 0 .103.207.103.207 0l2.372-16.22c0-.205.31-.307.413-.102l.928.821c.31.308.825.103.928-.308l3.198-10.881c.103-.205.31-.205.413 0l3.404 13.242a.776.776 0 0 0 .722.514l1.238-1.848c.206-.308.619-.513 1.031-.513l1.857 1.232c.206.102.413.205.619.205" stroke="#fff" stroke-miterlimit="10"/><path d="M314 42.5h-13.1c-.413 0-.723-.206-1.032-.514l-2.166-2.772c-.103-.102-.207-.102-.207 0l-1.753 2.875" stroke="#fff" stroke-miterlimit="10"/></g><defs><clipPath id="a"><path fill="#fff" d="M0 0h314v58H0z"/></clipPath></defs></svg>