<svg width="41" height="42" fill="none" xmlns="http://www.w3.org/2000/svg"><circle cx="20.5" cy="20.657" r="20.5" fill="#FF6A3D"/><g clip-path="url(#a)"><path fill-rule="evenodd" clip-rule="evenodd" d="M27.957 19.692c0 3.974-6.23 9.408-6.94 10.014l-.52.445-.518-.448c-.714-.603-6.944-6.037-6.944-10.011 0-4.161 3.34-7.534 7.461-7.534 4.12 0 7.46 3.373 7.46 7.534Zm-4.07-.465c0 1.774-1.518 3.213-3.39 3.213-1.874 0-3.392-1.439-3.392-3.213 0-1.775 1.518-3.214 3.391-3.214s3.391 1.439 3.391 3.213Z" fill="#fff"/></g><defs><clipPath id="a"><path fill="#fff" transform="translate(11 12.158)" d="M0 0h19v18H0z"/></clipPath></defs></svg>