<svg xmlns="http://www.w3.org/2000/svg" width="67" height="68" fill="none"><path fill="#65AFFF" d="M37.453 0 0 38.012V68L67 0H37.453Z"/><path fill="#fff" d="m13.588 45.789-.983 1.005-2.76-2.702-2.762 2.821 2.758 2.702-.98 1-6.12-5.993.98-1 2.503 2.451 2.764-2.822L6.484 40.8l.984-1.005 6.12 5.994ZM17.42 35.738c.996.976 1.526 1.984 1.59 3.025.065 1.038-.349 2.013-1.242 2.926-.905.923-1.874 1.366-2.908 1.327-1.033-.044-2.055-.561-3.065-1.55-1.01-.99-1.543-1.998-1.598-3.025-.052-1.03.374-2.007 1.278-2.93.891-.91 1.855-1.345 2.891-1.303 1.037.042 2.054.552 3.053 1.53Zm-4.576 4.672c.754.738 1.475 1.146 2.164 1.225.685.075 1.32-.185 1.906-.783.582-.594.828-1.23.738-1.91-.087-.68-.512-1.394-1.274-2.14-.75-.736-1.467-1.143-2.15-1.221-.681-.081-1.312.175-1.894.77-.588.6-.838 1.243-.75 1.93.09.684.51 1.394 1.26 2.13ZM15.655 31.435l1.78-1.817c.825-.843 1.543-1.33 2.155-1.464.615-.137 1.187.055 1.717.574.358.35.565.733.621 1.15.057.416-.053.828-.33 1.234l.041.04c.502-.35.971-.508 1.408-.474.437.029.86.242 1.267.642.55.538.792 1.153.727 1.844-.064.686-.431 1.37-1.101 2.054l-2.165 2.21-6.12-5.993Zm3.508 1.476.943-.963c.41-.419.644-.789.701-1.11.055-.323-.077-.641-.395-.953-.287-.281-.598-.38-.931-.297-.33.081-.718.348-1.16.8l-.849.866 1.691 1.657Zm.813.795 1.938 1.898 1.041-1.063c.41-.419.64-.812.688-1.18.049-.373-.1-.73-.446-1.069-.319-.311-.66-.433-1.028-.366-.366.068-.767.323-1.201.767l-.992 1.013ZM21.198 25.775l.898-.917 3.181 3.116c.332.325.66.663.984 1.013.322.348.538.584.65.71l.037-.037-1.815-7.904 1.144-1.168 6.12 5.994-.901.92-3.157-3.09a32.936 32.936 0 0 1-1.68-1.802l-.033.034 1.84 7.953-1.148 1.172-6.12-5.994ZM38.694 20.152l-.983 1.004-2.76-2.701-2.762 2.821 2.758 2.702-.98 1-6.12-5.993.98-1 2.503 2.45 2.764-2.82-2.504-2.452.984-1.005 6.12 5.994ZM44.873 13.843l-1.152 1.176-5.57-.517 3.102 3.037-.98 1.001-6.12-5.994.98-1 2.963 2.902-.537-5.38 1.074-1.097.537 5.364 5.703.508ZM49.386 9.234 47.088 8.18l-2.291 2.34 1.113 2.263-1.033 1.055-3.903-8.308 1.066-1.089 8.388 3.728-1.042 1.064ZM45.967 7.6 43.74 6.542a17.703 17.703 0 0 1-1.375-.707c.27.412.537.89.802 1.434l1.054 2.114L45.968 7.6Z"/></svg>