<svg xmlns="http://www.w3.org/2000/svg" width="48" height="49" fill="none"><path fill="#E63946" d="m24 .727 4.63 5.219 6.523-2.47 1.674 6.772 6.925.846-1.665 6.774 5.738 3.966-4.622 5.225 3.237 6.179-6.52 2.478-.005 6.976-6.925-.836-3.246 6.174L24 44.071l-5.744 3.959-3.246-6.174-6.925.836-.005-6.976-6.52-2.478 3.237-6.179-4.622-5.225 5.738-3.966-1.665-6.774 6.925-.846 1.674-6.772 6.524 2.47L24 .727Z"/><g clip-path="url(#a)"><path fill="#fff" d="M29.5 33.727a3.5 3.5 0 1 1 0-7 3.5 3.5 0 0 1 0 7Zm0-2a1.5 1.5 0 1 0 0-3 1.5 1.5 0 0 0 0 3Zm-11-9a3.501 3.501 0 0 1-1.34-6.733 3.5 3.5 0 1 1 1.34 6.733Zm0-2a1.5 1.5 0 1 0 0-3 1.5 1.5 0 0 0 0 3Zm12.571-4.485 1.414 1.414L16.93 33.212l-1.414-1.414L31.07 16.242h.001Z"/></g><defs><clipPath id="a"><path fill="#fff" d="M12 12.727h24v24H12z"/></clipPath></defs></svg>