<svg width="36" height="36" fill="none" xmlns="http://www.w3.org/2000/svg"><circle cx="9" cy="18" r="5.4" fill="#9BA3A8"/><circle cx="27" cy="18" r="5.4" fill="#9BA3A8"/><path d="M34.875 16.2H33.3c-.9-2.7-3.375-4.5-6.3-4.5s-5.4 2.025-6.3 4.725c-.675-.9-1.575-1.35-2.7-1.35-1.125 0-2.025.45-2.7 1.35-.9-2.7-3.375-4.725-6.3-4.725s-5.4 2.025-6.3 4.5H1.125C.45 16.2 0 16.65 0 17.325s.45 1.125 1.125 1.125H2.25c0 3.825 2.925 6.75 6.75 6.75 3.375 0 6.075-2.475 6.75-5.625.675 0 1.125-.45 1.125-1.125s.45-1.125 1.125-1.125 1.125.45 1.125 1.125.45 1.125 1.125 1.125c.45 3.15 3.375 5.625 6.75 5.625 3.825 0 6.75-2.925 6.75-6.75h1.125C35.55 18.45 36 18 36 17.325s-.45-1.125-1.125-1.125ZM9 22.95a4.513 4.513 0 0 1-4.5-4.5c0-2.475 2.025-4.5 4.5-4.5s4.5 2.025 4.5 4.5-2.025 4.5-4.5 4.5Zm18 0a4.513 4.513 0 0 1-4.5-4.5c0-2.475 2.025-4.5 4.5-4.5s4.5 2.025 4.5 4.5-2.025 4.5-4.5 4.5Z" fill="#9BA3A8"/></svg>