<svg width="148" height="57" viewBox="0 0 148 57" fill="none" xmlns="http://www.w3.org/2000/svg">
<path d="M57.1364 28.5007C57.1364 43.3435 44.7201 55.3761 29.4009 55.3761C14.0831 55.3761 1.66406 43.3435 1.66406 28.5007C1.66406 13.6566 14.0831 1.62402 29.4009 1.62402C44.7201 1.62402 57.1364 13.6566 57.1364 28.5007Z" fill="white"/>
<path d="M124.532 14.4896H118.146V42.7007H124.532C134.274 42.7007 139.706 37.1192 139.706 28.5951C139.706 20.0075 134.367 14.4896 124.532 14.4896ZM124.959 48.5872H114.8C112.942 48.5872 111.455 47.2294 111.455 45.346V11.7871C111.455 9.9855 112.942 8.60571 114.8 8.60571H124.959C138.731 8.60571 146.336 17.5503 146.336 28.5951C146.336 39.6438 138.649 48.5872 124.959 48.5872ZM92.1198 30.3968H79.9218V42.6448H92.1198C97.0065 42.6448 99.2503 39.5828 99.2503 36.5208C99.2503 33.4601 97.0373 30.3968 92.1198 30.3968ZM90.6048 14.4896H79.9218V24.5752H90.6048C94.8418 24.5752 96.8364 22.292 96.8364 19.5298C96.8364 16.7105 94.965 14.4896 90.6048 14.4896ZM91.88 48.5872H76.5743C74.7163 48.5872 73.291 47.1464 73.291 45.346V11.7871C73.291 9.9855 74.7163 8.60571 76.5743 8.60571H90.8888C98.7546 8.60571 103.463 13.041 103.463 18.8042C103.463 24.631 99.7888 26.7078 98.5082 27.1556C100.495 27.6411 105.88 29.8503 105.88 37.1374C105.88 43.3821 100.682 48.5872 91.88 48.5872Z" fill="#04589C"/>
<path d="M38.3853 21.1573C38.4322 21.1573 38.4764 21.1495 38.526 21.1378C38.6412 21.1093 54.6127 17.284 54.6127 17.284C52.4105 12.6449 48.8874 8.7184 44.5084 5.95753C44.5084 5.95753 38.2969 20.8016 38.2648 20.8756C38.2393 20.9379 38.2326 20.9769 38.2326 21.008C38.2326 21.0937 38.3009 21.1573 38.3853 21.1573ZM32.5797 17.48C32.6038 17.6059 32.6801 17.6474 32.7498 17.6474C32.8181 17.6474 32.873 17.6033 32.9494 17.5267C33.3191 17.149 44.3356 5.8498 44.3356 5.8498C40.0504 3.19146 34.9627 1.64423 29.5014 1.62476C29.5014 1.62476 32.435 16.7388 32.5797 17.48ZM41.1944 27.0905C41.2868 27.1204 56.8645 32.2696 56.8645 32.2696C57.044 31.0378 57.1364 29.78 57.1364 28.5001C57.1364 24.5698 56.2657 20.8367 54.7011 17.4709C54.7011 17.4709 41.2171 26.6868 41.1341 26.7439C41.0524 26.8011 41.0149 26.8517 41.0149 26.9114C41.0149 27.0165 41.1006 27.0607 41.1944 27.0905ZM20.5665 21.008C20.5665 20.9769 20.5615 20.9379 20.5344 20.8756C20.5035 20.8016 14.2921 5.95753 14.2921 5.95753C9.91305 8.7184 6.38868 12.6449 4.18645 17.284C4.18645 17.284 20.158 21.1093 20.2745 21.1378C20.324 21.1495 20.3669 21.1573 20.4152 21.1573C20.4983 21.1573 20.5665 21.0937 20.5665 21.008ZM29.2991 1.62476C23.8377 1.64423 18.7488 3.19146 14.4649 5.8498C14.4649 5.8498 25.48 17.149 25.8511 17.5267C25.9274 17.6033 25.9824 17.6474 26.0507 17.6474C26.1203 17.6474 26.1954 17.6059 26.2208 17.48C26.3655 16.7388 29.2991 1.62476 29.2991 1.62476ZM17.6048 27.0905C17.5124 27.1204 1.93466 32.2696 1.93466 32.2696C1.75649 31.0378 1.66406 29.78 1.66406 28.5001C1.66406 24.5698 2.53478 20.8367 4.09938 17.4709C4.09938 17.4709 17.5834 26.6868 17.6651 26.7439C17.7481 26.8011 17.7843 26.8517 17.7843 26.9114C17.7843 27.0165 17.6986 27.0607 17.6048 27.0905Z" fill="#F26925"/>
<path d="M29.4003 55.3758C43.3009 55.3758 54.8117 45.468 56.8237 32.545L46.4864 33.9416C46.3269 33.9624 46.2613 34.0442 46.2225 34.1532C44.1729 39.9398 39.0089 44.3426 32.6045 45.4719C35.0439 44.3206 36.725 41.8946 36.725 39.0883C36.725 35.1683 33.4458 31.9907 29.4003 31.9907C25.3562 31.9907 22.0756 35.1683 22.0756 39.0883C22.0756 41.8946 23.7568 44.3206 26.1961 45.4719C19.7917 44.3426 14.6264 39.9398 12.5768 34.1532C12.538 34.0442 12.4737 33.9624 12.3143 33.9416L1.97559 32.545C3.98894 45.468 15.4997 55.3758 29.4003 55.3758Z" fill="#F26925"/>
</svg>
