<svg width="91" height="85" viewBox="0 0 91 85" fill="none" xmlns="http://www.w3.org/2000/svg">
<path d="M62.8721 31.4435C69.4423 27.758 68.8144 25.301 70.3796 20.387C71.9448 15.473 73.2006 13.3254 76.0125 11.1778C66.9398 10.8684 51.2969 12.4063 50.669 23.1534C50.3596 26.2292 48.7944 25.301 48.7944 21.3152C48.7944 17.3294 44.4082 0.130371 25.3164 0.130371C27.8189 2.89677 28.4468 5.96347 27.2001 10.2678C25.9443 14.563 24.0697 21.934 25.3164 26.848C25.3164 26.848 15.3064 8.72987 0.910156 32.3717C5.60576 30.8338 9.98286 29.6053 13.1133 33.2908C16.2437 36.9763 22.4954 37.8954 22.4954 37.8954C22.4954 37.8954 5.91516 50.1804 12.176 63.6848C15.3064 59.6899 17.8089 59.0802 21.5672 59.0802C25.3164 59.0802 33.7703 53.5565 33.7703 53.5565C33.7703 53.5565 19.0647 63.9942 30.0211 84.8696C30.9584 75.6604 31.2678 72.894 34.7167 69.2085C38.1565 65.523 42.2242 59.3805 42.2242 56.3138C48.1665 57.5423 62.5627 60.6181 61.9348 74.7322C68.505 67.3612 67.5677 56.0044 60.9975 52.6283C70.3796 51.7092 79.1429 46.1764 83.5291 43.4191C87.8971 40.6618 90.0902 42.5 90.0902 42.5C90.0902 42.5 83.2106 30.5244 62.8721 31.4435ZM53.945 29.6053C55.2463 29.6053 56.2928 30.6336 56.2928 31.9076C56.2928 33.1816 55.2463 34.2099 53.945 34.2099C52.6528 34.2099 51.5972 33.1816 51.5972 31.9076C51.5972 30.6336 52.6528 29.6053 53.945 29.6053ZM39.4032 25.9198C40.4406 25.9198 41.2778 26.7388 41.2778 27.758C41.2778 28.7772 40.4406 29.6053 39.4032 29.6053C38.3658 29.6053 37.5195 28.7772 37.5195 27.758C37.5195 26.7479 38.3658 25.9198 39.4032 25.9198ZM54.4182 44.3473C53.7903 50.4898 46.5922 55.4038 36.5822 51.7183C26.5722 48.0328 29.0747 41.59 29.0747 41.59C29.0747 41.59 37.5286 41.59 35.6449 29.6144C39.0938 34.219 38.1474 40.0521 37.5286 41.59C42.5336 39.133 47.2292 34.5284 47.8571 29.6144C49.1038 34.219 45.9734 40.6709 45.9734 40.6709C49.7317 37.9045 52.5436 35.1381 57.2392 36.0663C52.853 38.5233 43.7803 43.7467 44.0988 49.8892C48.7853 49.5616 52.5436 49.5616 54.4182 44.3473Z" fill="#0D0F16"/>
</svg>
