<svg width="150" height="77" viewBox="0 0 150 77" fill="none" xmlns="http://www.w3.org/2000/svg">
<path d="M129.937 59.412C129.937 59.412 129.097 59.412 128.745 59.412C128.437 59.412 127.997 59.1478 127.997 58.6195C127.997 58.0912 127.997 55.8837 127.997 54.8271C127.997 52.6667 126.101 51.3428 124.468 51.3428C123.145 51.3428 121.953 52.0472 121.116 53.8145C121.116 53.1981 121.116 51.6101 121.116 51.6101H116.572V62.6384H121.116C121.116 61.8459 121.116 56.8585 121.116 56.4182C121.116 55.6698 121.248 54.8302 122.132 54.8302C123.016 54.8302 123.192 55.6698 123.192 56.4182C123.192 56.7704 123.192 58.5346 123.192 59.3302C123.192 60.9182 124.78 62.6384 126.764 62.6384C127.604 62.6384 134.66 62.6384 134.66 62.6384V51.6478H129.896L129.937 59.412Z" fill="#0067A6"/>
<path d="M76.4311 59.5001C75.7267 59.5001 74.8431 59.2359 74.8431 56.9403C74.8431 54.6447 75.7267 54.3806 76.4311 54.3806C77.1355 54.3806 78.0192 54.6447 78.0192 56.9403C77.9752 59.2359 77.0915 59.5001 76.4311 59.5001ZM63.0663 56.324C63.2425 54.6479 64.0821 54.1636 64.7425 54.1636C65.4028 54.1636 66.2865 54.6479 66.4186 56.324H63.0663ZM50.9343 48.3837L49.1261 55.3083L47.3179 48.3837H41.1418L38.9814 62.5881H43.9657L45.1135 54.5158L47.2299 62.5881H51.1544L53.2708 54.5158L54.4186 62.5881H59.4028L58.8305 58.9718C59.5349 61.2642 61.4343 62.8523 65.0066 62.8523C68.5789 62.8523 70.167 61.7925 70.167 61.7925V59.1447C70.167 59.1447 68.7991 60.1164 66.1984 60.1164C63.5946 60.1164 63.1984 59.1447 63.1984 58.1762H70.6104C70.9626 61.5284 73.1261 62.8963 75.1104 62.8963C78.0663 62.8963 78.6827 59.9844 78.6827 59.9844C78.6827 60.912 80.2267 62.9403 82.8305 62.9403C85.6104 62.9403 87.5506 61.7045 87.5506 61.7045C87.5506 61.7045 88.3431 62.8523 90.5506 62.8523C92.2267 62.8523 93.7708 62.28 93.7708 62.28V59.5001C93.7708 59.5001 93.3305 59.5881 92.9311 59.5881C92.1387 59.5881 91.3431 59.2359 91.3431 58.0881C91.3431 56.8523 91.3431 54.5598 91.3431 54.5598H93.7708V51.6039H91.211V47.324H86.3148V51.5598H84.4185V54.5158H86.3148C86.3148 54.5158 86.3148 57.78 86.3148 58.1762C86.3148 58.7925 85.8745 59.7202 84.7267 59.7202C83.8871 59.7202 83.2267 59.1039 83.2267 58.1762C83.2267 55.5724 83.2267 47.324 83.2267 47.324H78.4185V53.0598C78.4185 53.0598 77.3588 51.2517 74.9783 51.2517C74.0946 51.2517 70.9657 51.78 70.4783 55.9718C69.906 53.0158 68.0506 51.2517 64.6544 51.2517C60.3305 51.2517 58.3902 54.2957 58.3902 56.6322C58.3902 56.7642 58.3902 56.8963 58.3902 57.0284L57.0663 48.3397L50.9343 48.3837Z" fill="#0067A6"/>
<path d="M109.16 59.5001C108.456 59.5001 107.572 59.2359 107.572 56.9403C107.572 54.6447 108.456 54.3806 109.16 54.3806C109.865 54.3806 110.748 54.6447 110.748 56.9403C110.704 59.2359 109.824 59.5001 109.16 59.5001ZM109.248 51.2957C106.868 51.2957 104.66 52.1353 103.512 53.8994V51.695C103.512 51.695 103.292 51.607 102.72 51.607C100.912 51.607 99.7199 53.2391 99.1475 54.4309C99.1475 53.8145 99.1475 51.651 99.1475 51.651H94.6035V62.6793H99.1475C99.1475 61.8869 99.1475 58.7548 99.1475 58.3114C99.1475 57.868 100.119 55.6196 102.324 55.6196C102.456 55.6196 102.632 55.6636 102.808 55.6636C102.72 56.0598 102.676 56.456 102.676 56.8554V57.2957C102.676 61.2202 105.808 62.8963 109.248 62.8963C112.688 62.8963 115.82 61.2202 115.82 57.2957V56.8554C115.776 53.0598 112.688 51.2957 109.248 51.2957Z" fill="#0067A6"/>
<path d="M143.701 54.4277C144.673 54.4277 146.129 54.956 146.129 54.956V51.824C146.129 51.824 144.937 51.2957 142.381 51.2957C136.337 51.2957 135.368 54.6919 135.368 56.9875C135.368 59.2831 136.384 62.8554 142.469 62.8554C145.073 62.8554 146.129 62.3271 146.129 62.3271V59.0189C146.129 59.0189 145.201 59.6353 143.837 59.6353C142.469 59.6353 141.101 59.063 141.101 57.0315C141.098 55.0001 142.73 54.4277 143.701 54.4277Z" fill="#0067A6"/>
<path d="M134.701 47.3711H129.937V50.5032H134.701V47.3711Z" fill="#0067A6"/>
<path d="M34.0407 57.5598C33.9086 57.868 33.2923 57.4717 32.5847 57.4717C32.0564 57.4717 29.3646 58.0441 28.481 58.0441C27.113 58.0441 26.7168 57.2956 24.7766 57.2956C23.1885 55.5755 22.3489 55.3554 21.1162 54.6038L21.1602 54.2516C22.8803 54.3837 23.2325 54.4717 25.0847 55.1793C25.2608 55.2233 25.525 55.1793 25.8332 55.3114C26.1854 55.4434 26.1413 55.5315 26.8929 55.7516C28.4369 56.1919 27.4652 55.7956 29.4086 56.0598C30.6885 56.2359 30.7766 56.2799 31.3049 56.2799C32.1445 56.2799 32.5847 56.2359 33.069 55.3522C33.5973 54.4686 33.5533 54.6478 33.8175 53.6761C33.8615 53.456 33.9936 53.5 33.9936 53.6761C34.1697 56.3239 33.9495 55.7485 33.9055 56.5C33.9527 56.9875 34.1288 57.2516 34.0407 57.5598ZM27.8646 65.0158C27.6005 64.3994 27.2923 63.2516 27.025 62.412C26.7168 61.4403 26.7168 61.1761 26.7168 60.5598C26.7168 59.412 25.9244 58.5315 25.525 58.1321C26.4086 58.1321 27.2011 58.8365 28.481 58.8365C29.0533 58.8365 30.4652 58.5724 31.481 58.3963C30.9967 61 29.6728 63.2956 27.8646 65.0158ZM28.6571 66.7359C29.6728 66.912 29.4967 66.956 30.4652 66.868C30.6854 66.8239 30.6854 66.956 30.5533 67.0441C28.1256 68.1478 28.569 67.7485 27.9055 67.9717C27.4212 68.1038 27.2451 68.368 26.9778 68.368C26.6256 68.368 26.9338 67.8397 26.4495 66.5158C26.0533 65.412 24.9495 64.5755 24.5093 63.3837C23.7608 61.3994 24.5093 60.6038 23.2294 60.0315C22.4369 59.6793 21.6854 59.283 21.025 58.7956C21.025 58.6636 21.069 58.5755 21.069 58.4434C21.069 57.5598 20.981 56.0158 20.981 55.5315V55.4875C24.1571 57.3397 23.2294 57.0315 24.8615 58.7076C25.0376 58.8837 25.9652 59.412 25.9652 60.868C25.9652 61.4843 25.9652 61.7516 26.2734 62.7202C26.5816 63.6919 26.9338 65.0566 27.2011 65.5441C27.4684 65.9403 27.7766 66.5598 28.6571 66.7359ZM19.2608 68.456C19.1728 68.456 19.0407 68.456 18.9527 68.456C18.9967 67.1321 19.2608 66.2076 19.2608 65.3239C19.2608 63.912 20.0093 62.7202 20.0093 62.456C20.0093 61.8837 20.5376 60.6478 20.8489 59.5881C21.4652 60.0724 21.9967 60.3365 22.8332 60.6478C23.6728 61 22.9212 61.3082 23.7608 63.6038C24.2011 64.7516 25.3049 65.6321 25.7011 66.6919C23.8049 67.8365 21.6005 68.456 19.2608 68.456ZM18.3803 58.6195C18.2483 58.2233 18.2923 57.6478 18.2923 57.6478C18.2923 57.5158 18.4244 57.4717 18.5124 57.4717C18.6445 57.4717 18.6885 57.6038 18.6885 57.6919C18.6885 57.6919 18.6445 58.1761 18.7325 58.4843C18.9086 58.9686 19.1288 59.412 19.2168 59.5C19.3489 59.6321 19.569 59.6761 19.7451 59.6761C19.7451 59.5 19.613 59.0158 19.525 58.7485C19.3489 58.1761 19.3049 57.956 19.481 57.8208C19.525 57.7768 19.613 57.7327 19.7891 57.8208C19.6571 57.6007 19.481 57.3805 19.1728 57.0283C18.9967 56.8522 18.9527 56.5441 18.9967 55.9246C18.9967 55.5724 19.0407 55.2202 19.0407 54.9088C19.0847 54.5566 19.0847 54.2485 19.0847 53.9812C19.0847 53.4088 19.0407 53.2327 18.9967 53.0095C18.9527 52.7893 18.9086 52.5692 18.9086 51.8176C18.9086 51.1132 18.8646 50.8019 18.8206 50.5818C18.8206 50.4937 18.7766 50.4057 18.7766 50.3176C18.7766 50.0095 18.8206 49.7453 18.8206 49.5252C18.8646 49.3051 18.8646 49.0849 18.8646 48.8208C18.8646 48.1164 18.7325 48.0283 18.2483 47.673C18.1602 47.629 18.1162 47.4969 18.2042 47.3648C18.2483 47.2768 18.3803 47.2327 18.5124 47.3208C19.0847 47.717 19.3049 47.8931 19.3049 48.7768C19.3049 49.0849 19.2608 49.3491 19.2608 49.5692C19.2168 49.7893 19.2168 50.0095 19.2168 50.2736C19.2168 50.3176 19.2168 50.4057 19.2168 50.4937C19.2608 50.7139 19.3049 51.0661 19.3049 51.7736C19.3049 52.478 19.3489 52.7013 19.3929 52.8774C19.4369 53.0535 19.481 53.2736 19.481 53.8931C19.481 54.1573 19.481 54.4654 19.4369 54.8648C19.4369 55.173 19.3929 55.5252 19.3929 55.8805C19.3929 56.4969 19.4369 56.673 19.481 56.673C20.0093 57.2013 20.1413 57.5126 20.3646 57.9088C20.4086 57.9969 20.4527 58.0849 20.4967 58.173C20.5407 58.261 20.5407 58.3491 20.4527 58.4371C20.3646 58.4812 20.2766 58.5252 20.1885 58.4812C20.1885 58.4812 20.0124 58.3931 19.8363 58.3051C19.8803 58.3931 19.8803 58.5252 19.9244 58.6132C20.1005 59.2736 20.2325 59.717 20.0564 59.9371C20.0124 60.0252 19.9244 60.0692 19.8363 60.0692C19.6162 60.1132 19.22 60.0252 18.9527 59.8051C18.6885 59.5881 18.4244 58.7956 18.3803 58.6195ZM18.8646 44.9434C18.9527 44.8554 19.0407 44.8554 19.1728 44.9434C19.3049 45.0315 19.9652 45.4277 20.3206 45.4277C20.7168 45.4277 20.6288 45.1636 20.6728 45.0315C20.6728 44.9434 20.7608 44.8554 20.7608 44.6793C20.7608 44.6352 20.7168 44.4591 20.7608 44.4151C20.8489 44.3271 20.981 44.4151 20.981 44.239C20.981 44.1069 20.8049 43.8868 20.7608 43.6667C26.7608 44.4151 31.4369 49.4025 31.7011 55.4875H31.613C31.0847 55.4875 30.9967 55.4434 29.7168 55.2673C27.8206 55.0032 28.7451 55.3554 27.2011 54.9591C26.4527 54.739 26.4967 54.695 26.1413 54.5629C25.7891 54.4308 25.525 54.5189 25.3929 54.4308C23.4967 53.7264 23.1885 53.5912 21.3332 53.4592C21.3332 53.107 21.3772 52.7107 21.3772 52.2233C21.3772 51.4749 21.2451 50.8114 21.2011 50.283C21.113 49.7547 21.113 49.3113 21.025 48.9151C20.5407 47.239 19.6571 47.0189 19.6571 46.4434C19.6571 46.1793 19.7451 46.5315 19.8332 45.695C19.613 45.6069 19.2168 45.4308 19.0407 45.2988C18.8646 45.1635 18.8206 45.0315 18.8646 44.9434ZM17.1005 65.368C17.1005 65.9843 17.3646 67.3522 17.5407 68.368C12.2923 67.6636 8.10047 63.6478 7.04072 58.5315C7.43695 58.3994 7.74512 58.1352 8.18852 58.1352C8.80487 58.1352 9.55644 59.2831 11.4086 59.2831C13.6571 59.2831 15.1571 58.4434 15.8646 58.4434C16.1728 58.4434 16.7923 58.6195 17.7168 58.6195C17.6728 58.9717 17.6288 59.412 17.6288 59.8114C17.6288 60.9151 17.8049 61.2233 17.8049 61.5315C17.852 63.6038 17.1005 64 17.1005 65.368ZM4.97154 56.2359C4.97154 54.912 5.71997 54.6038 6.69166 54.6038C7.13192 54.6038 7.21997 54.3837 7.44009 54.3837C7.57217 54.3837 7.48412 54.6038 7.79229 54.6038C8.01242 54.6038 8.45267 54.5598 8.45267 54.912C8.45267 55.1761 8.32059 55.3082 8.32059 55.4403C8.32059 55.6604 8.62877 55.7044 8.93695 55.7044C9.46525 55.7044 9.2011 55.7925 9.50927 55.7925C10.3489 55.7925 10.7891 54.5126 12.6413 54.3805C12.9055 54.3805 13.7451 54.2925 13.7451 54.2925C14.4936 54.6887 14.7608 54.7327 15.069 54.9088C15.7734 55.4371 15.6854 55.7925 17.0533 56.5849C17.2294 57.2893 17.5816 57.4246 17.7577 57.6887C16.83 57.6887 16.2137 57.5126 15.9055 57.5126C15.2011 57.5126 13.7011 58.3522 11.4495 58.3522C9.50927 58.3522 9.28915 57.2044 8.2294 57.2044C7.21368 57.2044 7.38978 57.6887 6.28915 57.6887C5.41179 57.7799 4.97154 57.2516 4.97154 56.2359ZM8.80802 49.2233C9.20424 49.3994 9.69166 49.4434 9.95582 49.7516C10.5722 50.5 9.95581 51.6919 12.5156 53.5881C11.4558 53.5881 10.8835 53.9843 9.51556 54.912L9.29544 54.868C9.16336 54.0283 8.72311 53.9403 8.10361 53.8082C7.97154 53.6761 7.79544 53.5 7.44324 53.5C7.22311 53.5 7.22311 53.5441 7.04701 53.5881C7.35204 52.0472 7.96839 50.5472 8.80802 49.2233ZM8.85204 46.1352C9.73569 45.1636 10.5722 45.4749 11.2797 46.1352C11.6319 46.4434 11.808 46.3113 11.9841 46.4874C12.0722 46.5755 11.852 46.6636 12.0722 46.9277C12.2483 47.1038 12.6005 47.368 12.3803 47.5881C12.2042 47.8082 11.4086 48.1164 11.2766 48.1604C11.1445 48.2044 11.0564 48.3805 11.1445 48.5126C11.1885 48.6447 11.3646 48.6887 11.4967 48.6447C12.113 48.4246 12.1571 48.3365 12.1571 48.3365C12.4652 48.6887 12.3772 48.9969 12.9495 49.129C14.0973 49.3931 14.8458 49.173 15.8615 50.1447C16.2137 50.4529 16.6539 50.761 17.0973 50.9371C17.3615 51.8208 17.6697 52.4371 17.6697 52.9214C17.6697 53.0975 17.6697 53.2296 17.6697 53.3617C17.3615 53.1415 17.1854 52.9654 17.0093 52.7893C16.9212 52.7013 16.8332 52.6132 16.7451 52.5252C16.613 52.4371 16.481 52.3051 16.2168 52.173C15.9967 52.0409 15.7325 51.8648 15.6445 51.7768C15.5564 51.6887 15.4684 51.6007 15.3363 51.4686C14.852 50.8963 14.1445 50.1447 13.4401 50.1447C12.9118 50.1447 12.6476 50.3208 12.5564 50.3208C12.3803 50.4088 12.2923 50.673 12.3803 50.8491C12.4684 51.0692 12.7325 51.1132 12.9086 51.0252C12.9086 51.0252 13.0847 50.9371 13.3929 50.9371C13.7891 50.9371 14.3646 51.5975 14.7168 51.9969C14.8489 52.129 14.9369 52.261 15.025 52.3491C15.2011 52.5252 15.4652 52.7013 15.7734 52.8774C15.9055 52.9654 16.1256 53.0975 16.1697 53.1415C16.2577 53.2296 16.3458 53.3176 16.4338 53.4057C16.6539 53.6698 16.9181 53.89 17.4495 54.2453L17.4936 54.2893C17.2734 54.8176 16.9652 54.9497 16.9652 55.7013C16.2168 55.129 16.2168 54.8617 15.6414 54.4654C15.3332 54.2453 15.069 54.2453 14.3174 53.8491L13.1256 53.1007C10.4778 51.1604 11.5816 50.5849 10.5659 49.2642C10.0816 48.6478 9.59418 48.956 8.88978 48.3365C8.14764 47.6793 8.19166 46.8397 8.85204 46.1352ZM17.2766 43.7076C17.4527 44.1038 17.7608 44.456 17.7608 45.1195C17.7608 46.0032 16.7011 46.8397 16.7011 48.2516C16.7011 48.8239 16.7451 49.3554 16.8332 49.7956C15.6413 48.912 15.7294 48.6038 13.1728 48.2956L13.0407 48.0755C13.0407 48.0755 13.3049 47.8554 13.3049 47.4151C13.3049 47.0189 12.9086 46.5315 12.9086 46.5315C12.9086 46.3994 12.9527 46.0912 12.3803 45.6919C13.7923 44.6793 15.4684 44.0189 17.2766 43.7076ZM34.9212 55.2673C34.9212 54.607 34.8332 54.1195 34.8332 53.8114C34.8332 53.5032 34.6571 52.7956 33.9495 52.7956C33.242 52.7956 33.1099 53.5 33.0219 53.7673C32.9338 54.0755 32.9778 54.1195 32.7137 54.4717C32.6256 54.5598 32.5816 54.6919 32.4936 54.8239C31.9652 48.5158 26.981 43.4434 20.6728 42.783C20.6288 42.695 20.6288 42.651 20.6288 42.5629C20.6288 42.3868 20.3646 41.5032 18.8646 41.5032C17.8049 41.5032 17.2766 42.0315 17.1885 42.8711C15.1162 43.1793 13.1759 44.0189 11.5407 45.2076H11.4967C11.2766 45.0755 10.7042 44.6793 10.0407 44.6793C9.3772 44.6793 8.71682 45.0755 8.23254 45.5629C7.52814 46.3114 6.9967 47.5472 8.14449 48.739C7.1728 50.239 6.46839 51.9592 6.16022 53.8114C4.52814 53.9875 4.08789 55.3113 4.08789 56.2799C4.08789 57.868 4.97154 58.5283 6.24827 58.6604C7.35204 64.217 11.9841 68.5409 17.6728 69.2044C17.6728 69.2485 17.6728 69.3365 17.6728 69.3805C17.6728 69.9969 17.4527 70.3522 17.4527 70.6604C17.4527 70.7925 17.4967 71.0566 17.9369 71.0566C18.2451 71.0566 18.3332 70.9686 18.5973 70.9686C19.0376 70.9686 19.3017 71.1007 19.8772 71.1007C20.0973 71.1007 21.1571 71.0126 21.5533 71.0126C21.7294 71.0126 21.7734 70.7485 21.5973 70.6604C21.5093 70.6164 21.069 70.5283 20.8489 70.4843C20.6288 70.3963 20.1445 70.0441 19.8332 69.912C19.569 69.7799 19.3049 69.6478 19.1288 69.2956H19.2608C21.6885 69.2956 23.9369 68.6353 25.8772 67.5315C25.9652 67.9277 25.8772 68.0158 26.0533 68.4151C26.2734 69.0755 26.8017 69.2076 27.3772 68.9875C27.6854 68.8554 27.9495 68.6793 28.1697 68.5912C28.3898 68.5032 28.742 68.5472 29.3175 68.3271C29.9338 68.1069 30.4212 67.8428 30.7294 67.7107C30.9936 67.5786 31.613 67.2264 31.3898 66.5629C31.1256 65.8585 30.5502 65.9466 30.198 65.9906C29.5816 66.0346 29.8017 66.0346 28.742 65.8585C28.6099 65.8145 28.4338 65.7705 28.3017 65.6384C30.3741 63.6981 31.83 61.0944 32.3143 58.1824C32.4024 58.1824 32.4904 58.1824 32.5785 58.1824C33.1068 58.1824 33.4181 58.4025 33.7703 58.4025C34.4747 58.4025 34.83 57.8302 34.83 57.2107C34.83 56.8585 34.742 56.6384 34.742 56.4623C34.7891 56.2799 34.9212 55.9277 34.9212 55.2673Z" fill="#69727B"/>
<g clip-path="url(#clip0_271_1451)">
<path d="M139.134 13.0504H141.175V24.7112H139.433L132.906 16.4205V24.7112H130.865V13.0504H132.789L139.121 21.1104V13.0504M128.732 14.8828H122.036V17.9197H127.965V19.7522H122.036V22.8788H128.81V24.7112H119.956V13.0504H128.732V14.8828ZM115.106 24.7112H117.187V13.0504H115.106V24.7112ZM106.694 24.7112H102.286V13.0504H106.694C110.412 13.0504 112.987 15.5619 112.987 18.868C112.987 22.174 110.412 24.7112 106.694 24.7112ZM106.694 14.9212H104.367V22.8532H106.694C109.177 22.8532 110.803 21.2001 110.803 18.9064C110.803 16.6127 109.177 14.9212 106.694 14.9212ZM97.5015 24.7112H99.5819V13.0504H97.5015V24.7112ZM93.3929 13.0504H95.6423L90.7275 24.7881H88.9072L83.9925 13.0504H86.2938L89.8564 22.0074L93.3929 13.0504ZM77.5175 24.9162C73.89 24.9162 71.3546 22.1996 71.3546 18.9064C71.3546 15.6132 73.929 12.8582 77.5565 12.8582C81.1841 12.8582 83.7195 15.5747 83.7195 18.868C83.7195 22.1612 81.1451 24.9162 77.5175 24.9162ZM77.5175 14.7418C75.1642 14.7418 73.5259 16.5871 73.5259 18.868C73.5259 21.1489 75.2032 23.0326 77.5435 23.0326C79.8969 23.0326 81.5351 21.1873 81.5351 18.9064C81.5351 16.6255 79.8579 14.7418 77.5175 14.7418ZM65.3217 24.9162C61.8761 24.9162 59.3018 22.2637 59.3018 18.9064C59.3018 15.5747 61.8241 12.8582 65.3997 12.8582C67.584 12.8582 68.8972 13.6014 70.0284 14.6778L68.6892 16.1898C67.74 15.3185 66.7259 14.7418 65.3737 14.7418C63.1113 14.7418 61.4731 16.5743 61.4731 18.868C61.4731 21.1617 63.1113 23.0326 65.3737 23.0326C66.8299 23.0326 67.753 22.4431 68.7672 21.5205L70.1064 22.8532C68.8842 24.109 67.532 24.9162 65.3217 24.9162Z" fill="#00357B"/>
<path d="M25.1982 22.7505H33.0644V14.9851H25.1982V22.7505Z" fill="white"/>
<path d="M25.1982 30.5031H33.0644V22.7506H25.1982V30.5031ZM25.1982 14.9852H33.0644V7.23267H25.1982V14.9852Z" fill="#33AFE3"/>
<path d="M33.0637 7.23267V14.9852H40.9299V22.7378H33.0637V30.4903H48.8091V7.23267H33.0637ZM25.1975 14.9852V7.23267H9.45215V30.5031H25.1975V22.7506H17.3183V14.9852H25.1975Z" fill="#00357B"/>
<path d="M33.0637 22.7505H40.9299V14.9851H33.0637V22.7505ZM17.3184 22.7505H25.1846V14.9851H17.3184V22.7505Z" fill="#9AD8F5"/>
</g>
<defs>
<clipPath id="clip0_271_1451">
<rect width="131.761" height="23.2704" fill="white" transform="translate(9.43359 7.23267)"/>
</clipPath>
</defs>
</svg>
