<svg width="181" height="44" viewBox="0 0 181 44" fill="none" xmlns="http://www.w3.org/2000/svg">
<path d="M143.204 14.1957V14.2305V33.1736H126.983C126.983 33.1736 126.953 33.1736 126.892 33.1736C126.508 33.1736 125.059 33.1042 123.666 32.0621C122.251 31.0084 121.018 28.9473 121.018 25.2421V25.2073C121.018 25.0568 121.018 23.4589 121.618 21.7915C122.195 20.1473 123.429 18.3294 125.806 18.0515L135.099 16.6968V19.1631C135.099 19.1631 129.79 21.9768 129.7 22.0347C129.485 22.1621 129.247 22.3473 128.975 22.6252C128.432 23.1463 127.923 23.9452 127.923 25.2073V25.4273C127.923 25.7979 127.979 26.6894 128.375 27.4305C128.76 28.1715 129.394 28.7852 130.843 28.82H136.095V15.6779C136.095 15.5273 136.061 15.0063 135.79 14.5663C135.518 14.1379 135.043 13.7326 133.922 13.7326H122.761L125.025 9.29785H137.838C137.872 9.29785 139.435 9.32101 140.612 9.96943C141.789 10.6179 143.204 12.1579 143.204 14.1957Z" fill="#C32127"/>
<path d="M172.397 9.22827L156.086 43.942H148.638L153.46 33.9146C154.003 32.5251 153.709 30.823 153.369 29.9662L144.562 9.22827H150.811C152.622 9.22827 153.075 10.803 153.075 10.803L157.954 23.0188C158.01 23.1809 158.225 23.3662 158.44 23.3662C158.644 23.3662 158.803 23.2388 158.893 23.0883L165.04 9.22827H172.397Z" fill="#C32127"/>
<path fill-rule="evenodd" clip-rule="evenodd" d="M93.5781 0.0114746C95.4458 0.0114746 98.6719 0.0114746 98.6719 0.0114746V33.2894H83.9225C81.1831 33.2894 79.1343 32.3052 78.0476 30.3599C77.2892 28.9704 76.9609 27.0367 76.9609 24.3736V18.2136C76.9609 15.5504 77.2892 13.6167 78.0476 12.2273C79.1569 10.2473 80.6964 9.29779 83.9564 9.29779H91.5519V1.82937C91.5519 1.82937 91.5519 0.0114746 93.5781 0.0114746ZM91.5519 13.7673H86.492C85.9487 13.7673 85.4619 13.8252 85.0431 14.3231C84.6243 14.7862 84.2621 15.2494 84.2621 17.6578V22.1852C84.2621 25.5546 84.6243 26.9094 84.828 27.3146C85.3148 28.2988 86.4581 28.8546 88.5975 28.8546H91.5519V13.7673Z" fill="#C32127"/>
<path d="M73.0097 15.7705V15.8052V33.3242H65.7992V16.5115C65.7992 16.1063 65.7426 15.4 65.4369 14.821C65.1087 14.2305 64.6219 13.8021 63.5126 13.7673H58.566V33.2894H51.2422V9.29785C51.2422 9.29785 66.9764 9.29785 67.1915 9.29785C67.882 9.29785 69.2743 9.39048 70.5647 10.2821C71.8891 11.1389 72.9758 12.841 73.0097 15.7705Z" fill="#C32127"/>
<path d="M36.0408 15.7357V33.2663H28.8302C28.8302 33.2663 28.8302 16.6389 28.8302 16.4768C28.8302 16.4536 28.8302 16.4536 28.8302 16.4536C28.8302 16.0831 28.7736 15.3652 28.468 14.7863C28.1397 14.2305 27.653 13.7326 26.5436 13.7326H21.597V33.2663H14.4543C14.4543 33.2663 14.4543 16.6389 14.4543 16.4768V16.4536C14.4543 16.0831 14.3864 15.3652 14.0921 14.7863C13.7525 14.2305 13.2771 13.7326 12.1565 13.7326H7.20981V33.2663H0.0332031V9.29785H30.2565C30.947 9.29785 32.3279 9.39048 33.6297 10.2821C34.9201 11.1389 36.0408 12.841 36.0408 15.7357Z" fill="#C32127"/>
<path d="M115.583 9.32101H121.616L119.33 13.7326H116.398C114.677 13.7326 113.93 14.0452 113.477 14.601C113.262 14.7863 112.787 15.6779 112.266 18.1789L109.074 33.2663H101.264L104.671 17.16C105.724 11.9494 107.954 9.29785 115.526 9.29785C115.56 9.29785 115.56 9.29785 115.583 9.29785V9.32101Z" fill="#C32127"/>
<path d="M175.169 9.78406H174.15V9.22827H176.833V9.78406H175.803V12.8756H175.169V9.78406Z" fill="#C32127"/>
<path d="M180.242 11.3935C180.208 10.9303 180.174 10.3746 180.208 9.8535H180.174C180.061 10.2819 179.902 10.7798 179.755 11.2314L179.246 12.8061H178.736L178.25 11.2661C178.102 10.803 177.978 10.3167 177.887 9.8535C177.853 10.3398 177.853 10.8956 177.831 11.3935L177.74 12.8409H177.129L177.378 9.20508H178.216L178.668 10.6524C178.793 11.0809 178.917 11.5093 179.008 11.9146C179.099 11.5093 179.212 11.0809 179.359 10.6524L179.846 9.20508H180.695L180.898 12.8409H180.264L180.242 11.3935Z" fill="#C32127"/>
<path d="M40.0254 2.10726C40.0254 0.93779 40.5914 0.0114746 42.278 0.0114746H47.2586V7.41042H40.0254V2.10726Z" fill="#C32127"/>
</svg>
