<svg width="179" height="42" viewBox="0 0 179 42" fill="none" xmlns="http://www.w3.org/2000/svg">
<path d="M178.917 31.6589V32.9295H169.784V35.5648H178.538V36.8472H169.784V40.4119H178.917V41.706H166.842V31.6589H178.917Z" fill="#003563"/>
<mask id="mask0_271_1484" style="mask-type:luminance" maskUnits="userSpaceOnUse" x="147" y="31" width="18" height="11">
<path d="M147.406 31.2141H164.712V41.9765H147.406V31.2141Z" fill="white"/>
</mask>
<g mask="url(#mask0_271_1484)">
<path fill-rule="evenodd" clip-rule="evenodd" d="M151.693 41.7058H148.87V31.647H154.611C156.806 31.647 158.467 31.8117 159.748 32.2117C160.78 32.5293 161.634 33.3529 161.634 34.4234C161.634 36.2587 160.044 37.047 156.972 37.2352L163.852 41.7058H160.139L153.485 37.3058H151.693V41.7058ZM154.125 36.0352C157.031 36.0352 158.36 35.7999 158.36 34.4823C158.36 33.1411 157.079 32.9176 154.125 32.9176H151.705V36.0352H154.125Z" fill="#003563"/>
</g>
<mask id="mask1_271_1484" style="mask-type:luminance" maskUnits="userSpaceOnUse" x="33" y="31" width="23" height="11">
<path d="M33.9531 31.2141H55.1045V41.9765H33.9531V31.2141Z" fill="white"/>
</mask>
<g mask="url(#mask1_271_1484)">
<path fill-rule="evenodd" clip-rule="evenodd" d="M49.3703 39.1176H41.0549L38.6943 41.7058H35.3848L45.2066 31.2588L55.0166 41.7058H51.6715L49.3703 39.1176ZM48.2789 37.8353L46.1319 35.4706C45.9065 35.2 45.5151 34.7764 45.2304 34.4588C44.9694 34.7764 44.5661 35.2 44.3407 35.4706L42.2055 37.8353H48.2789Z" fill="#003563"/>
</g>
<mask id="mask2_271_1484" style="mask-type:luminance" maskUnits="userSpaceOnUse" x="105" y="31" width="20" height="11">
<path d="M105.102 31.2141H124.331V41.9765H105.102V31.2141Z" fill="white"/>
</mask>
<g mask="url(#mask2_271_1484)">
<path d="M117.768 32.6825C113.308 32.6825 110.271 34.2707 110.271 36.7177C110.271 39.1295 113.367 40.6825 117.424 40.6825C119.844 40.6825 121.991 40.1883 123.984 39.3295V41.0354C122.193 41.6589 120.129 41.9766 117.685 41.9766C114.553 41.9766 111.896 41.4589 109.903 40.4825C107.922 39.5177 106.831 38.1648 106.831 36.6942C106.831 35.2236 107.922 33.906 109.927 32.9177C111.944 31.9295 114.589 31.4119 117.626 31.4119C120.069 31.4119 122.193 31.7648 124.185 32.4472L124.019 34.0236C122.133 33.2119 120.069 32.6825 117.768 32.6825Z" fill="#003563"/>
</g>
<mask id="mask3_271_1484" style="mask-type:luminance" maskUnits="userSpaceOnUse" x="0" y="31" width="17" height="11">
<path d="M0.015625 31.2141H16.6464V41.9765H0.015625V31.2141Z" fill="white"/>
</mask>
<g mask="url(#mask3_271_1484)">
<path d="M0.0947266 31.6589H2.96537V35.5648H13.4515V31.6589H16.3103V41.706H13.4515V36.8472H2.96537V41.706H0.0947266V31.6589Z" fill="#003563"/>
</g>
<mask id="mask4_271_1484" style="mask-type:luminance" maskUnits="userSpaceOnUse" x="68" y="31" width="16" height="11">
<path d="M68.5654 31.2141H83.9483V41.9765H68.5654V31.2141Z" fill="white"/>
</mask>
<g mask="url(#mask4_271_1484)">
<path d="M77.5898 41.706H74.7192V32.9295H69.1084V31.6589H83.1651V32.9295H77.5898V41.706Z" fill="#003563"/>
</g>
<mask id="mask5_271_1484" style="mask-type:luminance" maskUnits="userSpaceOnUse" x="57" y="31" width="14" height="11">
<path d="M57.0273 31.2141H70.4885V41.9765H57.0273V31.2141Z" fill="white"/>
</mask>
<g mask="url(#mask5_271_1484)">
<path d="M57.9941 31.6589H60.8648V40.4236H69.2395V41.706H57.9941V31.6589Z" fill="#003563"/>
</g>
<mask id="mask6_271_1484" style="mask-type:luminance" maskUnits="userSpaceOnUse" x="124" y="31" width="24" height="11">
<path d="M124.331 31.2141H147.407V41.9765H124.331V31.2141Z" fill="white"/>
</mask>
<g mask="url(#mask6_271_1484)">
<path fill-rule="evenodd" clip-rule="evenodd" d="M140.199 39.1176H131.884L129.524 41.7058H126.202L136.024 31.2588L145.846 41.7058H142.489L140.199 39.1176ZM139.108 37.8353L136.973 35.4706C136.748 35.2 136.344 34.7764 136.06 34.4588C135.81 34.7764 135.407 35.2 135.182 35.4706L133.035 37.8353H139.108Z" fill="#003563"/>
</g>
<mask id="mask7_271_1484" style="mask-type:luminance" maskUnits="userSpaceOnUse" x="20" y="31" width="14" height="11">
<path d="M20.4922 31.2141H33.9534V41.9765H20.4922V31.2141Z" fill="white"/>
</mask>
<g mask="url(#mask7_271_1484)">
<path d="M20.7949 31.6589H32.8587V32.9295H23.7367V35.5648H32.4791V36.8354H23.7367V40.4119H32.8587V41.706H20.7949V31.6589Z" fill="#003563"/>
</g>
<mask id="mask8_271_1484" style="mask-type:luminance" maskUnits="userSpaceOnUse" x="85" y="31" width="21" height="11">
<path d="M85.8711 31.2141H105.101V41.9765H85.8711V31.2141Z" fill="white"/>
</mask>
<g mask="url(#mask8_271_1484)">
<path d="M86.9727 31.6589H89.8314V35.5648H100.318V31.6589H103.188V41.706H100.318V36.8472H89.8314V41.706H86.9727V31.6589Z" fill="#003563"/>
</g>
<mask id="mask9_271_1484" style="mask-type:luminance" maskUnits="userSpaceOnUse" x="137" y="25" width="42" height="5">
<path d="M137.791 25.4976H178.992V29.3093H137.791V25.4976Z" fill="white"/>
</mask>
<g mask="url(#mask9_271_1484)">
<path d="M178.988 26.7412V28.0236H138.787L139.285 26.7412H178.988Z" fill="#003563"/>
</g>
<mask id="mask10_271_1484" style="mask-type:luminance" maskUnits="userSpaceOnUse" x="0" y="25" width="134" height="5">
<path d="M0.015625 25.4976H133.945V29.3093H0.015625V25.4976Z" fill="white"/>
</mask>
<g mask="url(#mask10_271_1484)">
<path d="M132.358 28.0236H0.0117188V26.7412H132.904L132.358 28.0236Z" fill="#003563"/>
</g>
<mask id="mask11_271_1484" style="mask-type:luminance" maskUnits="userSpaceOnUse" x="174" y="0" width="5" height="24">
<path d="M174.327 0.0200195H178.991V23.593H174.327V0.0200195Z" fill="white"/>
</mask>
<g mask="url(#mask11_271_1484)">
<path d="M175.121 0.223633H178.858V22.9178H175.121V0.223633Z" fill="#003563"/>
</g>
<path fill-rule="evenodd" clip-rule="evenodd" d="M161.883 16.1413C162.155 18.1178 163.781 19.9648 166.153 19.9648C168.751 19.9648 169.546 18.706 169.973 17.8589H173.828C173.436 20.1295 170.637 23.1295 166.295 23.1295C161.634 23.1295 158.099 19.8119 158.099 15.2001C158.099 10.506 161.539 7.0354 166.355 7.0354C170.922 7.0354 174.16 10.6707 174.16 14.8119C174.16 15.4119 174.101 15.8354 174.041 16.1413H161.883ZM170.257 13.153C169.925 11.4707 168.383 10.1413 166.26 10.1413C164.196 10.1413 162.428 11.4707 162.179 13.153H170.257Z" fill="#003563"/>
<mask id="mask12_271_1484" style="mask-type:luminance" maskUnits="userSpaceOnUse" x="145" y="0" width="16" height="24">
<path d="M145.483 0.0200195H160.866V23.593H145.483V0.0200195Z" fill="white"/>
</mask>
<g mask="url(#mask12_271_1484)">
<path d="M146.012 0.223633H149.725V13.0942L155.43 7.62363H159.843L153.224 13.7883L160.401 22.9178H156.367L151.018 15.9883L149.725 17.353V22.9178H146.012V0.223633Z" fill="#003563"/>
</g>
<path d="M136.19 22.0119L130.579 7.6001H134.328L138.064 17.6236L141.718 7.6001H145.549L137.542 28.0236H133.675L136.19 22.0119Z" fill="#003563"/>
<path fill-rule="evenodd" clip-rule="evenodd" d="M130.009 22.9178H126.593V21.2943C125.407 22.906 123.319 23.1766 121.362 23.1766C118.942 23.1766 116.925 22.1531 115.585 20.5531C114.34 19.0472 113.64 17.0001 113.64 15.0943C113.64 13.306 114.15 11.506 115.585 9.87072C117.163 8.02366 119.191 7.15308 121.469 7.15308C123.011 7.15308 125.537 7.45896 126.593 8.95308V7.63543H130.009V22.9178ZM126.474 15.2119C126.474 12.5413 124.434 10.3884 121.896 10.3884C119.369 10.3884 117.317 12.5413 117.317 15.2119C117.317 17.8943 119.369 20.0472 121.896 20.0472C124.434 20.0472 126.474 17.8943 126.474 15.2119Z" fill="#003563"/>
<mask id="mask13_271_1484" style="mask-type:luminance" maskUnits="userSpaceOnUse" x="99" y="0" width="18" height="24">
<path d="M99.333 0.0200195H116.64V23.593H99.333V0.0200195Z" fill="white"/>
</mask>
<g mask="url(#mask13_271_1484)">
<path fill-rule="evenodd" clip-rule="evenodd" d="M99.832 22.9177V0.105957H106.926C109.025 0.105957 111.018 0.0236039 112.857 1.21184C114.66 2.36478 115.751 4.37654 115.751 6.47066C115.751 8.52949 114.861 10.506 113.141 11.8001C111.338 13.1883 108.788 13.0707 106.629 13.0707H103.889V22.9177H99.832ZM106.57 9.31772C107.578 9.31772 108.729 9.37654 109.701 9.09419C110.888 8.71772 111.694 7.74125 111.694 6.51772C111.694 5.24713 110.805 4.34125 109.595 4.03537C108.693 3.81184 107.459 3.87066 106.57 3.87066H103.889V9.31772H106.57Z" fill="#003563"/>
</g>
<mask id="mask14_271_1484" style="mask-type:luminance" maskUnits="userSpaceOnUse" x="78" y="0" width="20" height="24">
<path d="M78.1797 0.0200195H97.4094V23.593H78.1797V0.0200195Z" fill="white"/>
</mask>
<g mask="url(#mask14_271_1484)">
<path fill-rule="evenodd" clip-rule="evenodd" d="M92.7738 20.0234C91.3385 21.8117 89.2152 23.1058 86.4157 23.1058C82.5486 23.1058 79.334 20.6352 79.334 16.8352C79.334 12.9999 82.6435 10.894 85.1939 9.52932C84.15 8.0352 82.7266 6.36461 82.7266 4.21167C82.7266 1.62344 84.8262 0.0234375 86.9851 0.0234375C89.1084 0.0234375 91.3385 1.37638 91.3385 4.01167C91.3385 6.96461 89.0372 8.57638 86.7478 9.84697L92.762 18.094C93.5093 17.0117 94.1142 15.2823 94.1498 13.0587H95.2293C95.2293 15.247 94.6243 17.5529 93.4855 19.0705L96.2969 22.9176H94.8378L92.7738 20.0234ZM90.3302 4.10579C90.3302 2.0705 88.5509 1.04697 87.08 1.04697C85.4786 1.04697 83.8297 2.32932 83.8297 4.10579C83.8297 5.88226 84.8973 7.37638 86.1666 9.04697C88.1476 7.98814 90.3302 6.52932 90.3302 4.10579ZM85.787 10.3646C83.2485 11.6823 80.4728 13.6117 80.4728 16.9293C80.4728 20.0117 83.5925 22.0705 86.4276 22.0705C89.9032 22.0705 91.9197 19.3999 92.1333 19.1176L85.787 10.3646Z" fill="#003563"/>
</g>
<path d="M68.124 7.57653H71.5285V8.88241C72.3944 7.553 74.2686 7.23535 75.3837 7.23535C75.8344 7.23535 76.4631 7.25888 76.7834 7.36476V10.3177C75.9412 10.2236 74.067 10.3765 73.0231 11.1648C71.9199 12.0001 71.8369 13.1765 71.8606 14.4706V22.9177H68.124V7.57653Z" fill="#003563"/>
<path fill-rule="evenodd" clip-rule="evenodd" d="M54.7197 16.1413C54.9925 18.1178 56.6058 19.9648 58.9901 19.9648C61.576 19.9648 62.3708 18.706 62.8097 17.8589H66.6649C66.2616 20.1295 63.474 23.1295 59.1206 23.1295C54.4706 23.1295 50.9238 19.8119 50.9238 15.2001C50.9238 10.506 54.3757 7.0354 59.1799 7.0354C63.7587 7.0354 66.9971 10.6707 66.9971 14.8119C66.9971 15.4119 66.9377 15.8354 66.8784 16.1413H54.7197ZM63.0944 13.153C62.7623 11.4707 61.2202 10.1413 59.0969 10.1413C57.0328 10.1413 55.2535 11.4707 55.0163 13.153H63.0944Z" fill="#003563"/>
<mask id="mask15_271_1484" style="mask-type:luminance" maskUnits="userSpaceOnUse" x="33" y="0" width="19" height="24">
<path d="M33.9531 0.0200195H51.2588V23.593H33.9531V0.0200195Z" fill="white"/>
</mask>
<g mask="url(#mask15_271_1484)">
<path d="M35.5742 0.223633H39.3108V8.45893C40.153 7.29422 42.051 6.75304 43.51 6.75304C45.5622 6.75304 47.3178 7.4354 48.4921 8.70599C49.9986 10.3413 49.9512 12.353 49.9512 14.4354V22.9178H46.2858V15.2589C46.2858 12.906 46.4518 10.0942 42.8101 10.0942C41.6832 10.0942 40.497 10.6001 39.9039 11.5883C39.2871 12.6707 39.3108 14.2119 39.3108 15.3178V22.9178H35.5742V0.223633Z" fill="#003563"/>
</g>
<path d="M24.2821 17.7176C24.3058 19.5764 25.7056 20.1647 27.8526 20.1647C29.027 20.1647 31.1978 19.7294 31.0317 17.9176C30.8893 16.447 29.5608 16.5529 26.014 16.247C23.606 16.0353 21.364 14.6235 21.364 11.8823C21.364 7.90585 24.8159 6.88232 27.7459 6.88232C31.008 6.88232 33.8074 8.09409 34.1277 11.5059H30.2369C30.1183 10.0235 29.0033 9.74115 27.5323 9.74115C26.6071 9.74115 24.9938 10.1411 25.0769 11.4C25.1836 12.9294 26.9392 13.0117 29.3354 13.1529C32.3247 13.3059 34.6259 14.7059 34.6259 17.8706C34.6259 20.9176 32.0281 23.2 27.8289 23.2C24.3651 23.2 20.9844 21.847 20.8184 17.7176H24.2821Z" fill="#003563"/>
<mask id="mask16_271_1484" style="mask-type:luminance" maskUnits="userSpaceOnUse" x="14" y="0" width="7" height="24">
<path d="M14.7236 0.0200195H20.4922V23.593H14.7236V0.0200195Z" fill="white"/>
</mask>
<g mask="url(#mask16_271_1484)">
<path d="M16.0732 7.60007H19.8098V22.9177H16.0732V7.60007ZM16.0732 0.105957H19.8098V3.89419H16.0732V0.105957Z" fill="#003563"/>
</g>
<mask id="mask17_271_1484" style="mask-type:luminance" maskUnits="userSpaceOnUse" x="0" y="0" width="17" height="24">
<path d="M0.015625 0.0200195H16.6464V23.593H0.015625V0.0200195Z" fill="white"/>
</mask>
<g mask="url(#mask17_271_1484)">
<path d="M0.0117188 0.105957H15.2902V3.89419H4.31768V7.60007H13.8549V11.2589H4.31768V22.9177H0.0117188V0.105957Z" fill="#003563"/>
</g>
</svg>
