<svg width="182" height="50" viewBox="0 0 182 50" fill="none" xmlns="http://www.w3.org/2000/svg">
<path d="M10.2559 20.1852C10.2559 22.27 9.34946 23.0556 7.62722 23.0556C6.69056 23.0556 5.66326 22.8138 4.99854 22.421V13.0545C5.7539 12.8732 6.75099 12.7523 7.62722 12.7523C9.40988 12.7523 10.2559 13.5077 10.2559 15.653V20.1852ZM45.3352 8.28056C43.4921 8.28056 41.6188 8.88485 40.3498 9.61001C39.2318 8.70356 37.2679 8.28056 35.1528 8.28056H23.9734V6.61875C23.9734 5.65188 24.3964 4.98715 25.2424 4.98715H26.5114C27.4783 4.98715 28.5962 4.56415 28.5962 3.0232C28.5962 1.54267 27.7502 0.63623 26.0884 0.63623H24.6079C21.4656 0.63623 19.1995 3.11384 19.1995 6.64896V8.28056H8.29194C3.03458 8.28056 0.224609 9.73086 0.224609 13.9005V32.4825C0.224609 33.9329 1.25191 34.6278 2.64179 34.6278C4.00145 34.6278 5.02875 33.9329 5.02875 32.4825V26.7417C5.84455 27.1345 6.93228 27.4367 8.35237 27.4367C12.3709 27.4367 15.0903 24.808 15.0903 20.0039V15.9249C15.0903 14.2933 14.8485 13.1149 14.3651 12.3898H19.1692V25.2914C19.1692 26.7418 20.1965 27.4367 21.5562 27.4367C22.9763 27.4367 23.9734 26.7418 23.9734 25.2914V12.3595H28.6567C28.566 12.4502 28.5358 12.843 28.5358 13.4171V25.3217C28.5358 26.772 29.5027 27.4669 30.9228 27.4669C32.3429 27.4669 33.3399 26.772 33.3399 25.3217V12.9638C33.9442 12.8732 34.9111 12.7221 35.6363 12.7221C36.9053 12.7221 37.7815 13.3264 37.7815 15.1091V25.2914C37.7815 26.7418 38.7484 27.4367 40.1383 27.4367C41.5583 27.4367 42.5554 26.7418 42.5554 25.2914V13.0243C43.3108 12.8128 44.0964 12.7221 44.8518 12.7221C46.2114 12.7221 47.0574 13.3264 47.0574 15.1091V25.2914C47.0574 26.7418 48.0847 27.4367 49.4746 27.4367C50.8947 27.4367 51.8616 26.7418 51.8616 25.2914V15.3206C51.8918 11.1812 49.6257 8.28056 45.3352 8.28056Z" fill="#009DDF"/>
<path d="M92.3195 16.3781H84.5241V15.1091C84.5241 12.6013 85.9744 11.1812 88.452 11.1812C90.8692 11.1812 92.3195 12.6013 92.3195 15.1091V16.3781ZM88.452 8.61292C84.4334 8.61292 81.835 11.3322 81.835 15.2602V20.7592C81.835 24.7174 84.4334 27.4669 88.452 27.4669C90.2347 27.4669 91.9569 27.0741 93.5583 26.3187C94.1626 26.0166 94.4043 25.5936 94.4043 25.0799C94.4043 24.3548 93.9813 23.7203 93.2561 23.7203C92.9238 23.7203 92.6518 23.8109 92.1986 24.0224C91.1411 24.5361 89.721 24.8684 88.452 24.8684C85.9744 24.8684 84.5845 23.2368 84.5845 20.7895V18.9161H92.9842C94.2532 18.9161 95.069 18.1608 95.069 16.7709V15.3206C95.0388 11.3322 92.4101 8.61292 88.452 8.61292Z" fill="#0D0F16"/>
<path d="M108.514 22.3909C108.03 23.5995 106.338 24.8685 104.586 24.8685C102.169 24.8685 100.749 23.5995 100.749 20.9406V15.1394C100.749 12.6315 102.169 11.2114 104.616 11.2114C106.066 11.2114 107.517 11.6344 108.484 12.42L108.514 22.3909ZM109.934 1.54272C109.088 1.54272 108.514 2.05637 108.514 2.90239V9.54963C107.305 8.94533 106.006 8.61297 104.646 8.61297C100.628 8.61297 98.0293 11.2416 98.0293 15.2602V20.7593C98.0293 25.0196 100.658 27.467 104.284 27.467C105.946 27.467 107.789 26.7418 108.635 25.503L108.665 26.0469C108.695 26.8022 109.088 27.467 110.025 27.467C110.84 27.467 111.294 26.9533 111.294 26.0469V2.90239C111.294 2.05637 110.78 1.54272 109.934 1.54272Z" fill="#0D0F16"/>
<path d="M72.1057 8.61292C70.323 8.61292 68.5705 9.21721 67.0598 10.1841C66.0325 9.24743 64.5822 8.61292 62.8297 8.61292C60.8658 8.61292 59.1133 9.00571 57.4515 9.57979C56.5451 9.91215 56.1221 10.3956 56.1221 11.3322V26.0468C56.1221 26.8928 56.6659 27.4669 57.5422 27.4669C58.4184 27.4669 58.9018 26.923 58.9018 26.0468V11.8157C59.9291 11.4833 61.3794 11.2114 62.8297 11.2114C64.8239 11.2114 65.8512 12.3293 65.8512 14.4141V26.0468C65.8512 26.8928 66.3951 27.4669 67.2109 27.4669C68.0569 27.4669 68.5705 26.923 68.5705 26.0468V12.3293C69.5978 11.574 70.7762 11.2114 72.0754 11.2114C74.0394 11.2114 75.5803 12.5408 75.5803 14.7163V26.0468C75.5803 26.8928 76.1242 27.4669 77.0004 27.4669C77.8465 27.4669 78.3601 26.923 78.3601 26.0468V14.8674C78.3903 10.8186 75.9127 8.61292 72.1057 8.61292Z" fill="#0D0F16"/>
<path d="M146.494 22.3909C146.011 23.5995 144.319 24.8685 142.566 24.8685C140.723 24.8685 139.212 23.7506 139.212 20.7895V15.1696C139.212 12.6617 140.663 11.2417 143.08 11.2417C144.53 11.2417 145.709 11.4229 146.524 11.6647V22.4211H146.494V22.3909ZM148.73 9.82156C148.126 9.21727 146.524 8.58276 143.05 8.58276C139.031 8.58276 136.433 11.2114 136.433 15.23V20.7291C136.433 25.1706 139.061 27.4367 142.264 27.4367C143.926 27.4367 145.769 26.7116 146.615 25.4728L146.645 26.0167C146.675 26.772 147.068 27.4367 148.005 27.4367C148.821 27.4367 149.274 26.9231 149.274 26.0167V11.4834C149.274 10.7884 149.153 10.2446 148.73 9.82156Z" fill="#0D0F16"/>
<path d="M117.125 8.61292C116.279 8.61292 115.705 9.12657 115.705 9.97258V26.0468C115.705 26.8928 116.249 27.4669 117.125 27.4669C118.001 27.4669 118.485 26.923 118.485 26.0468V9.97258C118.485 9.12657 117.971 8.61292 117.125 8.61292Z" fill="#0D0F16"/>
<path d="M155.136 1.54272C154.29 1.54272 153.716 2.08659 153.716 2.96282V26.0771C153.716 26.9231 154.26 27.4972 155.136 27.4972C156.012 27.4972 156.496 26.9533 156.496 26.0771V2.9326C156.496 2.08659 155.982 1.54272 155.136 1.54272Z" fill="#0D0F16"/>
<path d="M129.212 11.1812C130.33 11.1812 131.206 11.4229 131.991 11.7855C132.324 11.9063 132.596 12.0272 132.928 12.0272C133.653 12.0272 134.167 11.6042 134.167 10.7582C134.167 10.2445 133.835 9.79129 133.351 9.51936C132.143 8.91506 130.874 8.61292 129.212 8.61292C125.284 8.61292 122.564 11.3322 122.564 15.0487V21.1822C122.564 25.4425 125.193 27.4367 128.819 27.4367C130.662 27.4367 132.263 27.195 133.563 26.5C134.106 26.2583 134.378 25.7749 134.378 25.231C134.378 24.4756 133.865 23.962 133.14 23.962C132.898 23.962 132.626 24.0526 132.384 24.1433C131.357 24.5663 130.239 24.8382 129.061 24.8382C126.583 24.8382 125.254 23.3879 125.254 20.9103V15.1695C125.284 12.571 126.734 11.1812 129.212 11.1812Z" fill="#0D0F16"/>
<path d="M117.125 1.54272C116.159 1.54272 115.343 2.29809 115.343 3.29518C115.343 4.32248 116.159 5.07785 117.125 5.07785C118.062 5.07785 118.908 4.32248 118.908 3.29518C118.878 2.26788 118.062 1.54272 117.125 1.54272Z" fill="#0D0F16"/>
<path d="M179.005 40.6405C179.761 40.6405 180.063 41.3959 180.063 42.4232L177.887 42.4534C177.978 41.1844 178.401 40.6405 179.005 40.6405ZM177.797 43.2692L181.513 43.239C181.483 41.2448 180.758 39.9456 179.156 39.9456C177.585 39.9456 176.377 41.3959 176.377 43.4505C176.377 45.5051 177.343 46.6835 179.096 46.6835C180.063 46.6835 180.999 46.0792 181.362 45.5353L181.181 45.2332C180.637 45.5353 180.033 45.7166 179.61 45.7166C178.582 45.7166 177.797 44.931 177.797 43.2692ZM174.745 42.5138H175.561V40.5499C174.926 40.1269 174.322 39.9456 173.476 39.9456C171.905 39.9456 170.757 41.3657 170.757 43.4505C170.757 45.5051 171.723 46.6835 173.476 46.6835C174.443 46.6835 175.349 46.0489 175.651 45.5353L175.531 45.2332C174.987 45.5353 174.382 45.7166 173.959 45.7166C172.902 45.7166 172.207 44.7799 172.207 43.1181C172.207 41.4865 172.721 40.6103 173.657 40.6103C173.959 40.6103 174.201 40.6405 174.413 40.7916L174.745 42.5138ZM163.263 46.5626H166.345V46.049L165.499 45.8072V41.3657C165.832 41.1844 166.315 41.0333 166.738 41.0333C167.554 41.0333 167.886 41.5167 167.886 42.5743V45.8072L166.98 46.049V46.5626H170.062V46.049L169.216 45.8072V42.3628C169.216 40.8218 168.521 40.006 167.463 40.006C166.617 40.006 165.983 40.3988 165.409 40.9125L165.106 40.006H164.714L163.143 40.5499V41.0937H164.079V45.8374L163.233 46.0792V46.5626H163.263ZM159.94 40.6405C160.695 40.6405 160.997 41.3959 160.997 42.4232L158.822 42.4534C158.912 41.1844 159.335 40.6405 159.94 40.6405ZM158.792 43.2692L162.508 43.239C162.478 41.2448 161.753 39.9456 160.151 39.9456C158.58 39.9456 157.371 41.3959 157.371 43.4505C157.371 45.5051 158.338 46.6835 160.091 46.6835C161.058 46.6835 161.994 46.0792 162.357 45.5353L162.176 45.2332C161.632 45.5353 161.027 45.7166 160.604 45.7166C159.517 45.7166 158.792 44.931 158.792 43.2692ZM154.259 37.7399C154.259 38.2536 154.592 38.6463 155.105 38.6463C155.649 38.6463 155.951 38.314 155.951 37.7399C155.951 37.2263 155.649 36.8335 155.105 36.8335C154.622 36.8939 154.259 37.2565 154.259 37.7399ZM153.534 46.5626H156.646V46.049L155.74 45.8072V39.9758H155.136L153.444 40.5197V41.0635H154.38V45.8072L153.534 46.049V46.5626ZM148.67 46.5626H151.782V46.049L150.845 45.7468V40.9729H151.389L152.447 41.4865H152.688L152.93 40.0362C152.718 40.006 152.537 39.9456 152.386 39.9456C151.782 39.9456 151.177 40.2477 150.694 40.6405L150.483 39.9456H150.09L148.519 40.4894V41.0333H149.455V45.777L148.639 46.0187V46.5626H148.67ZM145.316 40.6405C146.071 40.6405 146.373 41.3959 146.373 42.4232L144.198 42.4534C144.289 41.1844 144.712 40.6405 145.316 40.6405ZM144.107 43.2692L147.824 43.239C147.793 41.2448 147.068 39.9456 145.467 39.9456C143.866 39.9456 142.687 41.3959 142.687 43.4505C142.687 45.5051 143.654 46.6835 145.406 46.6835C146.373 46.6835 147.31 46.0792 147.673 45.5353L147.491 45.2332C146.947 45.5353 146.343 45.7166 145.92 45.7166C144.893 45.7166 144.107 44.931 144.107 43.2692ZM139.001 40.9427C139.938 40.9427 140.361 41.7887 140.361 43.3598C140.361 44.6289 140.058 45.8677 138.941 45.8677C138.638 45.8677 138.306 45.8374 138.004 45.6562V41.1239C138.336 41.0333 138.669 40.9427 139.001 40.9427ZM135.798 49.5539H138.941V49.0402L138.004 48.7381V46.5928C138.215 46.623 138.487 46.6835 138.759 46.6835C140.451 46.6835 141.841 45.2634 141.841 43.1483C141.841 41.0333 141.025 39.9456 139.575 39.9456C139.031 39.9456 138.366 40.2477 137.913 40.6405L137.702 39.9456H137.309L135.738 40.4894V41.0333H136.674V48.7078L135.768 48.9496V49.5539H135.798ZM135.285 46.5626V46.049L134.59 45.8072L132.626 43.1181L134.318 40.9729L135.254 40.6405V40.1269H132.686V40.6405L133.321 40.8822L132.172 42.544L131.145 40.8822L131.84 40.6405V40.1269H128.939V40.6405L129.574 40.852L131.326 43.3598L129.483 45.777L128.849 46.0187V46.5324H131.357V46.0187L130.601 45.7166L131.749 43.9641L132.867 45.8677L132.354 46.049V46.5626H135.254H135.285ZM127.459 42.816V41.8793L124.891 41.97V38.9485H126.945L127.338 40.2175H128.093V38.1629H122.353V38.7068L123.41 38.9485V45.6864L122.353 45.9281V46.472H128.154L128.396 44.3267L127.761 44.2361L127.036 45.7166H124.951V42.6045L127.459 42.816ZM115.343 45.6562C114.436 45.6562 113.923 44.8101 113.923 43.1786C113.923 41.4865 114.436 40.7009 115.403 40.7009C115.736 40.7009 116.038 40.7916 116.31 40.9125V45.354C116.098 45.5353 115.766 45.6562 115.343 45.6562ZM117.7 45.6562V36.5011H116.944L115.403 36.9845V37.5284H116.34V40.1571C116.038 40.0664 115.705 39.9758 115.313 39.9758C113.772 39.9758 112.503 41.3959 112.503 43.5713C112.503 45.7468 113.56 46.6835 114.708 46.6835C115.433 46.6835 115.977 46.2907 116.37 45.7468L116.582 46.5626H118.364V46.049L117.7 45.6562ZM105.07 46.5626H108.152V46.049L107.306 45.8072V41.3657C107.638 41.1844 108.121 41.0333 108.545 41.0333C109.36 41.0333 109.693 41.5167 109.693 42.5743V45.8072L108.786 46.049V46.5626H111.838V46.049L110.992 45.8072V42.3628C110.992 40.8218 110.297 40.006 109.239 40.006C108.424 40.006 107.759 40.3988 107.185 40.9125L106.883 40.006H106.49L104.919 40.5499V41.0937H105.855V45.8374L105.009 46.0792V46.5626H105.07ZM102.199 45.354C101.897 45.4749 101.595 45.6562 101.142 45.6562C100.628 45.6562 100.387 45.3238 100.387 44.7195C100.387 44.1152 100.87 43.6922 101.625 43.6922H102.23L102.199 45.354ZM100.205 42.2419L100.598 40.7916C100.81 40.7009 100.991 40.6707 101.142 40.6707C101.776 40.6707 102.199 41.1844 102.199 42.1512V42.967H101.686C100.054 42.967 98.9966 43.6922 98.9966 44.931C98.9966 46.0489 99.6312 46.6835 100.538 46.6835C101.293 46.6835 101.897 46.1396 102.23 45.7468L102.471 46.5626H104.314V46.049L103.559 45.7166V41.97C103.559 40.5499 102.622 39.9758 101.504 39.9758C100.81 39.9758 99.8427 40.2779 99.3592 40.5197V42.2721H100.205V42.2419ZM92.1983 40.0966H89.2977V40.6103L90.0229 40.9125L91.9264 46.8043L90.8085 49.1611V49.5841H92.1681L93.0141 46.2605L94.8572 40.9729L95.7637 40.6405V40.0966H93.2559V40.6103L93.981 40.9125L92.712 45.1425H92.6818L91.5638 40.8822L92.2588 40.6405V40.0966H92.1983ZM88.9654 45.7166C88.7236 45.8072 88.4215 45.8374 88.1496 45.8374C87.5453 45.8374 87.1223 45.5353 87.1223 44.6289V40.9729H88.8747V40.0664H87.1223L87.092 38.3744H86.2762L85.7626 40.0664L84.9166 40.3988V40.9427H85.7324V44.6591C85.7324 46.2 86.5482 46.6532 87.4848 46.6532C88.0891 46.6532 88.633 46.472 89.056 46.2302L88.9654 45.7166ZM81.9555 37.7399C81.9555 38.2536 82.2879 38.6463 82.8016 38.6463C83.3454 38.6463 83.6476 38.314 83.6476 37.7399C83.6476 37.2263 83.3454 36.8335 82.8016 36.8335C82.2879 36.8939 81.9555 37.2565 81.9555 37.7399ZM81.2304 46.5626H84.3425V46.049L83.4361 45.8072V39.9758H82.8318L81.1397 40.5197V41.0635H82.0764V45.8072L81.2304 46.049V46.5626ZM77.4838 46.5626H80.5959V46.049L79.6894 45.8072V36.5011H78.9341L77.3931 36.9845V37.5284H78.3298V45.8072L77.4838 46.049V46.5626ZM74.704 45.354C74.4019 45.4749 74.0997 45.6562 73.6465 45.6562C73.1328 45.6562 72.8911 45.3238 72.8911 44.7195C72.8911 44.1152 73.3746 43.6922 74.1299 43.6922H74.7342L74.704 45.354ZM72.7098 42.2419L73.1026 40.7916C73.3141 40.7009 73.4954 40.6707 73.6465 40.6707C74.281 40.6707 74.704 41.1844 74.704 42.1512V42.967H74.1601C72.5285 42.967 71.471 43.6922 71.471 44.931C71.471 46.0489 72.1055 46.6835 73.012 46.6835C73.7674 46.6835 74.3716 46.1396 74.704 45.7468L74.9457 46.5626H76.7888V46.049L76.0335 45.7166V41.97C76.0335 40.5499 75.0968 39.9758 73.9789 39.9758C73.2839 39.9758 72.317 40.2779 71.8336 40.5197V42.2721H72.7098V42.2419ZM68.9934 46.5626H70.7761V46.049L70.0207 45.6562V39.9456H69.4164L67.7244 40.4894V41.0333H68.6611V45.2936C68.2683 45.4749 67.9057 45.5353 67.5129 45.5353C66.818 45.5353 66.4856 45.0217 66.4856 43.7526V39.9154H65.8813L64.1893 40.4592V41.0031H65.1259V44.3569C65.1259 45.8072 65.7302 46.623 66.7878 46.623C67.5129 46.623 68.0568 46.4115 68.7819 45.7166L68.9934 46.5626ZM61.8325 42.3325C61.8325 44.2361 61.3189 45.9583 59.7477 45.9583C58.3276 45.9583 57.7535 44.3267 57.7535 42.3325C57.7535 40.1873 58.3881 38.7974 59.8082 38.7974C61.2282 38.7974 61.8325 40.3082 61.8325 42.3325ZM63.5246 42.0908C63.5246 39.7039 62.1045 38.1327 59.8988 38.1327C57.6327 38.1327 56.0615 39.9758 56.0615 42.6951C56.0615 45.1727 57.5118 46.7439 59.6873 46.7439C59.929 46.7439 60.2009 46.7137 60.4124 46.6532L61.6815 48.1942H63.6454V47.892L61.2585 46.3511C62.739 45.6259 63.5246 43.9641 63.5246 42.0908Z" fill="#0D0F16"/>
</svg>
