<svg width="184" height="28" viewBox="0 0 184 28" fill="none" xmlns="http://www.w3.org/2000/svg">
<path d="M33.251 0.209229H2.85161C1.60023 0.209229 0.5625 1.22656 0.5625 2.52134C0.5625 2.52134 0.5625 2.52135 0.5625 2.55218V25.5809C0.5625 26.8448 1.56971 27.893 2.85161 27.893C2.85161 27.893 2.85161 27.893 2.88213 27.893H33.2815C34.5329 27.893 35.5706 26.8756 35.5706 25.5809C35.5706 25.5809 35.5706 25.5809 35.5706 25.55V2.52134C35.5706 1.25739 34.5634 0.209229 33.251 0.209229C33.2815 0.209229 33.2815 0.209229 33.251 0.209229ZM29.2527 22.5905C28.9169 22.7755 28.5202 22.8988 28.1539 22.868C27.3909 22.868 26.6889 22.4672 26.2921 21.8198C25.5291 22.868 24.0335 23.1146 22.9958 22.3131C22.7821 22.1589 22.599 21.9739 22.4464 21.7582C21.7749 22.7755 20.432 23.0838 19.3942 22.4672C18.9364 22.1898 18.6007 21.7582 18.4481 21.2341L18.2344 21.6348C17.5935 22.7447 16.22 23.1146 15.1212 22.4672C14.6634 22.1898 14.3277 21.7582 14.1751 21.2341L13.9614 21.604C13.3205 22.7138 11.947 23.0838 10.8482 22.4364C10.3904 22.1589 10.0547 21.6965 9.90207 21.1724L9.6579 21.604C9.01695 22.7138 7.64348 23.0838 6.54471 22.4364C5.44593 21.789 5.07968 20.4017 5.72063 19.2919L13.0763 6.34405C13.6867 5.23423 15.0907 4.83346 16.1895 5.45003C16.6778 5.75831 17.0441 6.18991 17.2272 6.74481L17.4409 6.34405C18.0513 5.23423 19.4553 4.83346 20.5541 5.45003C21.0424 5.72748 21.4087 6.1899 21.5613 6.71398L21.7444 6.37487C22.3548 5.26506 23.6978 4.86429 24.7965 5.45003C25.3154 5.72748 25.6817 6.18991 25.8648 6.74481L26.0784 6.4057C26.3531 5.97411 26.7499 5.635 27.2383 5.45003H27.3298L27.6045 5.35754H28.3981L28.7033 5.4192H28.7949C28.9169 5.45003 29.039 5.51169 29.1611 5.57334C29.8631 5.97411 30.2904 6.71399 30.2599 7.51552V20.6175C30.2599 21.419 29.8631 22.1589 29.1611 22.5597" fill="#C9252C"/>
<path d="M102.168 4.61771H87.8844C87.2739 4.61771 86.694 4.83351 86.2362 5.23427C86.1446 5.29593 86.0836 5.38841 85.992 5.4809C85.9005 5.57338 85.8394 5.6967 85.7479 5.78918C85.5037 6.18995 85.3816 6.62154 85.3816 7.08397V18.2438H83.123L81.4443 15.3459C86.6635 12.3864 84.1913 4.55605 78.6363 4.55605H72.1353C71.8301 4.55605 71.5554 4.61771 71.2807 4.71019C71.1891 4.74102 71.067 4.80268 70.9755 4.86434C70.7923 4.95682 70.6092 5.11096 70.4261 5.2651L70.1819 5.54256C69.8462 5.97415 69.663 6.52906 69.663 7.08397V18.3671H61.3917V16.2399H65.7563C67.1298 16.2399 68.2285 15.1301 68.2285 13.7429C68.2285 12.3556 67.1298 11.2458 65.7563 11.2458H61.4222V9.58105H66.3057C67.6791 9.58105 68.7779 8.47124 68.7779 7.08397C68.7779 5.6967 67.6791 4.58688 66.3057 4.58688H58.5532C57.6986 4.61771 56.9051 5.08013 56.4778 5.82001L53.4867 11.2766V7.05314C53.5477 5.72753 52.51 4.61771 51.1975 4.55605H51.0755C50.0683 4.52522 49.1526 5.01848 48.5727 5.82001L41.0034 19.5694C40.3319 20.7717 40.7287 22.2823 41.919 22.9605C43.1094 23.6387 44.6049 23.238 45.2764 22.0357L48.5727 16.1166V20.9567C48.5727 22.3439 49.6715 23.4537 51.0449 23.4537C51.5638 23.4537 52.0827 23.2688 52.51 22.9605L52.571 22.8988C52.8152 22.7139 52.9983 22.4672 53.1509 22.2206L56.4167 16.2399V20.9567C56.4167 22.3131 57.5155 23.4537 58.8584 23.4537H72.1658C73.5393 23.4229 74.638 22.3131 74.6686 20.9258V9.64271H78.6363C79.6741 9.64271 79.8877 11.3691 78.6974 11.3691H77.6291C76.3472 11.3999 75.34 12.4481 75.34 13.7429C75.34 14.1745 75.4621 14.606 75.6758 14.976L79.3078 21.7582C79.7962 22.4364 79.9793 23.4229 81.9632 23.4846C83.9471 23.5462 87.9454 23.4846 87.9454 23.4846C89.2883 23.4846 90.3871 22.3748 90.3871 21.0183V9.55023H93.9886V20.9258C93.8971 22.2823 94.9348 23.4846 96.2778 23.5771C97.6207 23.6696 98.811 22.6214 98.9026 21.265C98.9026 21.265 98.9026 21.2649 98.9026 21.2341C98.9026 21.1416 98.9026 21.0183 98.9026 20.9258V9.58105H102.168C103.542 9.58105 104.641 8.47124 104.641 7.08397C104.641 5.72752 103.542 4.61771 102.168 4.61771Z" fill="#C9252C"/>
<path d="M182.837 18.8295C182.319 18.3054 181.617 17.9971 180.854 17.9971H175.97V9.64269C176.031 8.31707 175.543 6.99146 174.658 6.00496C173.65 5.08011 172.277 4.58686 170.904 4.64852C169.042 4.64852 167.302 5.69668 166.447 7.3614L161.656 16.2091C161.167 17.0723 160.374 17.6888 159.427 17.9355C158.42 18.2129 157.321 18.0588 156.436 17.5039C154.575 16.4249 153.934 14.0511 155.002 12.1706C156.07 10.2901 158.42 9.64269 160.282 10.7217C161.533 11.6465 163.273 11.3691 164.189 10.1359C165.104 8.87198 164.83 7.11477 163.609 6.18993C163.456 6.06661 163.273 5.97413 163.09 5.88164C158.573 3.26125 152.804 4.83349 150.21 9.36523C149.996 9.73517 149.844 10.1051 149.661 10.4751V7.48471C149.661 5.9433 148.409 4.67934 146.883 4.67934C145.357 4.67934 144.106 5.9433 144.106 7.48471V10.2593C142.641 6.55986 139.1 4.61769 133.698 4.61769H130.981C129.516 4.58686 128.326 5.75833 128.296 7.20726V18.0588H121.062V16.579H124.511C126.037 16.6099 127.288 15.4076 127.349 13.8662C127.38 13.0955 127.075 12.3556 126.525 11.8315C126.006 11.3074 125.304 10.9991 124.572 10.9991H121.123V10.1976H125.152C125.884 10.1976 126.586 9.88931 127.136 9.36523C127.655 8.84115 127.96 8.13211 127.96 7.3614C127.96 6.65235 127.685 5.97413 127.197 5.48088C126.617 4.92597 125.854 4.58686 125.06 4.58686H118.193C117.155 4.49438 116.148 5.04928 115.629 5.97413L113.187 10.2593V7.3614C113.187 5.81999 111.936 4.55603 110.41 4.55603C109.403 4.55603 108.487 5.11094 107.968 6.00496L100.643 19.5694C99.8495 20.895 100.307 22.6522 101.62 23.4229C101.62 23.4229 101.65 23.4229 101.65 23.4537C102.291 23.8237 103.054 23.9162 103.756 23.7312C104.489 23.5154 105.13 23.0221 105.496 22.3747L107.785 17.9971V21.0491C107.785 22.5905 109.036 23.8545 110.563 23.8545C111.57 23.8545 112.485 23.3304 113.004 22.4364L115.477 17.9355V20.895C115.538 22.4672 116.789 23.7004 118.346 23.7004H131.226C131.989 23.7004 132.691 23.3921 133.21 22.868C133.576 22.4981 133.85 22.0048 133.973 21.4807C134.247 23.0221 135.682 24.0395 137.208 23.762C140.352 23.2688 143.007 21.1108 144.197 18.1513V20.9566C144.197 21.6965 144.502 22.3747 145.021 22.8988C146.09 23.9778 147.829 24.0086 148.898 22.9297L148.928 22.8988C149.447 22.3747 149.752 21.6349 149.752 20.895V17.8122C150.546 19.7543 151.95 21.3574 153.75 22.4056C156.955 24.2553 161.717 24.3477 164.799 21.08H170.507C170.751 22.4981 171.911 23.5462 173.315 23.6695H180.976C182.502 23.7004 183.784 22.4364 183.814 20.895C183.692 20.0935 183.387 19.3536 182.837 18.8295ZM133.973 20.1551V10.0126C137.116 10.0126 138.764 11.0916 139.222 13.4346C139.405 14.5135 139.161 15.6542 138.551 16.5482C138.001 17.3806 137.147 17.9663 136.17 18.1513C135.102 18.3362 134.247 19.107 133.973 20.1551ZM142.671 19.1994C141.389 21.2033 139.314 22.5597 136.994 22.8988C135.895 23.0838 134.858 22.3747 134.675 21.2649C134.491 20.1551 135.193 19.107 136.292 18.922C137.483 18.7062 138.52 17.9971 139.161 16.9798C139.894 15.9008 140.199 14.5444 139.955 13.2496C139.405 10.4442 137.269 9.05695 133.515 9.18026H133.118V20.8025C133.087 21.9123 132.202 22.8063 131.104 22.8372H118.223C117.094 22.8063 116.209 21.9123 116.148 20.7717V14.6985L112.18 21.9431C111.814 22.5597 111.142 22.9296 110.44 22.8988C109.342 22.8988 108.457 22.0048 108.426 20.895V14.606L104.58 21.8507C104.306 22.3131 103.848 22.683 103.329 22.8063C102.841 22.9605 102.291 22.868 101.833 22.6214C100.887 22.0665 100.552 20.8333 101.101 19.8777L108.426 6.31324C108.975 5.35756 110.166 5.01845 111.142 5.57336C111.753 5.91247 112.15 6.59069 112.15 7.29974V13.1879L116.056 6.34407C116.423 5.69668 117.155 5.29591 117.888 5.38839H124.755C125.335 5.38839 125.915 5.60419 126.342 6.03579C126.678 6.3749 126.861 6.83732 126.892 7.29974C126.892 8.40956 126.006 9.30357 124.908 9.30357H120.116V11.7082H124.358C125.488 11.8007 126.312 12.7563 126.251 13.897C126.19 14.9143 125.365 15.7158 124.358 15.8083H120.116V18.8912H128.967V7.3614C128.936 6.34407 129.73 5.45005 130.737 5.41922H133.606C139.65 5.41922 143.098 7.82382 143.831 12.6022C144.289 14.8835 143.831 17.2264 142.671 19.1994ZM148.867 20.895C148.867 21.974 148.012 22.868 146.944 22.8988C145.845 22.8988 144.93 22.0048 144.93 20.895V7.48471C144.93 6.96063 145.143 6.43655 145.51 6.06661C145.876 5.69667 146.395 5.48088 146.914 5.48088C148.012 5.48088 148.898 6.3749 148.898 7.48471L148.867 20.895ZM180.854 22.8372H173.193C172.094 22.683 171.239 21.7582 171.178 20.6484V20.2476H164.372L164.25 20.3709C161.472 23.4846 157.016 23.3921 154.056 21.6657C149.935 19.2611 148.501 13.9278 150.881 9.766C153.262 5.60419 158.542 4.15526 162.663 6.55986C163.639 7.08394 164.006 8.28624 163.487 9.27274C162.998 10.2284 161.839 10.6292 160.862 10.1668C160.801 10.1359 160.709 10.1051 160.648 10.0434C158.451 8.71784 155.582 9.45772 154.269 11.7082C152.957 13.9278 153.689 16.8257 155.917 18.1513C155.948 18.1513 155.979 18.1821 155.979 18.1821C157.077 18.8295 158.359 19.0453 159.611 18.7062C160.77 18.3979 161.747 17.6272 162.327 16.579L167.119 7.73134C167.851 6.31324 169.286 5.41922 170.873 5.45005C172.002 5.38839 173.132 5.78916 173.986 6.55986C174.749 7.39223 175.115 8.53287 175.054 9.64269V18.7987H180.762C181.281 18.7987 181.8 19.0145 182.166 19.3844C182.929 20.1551 182.959 21.4191 182.166 22.2206C181.891 22.6214 181.372 22.8372 180.854 22.8372Z" fill="#C9252C"/>
<path d="M170.841 10.0742C170.658 10.0126 170.475 10.1051 170.383 10.2592L167.575 15.6233C167.514 15.7466 167.514 15.9008 167.575 16.0241C167.636 16.1474 167.789 16.2091 167.911 16.2091H170.719C170.81 16.2091 170.932 16.1782 170.993 16.0857C171.055 15.9933 171.116 15.9008 171.116 15.8083V10.475C171.116 10.2592 170.993 10.1051 170.841 10.0742ZM170.322 15.4075H168.582L170.353 12.0781L170.322 15.4075Z" fill="#C9252C"/>
<path d="M7.61297 21.9431C6.84993 21.9431 6.20898 21.3265 6.20898 20.5558C6.20898 20.3092 6.27003 20.0626 6.39211 19.816L13.8699 6.83728C14.2972 6.15906 15.1823 5.97409 15.8538 6.43651C16.4642 6.83728 16.6778 7.63882 16.3421 8.28621L8.86435 21.2341C8.58966 21.6657 8.13184 21.9431 7.61297 21.9431Z" fill="#C9252C"/>
<path d="M16.25 21.9431C16.0058 21.9431 15.7616 21.8814 15.548 21.7581C14.8765 21.3574 14.6628 20.4942 15.0291 19.816L22.5069 6.8681C22.9036 6.18988 23.7888 5.94326 24.4602 6.34402C25.1317 6.74479 25.3759 7.63881 24.9791 8.31703L17.5013 21.2649C17.2266 21.6965 16.7688 21.9739 16.25 21.9431Z" fill="#C9252C"/>
<path d="M25.8038 15.2842H25.7428L23.179 19.7543C22.8127 20.4633 23.0569 21.3265 23.7589 21.6965C24.4609 22.0664 25.3155 21.8198 25.6817 21.1107C25.8038 20.8949 25.8648 20.6483 25.8648 20.4017V15.315C25.8648 15.315 25.8343 15.2842 25.8038 15.2842Z" fill="#C9252C"/>
<path d="M180.7 6.28233C180.73 7.26883 179.967 8.10119 178.99 8.13202C178.014 8.16285 177.19 7.39214 177.159 6.40564C177.129 5.41914 177.892 4.6176 178.838 4.55595H178.899C179.875 4.52512 180.669 5.29583 180.7 6.28233C180.669 6.2515 180.669 6.2515 180.7 6.28233ZM177.586 6.2515C177.556 6.99138 178.136 7.60794 178.868 7.63877H178.929C179.662 7.63877 180.242 7.02221 180.242 6.28233C180.211 5.54245 179.631 4.95672 178.868 4.95672C178.258 4.95672 177.739 5.38831 177.617 5.97405C177.617 6.09736 177.617 6.15901 177.586 6.2515ZM178.685 7.20718H178.288V5.44996C178.502 5.41914 178.716 5.38831 178.96 5.38831C179.174 5.35748 179.387 5.41914 179.54 5.51162C179.662 5.60411 179.723 5.75825 179.723 5.88156C179.723 6.09736 179.57 6.2515 179.357 6.28233C179.54 6.37481 179.631 6.52895 179.662 6.71392C179.662 6.86806 179.723 7.0222 179.784 7.14552H179.357C179.296 7.0222 179.235 6.86806 179.235 6.71392C179.204 6.52895 179.051 6.40564 178.899 6.43647H178.685V7.20718ZM178.685 6.2515H178.868C179.112 6.2515 179.265 6.15901 179.265 6.00487C179.265 5.8199 179.143 5.75825 178.899 5.75825H178.655L178.685 6.2515Z" fill="#C9252C"/>
</svg>
