<svg width="121" height="20" viewBox="0 0 121 20" fill="none" xmlns="http://www.w3.org/2000/svg">
<g clip-path="url(#clip0_0_1326)">
<path fill-rule="evenodd" clip-rule="evenodd" d="M92.8343 0.0226691H94.2313C96.2367 0.137086 98.197 0.869351 99.7743 2.12793C102.501 4.2332 104.01 7.87164 103.492 11.3041C103.109 14.6451 100.878 17.6428 97.8816 19.0387C96.8901 19.5421 95.786 19.7481 94.727 19.9769H92.654C91.9104 19.7938 91.1443 19.6794 90.4233 19.4048C89.229 18.9929 88.125 18.3064 87.2011 17.4597C84.5423 15.057 83.2804 11.1211 84.1817 7.57416C84.9704 4.27896 87.5842 1.53297 90.7387 0.503218C91.4147 0.297269 92.1357 0.159969 92.8343 0.0226691ZM92.9019 3.45516C90.6035 3.75265 88.5756 5.46889 87.8095 7.68857C87.0885 9.72519 87.4264 12.0822 88.6207 13.8442C89.2741 14.851 90.243 15.6291 91.3246 16.1325C93.0371 16.8877 95.0875 16.7504 96.7099 15.8121C99.2335 14.4163 100.585 11.2126 99.8419 8.39795C99.4138 6.63594 98.2646 5.03411 96.6648 4.16455C95.5382 3.52381 94.1862 3.2721 92.9019 3.45516ZM116.381 0.137086C117.8 0.411685 119.197 0.915118 120.324 1.87622C119.738 2.81443 119.085 3.72976 118.454 4.62221C117.981 4.32473 117.53 3.98148 117.012 3.77553C115.908 3.31786 114.646 3.22633 113.519 3.684C112.933 3.93571 112.393 4.41626 112.257 5.05699C112.145 5.53754 112.257 6.06386 112.573 6.42999C113.069 7.00207 113.767 7.29956 114.443 7.61992C115.705 8.16912 117.012 8.6039 118.206 9.33617C119.062 9.8396 119.828 10.5261 120.324 11.3957C120.685 12.0135 120.865 12.7229 121.023 13.4094V14.8282C120.775 16.3613 119.941 17.7801 118.702 18.6726C117.755 19.4048 116.584 19.7481 115.412 19.9998H114.015C111.626 19.8167 109.328 18.7641 107.616 17.0478C107.976 16.6359 108.382 16.2469 108.765 15.8579C109.193 15.4231 109.576 14.9426 110.027 14.5307C110.635 15.057 111.221 15.6291 111.964 15.9723C112.978 16.4986 114.173 16.7732 115.299 16.5444C116.133 16.3613 116.877 15.7893 117.169 14.9655C117.462 14.1874 117.237 13.2263 116.629 12.6542C115.863 11.8991 114.849 11.5558 113.88 11.144C112.325 10.5261 110.68 9.88537 109.553 8.58102C107.999 6.79612 108.156 3.8213 109.756 2.10505C110.658 1.0753 111.897 0.503218 113.181 0.182852C114.15 -0.0459807 115.412 -0.068864 116.381 0.137086ZM7.39069 0.480335C8.53985 0.457452 9.71155 0.457452 10.8607 0.480335C11.3114 1.4872 11.6493 2.53983 12.0775 3.5467C14.1279 8.90139 16.1784 14.2332 18.2289 19.565C12.1451 19.565 6.0838 19.5421 0 19.5879V19.4506C0.315456 18.8327 0.540782 18.192 0.788641 17.5513C2.83911 12.2652 4.86704 6.95631 6.9175 1.64738C7.0527 1.23548 7.21043 0.846468 7.39069 0.480335ZM9.08063 5.33159C8.9905 5.51466 8.90037 5.72061 8.83278 5.92656C7.54842 9.35905 6.24153 12.7687 4.95717 16.2012C5.79087 16.2469 6.62458 16.2012 7.45829 16.224C9.37356 16.2012 11.3114 16.2469 13.2266 16.2012C13.0464 15.5833 12.776 14.9883 12.5732 14.3934C11.4015 11.3728 10.2749 8.35219 9.08063 5.33159ZM19.6484 0.457452C20.8426 0.457452 22.0594 0.434568 23.2536 0.457452C23.4114 0.777818 23.5466 1.12107 23.6592 1.46432C25.1689 5.46889 26.6786 9.45059 28.1883 13.4552C28.3009 13.7755 28.3911 14.073 28.5713 14.3705C30.2387 10.0684 31.8385 5.72061 33.4834 1.41855C33.5961 1.09818 33.7088 0.777818 33.8665 0.480335C35.0607 0.480335 36.2775 0.457452 37.4717 0.480335C37.4266 0.640518 37.3816 0.777818 37.3365 0.938001C35.1058 7.02496 32.875 13.1348 30.6443 19.2446C30.5993 19.3591 30.5317 19.4735 30.4866 19.5879C29.1572 19.5879 27.8503 19.6108 26.5209 19.565C24.3803 13.6382 22.2171 7.73434 20.0765 1.83045C19.9639 1.37278 19.7611 0.938001 19.6484 0.457452ZM45.8989 0.457452C47.0706 0.457452 48.2197 0.434568 49.3914 0.457452C51.5771 6.04098 53.6952 11.6474 55.8583 17.2309C56.1287 18.0089 56.5117 18.7412 56.692 19.5421C50.6307 19.5421 44.592 19.565 38.5307 19.5421C40.6037 14.0501 42.7669 8.55814 44.8624 3.06615C45.2229 2.21947 45.5158 1.32702 45.8989 0.457452ZM47.2508 6.15539C45.989 9.51924 44.7047 12.8602 43.4654 16.224C44.5469 16.2698 45.606 16.224 46.6875 16.2469C48.3775 16.224 50.0674 16.2698 51.7574 16.224C51.5996 15.652 51.3518 15.1028 51.149 14.5536C49.9773 11.4872 48.7831 8.42084 47.6339 5.35448C47.4536 5.58331 47.3635 5.88079 47.2508 6.15539ZM62.0998 0.457452C63.0912 0.457452 64.1052 0.434568 65.0966 0.480335C68.0259 4.43914 70.9326 8.39795 73.8618 12.3796C74.0872 12.7 74.3125 13.0433 74.6279 13.295C74.6955 11.6474 74.6279 9.9769 74.6505 8.3293C74.6505 5.72061 74.6505 3.08903 74.6505 0.480335C75.7996 0.457452 76.9713 0.457452 78.1205 0.480335C78.1205 6.84189 78.1205 13.2034 78.1205 19.565C77.1291 19.5879 76.1376 19.5879 75.1462 19.565C74.4026 18.6497 73.7266 17.6657 73.0056 16.7046C70.6397 13.5009 68.2737 10.2973 65.9304 7.09361C65.8177 6.95631 65.6825 6.81901 65.5698 6.68171C65.5698 9.67942 65.5698 12.7 65.5698 15.6977C65.5473 16.9792 65.6149 18.2835 65.5473 19.565C64.3981 19.565 63.249 19.565 62.0998 19.565C62.0547 19.1302 62.0547 18.6954 62.0773 18.2607C62.0773 12.7687 62.0773 7.27667 62.0773 1.78468C62.0773 1.32702 62.0547 0.892234 62.0998 0.457452Z" fill="#131313"/>
</g>
<defs>
<clipPath id="clip0_0_1326">
<rect width="121" height="20" fill="white"/>
</clipPath>
</defs>
</svg>
