<svg width="61" height="61" viewBox="0 0 61 61" fill="none" xmlns="http://www.w3.org/2000/svg">
<path d="M30.4975 60.39C47.009 60.39 60.39 47.009 60.39 30.5024C60.39 13.9958 47.009 0.609985 30.4975 0.609985C13.9909 0.609985 0.609985 13.9958 0.609985 30.5024C0.609985 47.009 13.9909 60.39 30.4975 60.39Z" fill="white"/>
<path d="M37.2051 22.7176C37.2051 19.3187 39.506 16.0222 40.7614 16.6432C42.1925 17.3606 39.689 20.5619 37.2051 22.7176ZM21.5586 23.9559C21.5586 21.2231 24.2548 16.0308 25.9018 16.5798C27.8489 17.2288 24.289 22.4663 21.5586 23.9559ZM18.8246 43.5003C17.5851 43.5564 16.7555 42.7634 16.7555 41.4397C16.7555 37.8834 21.6904 34.4857 25.4175 32.6618C24.7562 37.6272 23.0787 43.3088 18.8246 43.5003ZM41.5922 31.9115C38.7777 31.9115 36.6268 33.9819 36.6268 36.4646C36.6268 38.5349 37.8712 40.1904 39.5219 40.1904C40.1063 40.1904 40.6845 39.8574 40.6845 39.1181C40.6845 38.0359 39.2571 37.7761 39.3645 36.1669C39.4365 35.1055 40.4369 34.3954 41.43 34.3954C43.4149 34.3954 44.3433 36.3194 44.3433 38.3043C44.2628 41.3702 42.0058 43.4991 39.3608 43.4991C35.8814 43.4991 33.6464 40.1904 33.6464 36.6293C33.6464 31.3271 37.1258 29.258 38.9485 28.7639C38.9656 28.7639 43.7089 29.6069 43.5613 27.5159C43.493 26.596 42.1254 26.2422 41.1372 26.2044C40.0379 26.1617 38.9277 26.5569 38.9277 26.5569C38.3519 26.2641 37.9517 25.692 37.7041 25.0332C41.0993 22.4638 43.5003 19.9824 43.5003 17.1666C43.5003 15.677 42.5048 14.3521 40.6004 14.3521C37.2051 14.3521 34.6382 18.6574 34.6382 22.5492C34.6382 23.2093 34.6382 23.8742 34.809 24.4524C32.6545 26.0238 31.0526 27.0035 28.1576 28.742C28.1576 28.3796 28.2332 27.4439 28.4772 26.2336C29.4691 25.1564 30.8318 23.5423 30.8318 22.2991C30.8318 21.7209 30.5036 21.2219 29.8351 21.2219C28.182 21.2219 26.9425 23.7082 26.6106 25.4467C25.8652 26.3617 24.3744 27.5207 23.13 27.5207C22.1381 27.5207 21.805 26.6094 21.7209 26.2763C24.8685 25.1991 28.7603 20.8937 28.7603 17.0019C28.7603 16.176 28.4284 14.3521 25.9457 14.3521C22.2198 14.3521 19.0771 19.9018 19.0771 24.2023C17.7485 24.2023 17.2544 22.7969 17.2544 21.7196C17.2544 20.6412 17.668 19.5688 17.668 19.2357C17.668 18.9039 17.5021 18.4915 17.0031 18.4915C15.7636 18.4915 15.0182 20.1471 15.0182 22.0515C15.1036 24.7013 16.8409 26.3617 19.1576 26.524C19.4895 28.099 20.8949 29.5899 22.6322 29.5899C23.7107 29.5899 25.0344 29.258 25.9457 28.4321C25.8652 29.0104 25.7847 29.5093 25.6993 30.0034C22.0539 31.9115 19.4041 33.2352 17.0031 35.3873C15.1036 37.1282 14.0263 39.445 14.0263 41.264C14.0263 43.7516 15.5977 46.0684 18.8258 46.0684C22.6322 46.0684 25.5334 43.0062 26.9425 38.7813C27.6025 36.7964 27.8672 33.905 28.0368 31.2515C31.8408 29.0958 33.6464 27.8538 35.635 26.4435C35.8826 26.8571 36.1327 27.1877 36.4609 27.4353C34.7236 28.3467 30.5842 30.9148 30.5842 36.9574C30.5842 41.2628 33.4792 46.0672 39.1961 46.0672C43.9151 46.0672 47.1432 42.1742 47.1432 38.4471C47.142 35.0555 45.2376 31.9115 41.5922 31.9115ZM55.8284 39.0241C55.8162 39.0497 55.7698 39.0839 55.6759 39.0534C55.6027 39.0278 55.5868 38.9936 55.5868 38.946C55.5905 38.8997 56.5872 35.9522 56.5787 32.5752C56.5702 28.925 55.0891 26.6887 53.1895 26.6887C52.0269 26.6887 51.1997 27.5195 51.1997 28.7639C51.1997 30.999 53.9301 31.1661 53.9301 36.0498C53.9301 38.0347 53.5165 39.9391 52.8577 42.0082C49.7906 52.3563 40.0209 57.1606 30.5036 57.1606C26.1129 57.1606 22.9945 56.2578 22.0673 55.8418C22.0295 55.8199 21.9941 55.7479 22.0246 55.6747C22.0454 55.6198 22.11 55.5771 22.1479 55.5942C22.5236 55.7393 25.2015 56.5824 28.515 56.5824C32.1567 56.5824 34.3113 55.0927 34.3113 53.2688C34.3113 52.1111 33.3999 51.1997 32.2421 51.1997C30.0059 51.1997 29.8363 54.0143 25.0356 54.0143C22.9665 54.0143 21.1438 53.6007 18.9929 52.9358C8.72299 49.7906 3.83445 40.1063 3.83811 30.5024C3.84177 25.8225 5.15449 22.0954 5.17523 22.0612C5.19231 22.0368 5.25086 22.01 5.32284 22.0368C5.39605 22.0612 5.41191 22.121 5.40825 22.143C5.28991 22.5309 4.42005 25.2015 4.42005 28.515C4.42005 32.1604 5.90967 34.3113 7.81409 34.3113C8.88768 34.3113 9.79903 33.4853 9.79903 32.3263C9.79903 30.0876 7.065 29.84 7.065 25.0368C7.065 22.9665 7.48225 21.1438 8.14227 18.9929C11.2899 8.72543 20.9791 3.91375 30.5012 3.83933C34.9261 3.80517 38.7972 5.13009 38.946 5.24843C38.9717 5.27039 38.9973 5.32651 38.9717 5.39361C38.9363 5.47413 38.885 5.48267 38.8606 5.47779C38.8143 5.47413 36.2962 4.42127 32.4849 4.42127C28.925 4.41761 26.6887 5.90844 26.6887 7.8153C26.6887 8.8889 27.5195 9.80025 28.7578 9.80025C30.9941 9.80025 31.16 7.06989 35.9644 7.06989C38.0286 7.06989 39.8525 7.47859 42.0034 8.14349C52.3563 11.2899 57.0667 21.0596 57.1558 30.5012C57.2046 35.3361 55.8418 38.9936 55.8284 39.0241ZM30.5024 2.01909C14.7705 2.01909 2.02031 14.7656 2.02031 30.5012C2.02031 46.2331 14.7705 58.9797 30.5024 58.9797C46.2307 58.9797 58.9809 46.2331 58.9809 30.5012C58.9809 14.851 46.2307 2.01909 30.5024 2.01909ZM30.5024 60.39C14.0251 60.39 0.609985 47.0603 0.609985 30.5024C0.609985 14.0202 14.0251 0.609985 30.5024 0.609985C46.9749 0.609985 60.39 14.0202 60.39 30.5024C60.39 47.0603 46.9749 60.39 30.5024 60.39Z" fill="#62009B"/>
</svg>
