<svg width="142" height="32" viewBox="0 0 142 32" fill="none" xmlns="http://www.w3.org/2000/svg">
<path fill-rule="evenodd" clip-rule="evenodd" d="M0.126404 4.27139L7.33265 11.5183L9.13525 13.3311L10.9379 11.5183L18.1441 4.27132V0.668762H18.1214L9.13525 9.70557L0.149098 0.668762H0.126404V4.27139ZM121.152 11.0307H103.121V13.6208H121.152V11.0307ZM121.152 0.668762V3.25902H103.121V0.668762H121.152ZM121.152 5.84967V8.43987H103.121V5.84967H121.152ZM121.152 16.2114V18.8017H103.121V16.2114H121.152ZM79.9517 11.0307H61.9204V13.6208H79.9517V11.0307ZM79.9517 0.668762V3.25902H61.9204V0.668762H79.9517ZM79.9517 5.84967V8.43987H61.9204V5.84967H79.9517ZM79.9517 16.2114V18.8017H61.9204V16.2114H79.9517ZM38.7511 11.0307H20.7199V13.6208H38.7511V11.0307ZM38.7511 0.668762V3.25902H20.7199V0.668762H38.7511ZM38.7511 5.84967V8.43987H20.7199V5.84967H38.7511ZM38.7511 16.2114V18.8017H20.7199V16.2114H38.7511ZM141.746 11.5326L130.943 0.668762H127.338L141.746 15.158V11.5326ZM123.728 18.7881V15.1688L127.327 18.7881H123.728ZM123.728 11.5424V7.91694L134.538 18.7881H130.933L123.728 11.5424ZM123.728 4.29055V0.668762H123.732L141.746 18.7843V18.7881H138.144L123.728 4.29055ZM134.549 0.668762H138.154L141.746 4.28068V7.90619L134.549 0.668762ZM44.9268 18.7881L52.1331 11.5412L53.9358 9.72846L52.1331 7.91564L44.9269 0.668762H41.3269V0.673909L50.3306 9.72846L41.3269 18.7829V18.7881H44.9268ZM41.3269 15.1566V11.5311L43.1194 9.72846L41.3269 7.92581V4.30033L44.9219 7.91564L46.7245 9.72846L44.9219 11.5412L41.3269 15.1566ZM48.5329 0.668762H52.1381L59.3444 7.91564L59.3447 7.91597V11.5409L59.3444 11.5412L52.138 18.7881H48.5329L57.5417 9.72846L48.5329 0.668762ZM55.7441 0.668762H59.3447V4.28971L55.7441 0.668762ZM59.3447 15.1672V18.7881H55.7441L59.3447 15.1672ZM95.1448 13.3567L96.9474 15.1694L100.545 18.7874V15.162L98.75 13.3567L100.545 11.5514V7.92597L95.1448 13.3567ZM96.94 0.668762L100.545 4.29421V0.668762H96.94ZM82.5274 15.1718V11.5415L87.9284 6.11014L82.5274 0.678636V0.668762H86.1228L89.731 4.29738L91.5336 6.11014L89.731 7.92289L84.3276 13.3567L89.7286 18.7881H86.1234L82.5274 15.1718ZM82.5274 7.91522V4.30502L84.3224 6.11014L82.5274 7.91522ZM89.7287 0.668762H93.334L96.9422 4.29738L98.7448 6.11014L96.9422 7.92289L91.5388 13.3567L96.9398 18.7881H93.3345L89.7362 15.1694L87.9336 13.3567L89.7362 11.544L95.1396 6.11014L89.7287 0.668762ZM3.7551 0.668762H7.3603L9.13525 2.45374L10.9102 0.668762H14.5154L10.9379 4.2665L9.13525 6.07925L7.33265 4.2665L3.7551 0.668762ZM18.1441 7.8978V11.5232L10.9379 18.7702L10.9201 18.7881H7.35042L7.33265 18.7702L0.126404 11.5232V7.8978L9.13525 16.9574L18.1441 7.8978ZM18.1441 15.1495V18.7751L18.1312 18.7881H14.526L18.1441 15.1495ZM3.74448 18.7881H0.13928L0.126404 18.7751V15.1495L3.74448 18.7881Z" fill="#1A75CF"/>
<path d="M26.8094 24.3931V31.3056H32.6615V29.8869H28.4607V28.3826H32.1986V26.9639H28.4607V25.8118H32.6615V24.3931H26.8094Z" fill="#545558"/>
<path d="M46.811 31.3056H49.7869C52.0913 31.3056 53.8606 30.5249 53.8606 27.8494C53.8606 25.3453 52.2183 24.3931 50.177 24.3931H46.811V31.3056ZM48.4622 25.8118H49.7506C51.2748 25.8118 52.055 26.4878 52.055 27.8208C52.055 29.1539 51.2748 29.8869 49.7506 29.8869H48.4622V25.8118Z" fill="#545558"/>
<path d="M68.0099 24.3931V31.3056H73.8621V29.8869H69.6613V28.3826H73.3993V26.9639H69.6613V25.8118H73.8621V24.3931H68.0099Z" fill="#545558"/>
<path d="M88.1882 31.3056H89.8396V28.7634H91.7448C92.7247 28.7634 92.8972 29.1253 92.8972 30.2964V30.7725C92.8972 30.9724 92.9425 31.1534 93.0332 31.3056H94.8842C94.5666 30.9248 94.5666 30.3059 94.5302 29.4776C94.494 28.6873 94.4123 28.3065 93.7046 28.0018C94.3941 27.7256 94.7935 27.0686 94.7935 26.2499C94.7935 24.9454 93.9496 24.3931 92.2348 24.3931H88.1882V31.3056ZM89.8396 25.8118H91.636C92.5887 25.8118 93.0513 25.8689 93.0513 26.5259C93.0513 27.1734 92.5977 27.3448 91.7086 27.3448H89.8396V25.8118Z" fill="#545558"/>
<path d="M109.21 24.3931V31.3056H115.063V29.8869H110.862V28.3826H114.6V26.9639H110.862V25.8118H115.063V24.3931H109.21Z" fill="#545558"/>
<path d="M129.28 24.3931V31.3056H130.868V26.3832L134.188 31.3056H136.193V24.3931H134.606V29.2681L131.312 24.3931H129.28Z" fill="#545558"/>
<path d="M4.862 24.3931V31.3056H6.44976V26.6117L8.40942 31.3056H9.77944L11.8209 26.6877V31.3056H13.4085V24.3931H11.2946L9.11719 29.3443L6.99413 24.3931H4.862Z" fill="#545558"/>
</svg>
