<svg width="124" height="41" viewBox="0 0 124 41" fill="none" xmlns="http://www.w3.org/2000/svg">
<path d="M123.923 9.76159C125.612 19.4015 99.2594 32.0259 65.0559 37.9583C30.8565 43.8907 1.76281 40.8804 0.0763416 31.2364C-1.60877 21.5951 24.7509 8.97476 58.9503 3.04376C93.151 -2.89132 122.239 0.118952 123.923 9.76159Z" fill="#034EA2"/>
<path d="M91.7344 24.0723L91.5587 14.0485H94.7327V26.6824H90.1692L87.0019 16.314H86.9338L87.1095 26.6824H83.9559V14.0485H88.717L91.6636 24.0723H91.7344Z" fill="white"/>
<path d="M34.0388 15.2314L32.2829 26.8153H28.8214L31.1985 14.0485H36.9009L39.2672 26.8153H35.8193L34.111 15.2314H34.0388Z" fill="white"/>
<path d="M47.329 26.8153L45.1848 15.3372H45.1153L45.035 26.8153H41.8241L42.1075 14.0485H47.3385L48.9215 23.8078H48.9896L50.5739 14.0485H55.8022L56.0801 26.8153H52.8761L52.7916 15.3372H52.7249L50.5821 26.8153H47.329Z" fill="white"/>
<path d="M23.4228 23.2136C23.5481 23.5229 23.51 23.9203 23.4514 24.1605C23.3438 24.5851 23.055 25.0178 22.2022 25.0178C21.3985 25.0178 20.9108 24.5593 20.9108 23.8579V22.6221H17.4725L17.4697 23.611C17.4697 26.4572 19.7202 27.3159 22.1314 27.3159C24.4499 27.3159 26.3598 26.5263 26.6636 24.3992C26.8189 23.2963 26.7031 22.5746 26.65 22.3019C26.1092 19.6294 21.2432 18.8318 20.8808 17.3368C20.8195 17.0804 20.8372 16.8091 20.8672 16.6639C20.9557 16.257 21.2364 15.8079 22.0387 15.8079C22.788 15.8079 23.2307 16.2692 23.2307 16.9665C23.2307 17.2012 23.2307 17.7546 23.2307 17.7546H26.4279V16.8579C26.4279 14.0769 23.9214 13.6428 22.1055 13.6428C19.8251 13.6428 17.9615 14.393 17.6209 16.4713C17.5283 17.0451 17.5147 17.5566 17.6496 18.1969C18.2094 20.8056 22.7635 21.5612 23.4228 23.2136Z" fill="white"/>
<path d="M65.1105 23.1905C65.2372 23.4971 65.1963 23.8837 65.1391 24.1238C65.0342 24.5471 64.7481 24.9731 63.9008 24.9731C63.108 24.9731 62.6244 24.5145 62.6244 23.8295L62.6217 22.6045H59.2187L59.2146 23.5799C59.2146 26.3975 61.4447 27.2481 63.8313 27.2481C66.1254 27.2481 68.0175 26.4694 68.3159 24.3612C68.4712 23.2665 68.3608 22.5543 68.305 22.287C67.7669 19.639 62.9499 18.8494 62.5917 17.3694C62.5304 17.1143 62.5481 16.8457 62.5794 16.7087C62.6707 16.299 62.9459 15.8609 63.7401 15.8609C64.4825 15.8609 64.9157 16.3112 64.9157 17.0031C64.9157 17.2351 64.9157 17.7831 64.9157 17.7831H68.0884V16.8959C68.0884 14.1448 65.6023 13.7134 63.8041 13.7134C61.5495 13.7134 59.701 14.4541 59.3672 16.5174C59.2746 17.0831 59.265 17.5851 59.3972 18.2227C59.9489 20.8043 64.458 21.5545 65.1105 23.1905Z" fill="white"/>
<path d="M75.8791 24.9052C76.7687 24.9052 77.0466 24.2921 77.1079 23.9787C77.1338 23.8403 77.1406 23.6558 77.1378 23.4903V14.043H80.38V23.2014C80.3868 23.4361 80.3637 23.919 80.3528 24.0397C80.1253 26.4233 78.2331 27.1965 75.8778 27.1965C73.5197 27.1965 71.6262 26.4233 71.4014 24.0397C71.3905 23.919 71.3673 23.4361 71.3741 23.2014V14.043H74.6136V23.4903C74.6136 23.6558 74.619 23.8417 74.6436 23.9787C74.713 24.2921 74.9828 24.9052 75.8791 24.9052Z" fill="white"/>
<path d="M102.623 24.7709C103.552 24.7709 103.876 24.1862 103.936 23.8457C103.959 23.6992 103.966 23.5215 103.965 23.3601V21.507H102.649V19.643H107.195V23.0697C107.192 23.3085 107.186 23.4849 107.148 23.9108C106.934 26.2333 104.911 27.0622 102.639 27.0622C100.363 27.0622 98.3427 26.2333 98.1261 23.9108C98.0893 23.4849 98.0839 23.3085 98.0798 23.0697L98.0825 17.6936C98.0825 17.467 98.1111 17.0655 98.1356 16.8525C98.4203 14.4663 100.363 13.6984 102.639 13.6984C104.913 13.6984 106.903 14.4622 107.139 16.8525C107.181 17.2595 107.167 17.6936 107.167 17.6936V18.1195H103.935V17.4046C103.937 17.406 103.931 17.1008 103.893 16.919C103.838 16.6368 103.591 15.9883 102.615 15.9883C101.68 15.9883 101.406 16.6015 101.338 16.919C101.299 17.0872 101.284 17.3151 101.284 17.5213V23.3601C101.281 23.5215 101.291 23.6992 101.316 23.8457C101.372 24.1876 101.695 24.7709 102.623 24.7709Z" fill="white"/>
</svg>
