<svg width="129" height="20" viewBox="0 0 129 20" fill="none" xmlns="http://www.w3.org/2000/svg">
<g clip-path="url(#clip0_0_1355)">
<path d="M39.2917 14.2377H27.7465V15.5777C27.7465 16.5325 28.4824 17.0517 29.4472 17.0517H39.2263V18.0232C39.2263 19.179 38.1797 19.8657 36.43 19.8657H26.7816C23.8708 19.8657 22.4154 18.5425 22.4154 15.5777V9.58122C22.4154 6.91797 23.8708 5.49423 26.7816 5.49423H35.3834C38.2942 5.49423 39.2754 6.93472 39.2754 9.58122V14.2377H39.2917ZM35.0236 11.4237V9.68172C35.0236 8.84422 34.5166 8.30822 33.7153 8.30822H29.022C28.2044 8.30822 27.7138 8.84422 27.7138 9.68172V11.4237H35.0236ZM46.6833 19.6982V0.167725H41.3849V19.6982M65.6202 14.2377H54.0749V15.5777C54.0749 16.5325 54.8108 17.0517 55.7756 17.0517H65.5548V18.0232C65.5548 19.179 64.5082 19.8657 62.7584 19.8657H53.1101C50.1992 19.8657 48.7438 18.5425 48.7438 15.5777V9.58122C48.7438 6.91797 50.1992 5.49423 53.1101 5.49423H61.7118C64.6227 5.49423 65.6038 6.93472 65.6038 9.58122V14.2377H65.6202ZM61.4011 11.34V9.61472C61.4011 8.77722 60.8942 8.24122 60.0929 8.24122H55.3995C54.5819 8.24122 54.0913 8.77722 54.0913 9.61472V11.34H61.4011ZM85.4074 19.6815V0.167725H80.0763V19.6982M104.279 14.2377H92.7336V15.5777C92.7336 16.5325 93.4695 17.0517 94.4343 17.0517H104.213V18.0232C104.213 19.179 103.167 19.8657 101.417 19.8657H91.7688C88.8579 19.8657 87.4025 18.5425 87.4025 15.5777V9.58122C87.4025 6.91797 88.8579 5.49423 91.7688 5.49423H100.37C103.281 5.49423 104.263 6.93472 104.263 9.58122V14.2377H104.279ZM100.06 11.3902V9.66497C100.06 8.82747 99.5528 8.29147 98.7515 8.29147H94.0582C93.2405 8.29147 92.7499 8.82747 92.7499 9.66497V11.407L100.06 11.3902ZM78.6699 2.98173V0.167725H71.4092C69.1688 0.167725 67.5826 1.50773 67.5826 4.03697V19.6982H72.881V8.15747H77.2309V5.34347H72.881V4.02022C72.881 3.23297 73.208 2.94822 74.0093 2.94822H78.6699V2.98173ZM125.047 8.34173V7.43722H125.832C126.143 7.43722 126.552 7.43722 126.552 7.82247C126.552 8.20772 126.356 8.34173 125.979 8.34173H125.047ZM126.355 8.82747C126.928 8.77722 127.239 8.52598 127.239 7.92298C127.239 7.03523 126.715 6.90122 125.979 6.90122H124.36V10.2512H125.047V8.87772H125.652L126.372 10.2512H127.14L126.355 8.82747ZM125.636 10.938C124.36 10.938 123.314 9.88272 123.314 8.55947C123.314 7.25297 124.344 6.18097 125.636 6.18097C126.911 6.18097 127.958 7.23622 127.958 8.55947C127.958 9.86597 126.944 10.9212 125.669 10.938C125.652 10.938 125.652 10.938 125.636 10.938ZM125.636 11.6415C127.304 11.6415 128.645 10.268 128.645 8.55947C128.645 6.85097 127.304 5.47747 125.636 5.47747C123.968 5.47747 122.627 6.85097 122.627 8.55947C122.627 10.268 123.968 11.6415 125.636 11.6415Z" fill="#00205B"/>
<path d="M0.355072 2.94828V0.134277H9.83985C12.0802 0.134277 13.6665 1.47428 13.6665 4.00352V19.6648H8.7769V4.07053C8.7769 3.28328 8.36808 2.91477 7.55042 2.91477H0.355072V2.94828ZM28.5151 2.94828V0.134277H19.0303C16.7899 0.134277 15.2037 1.47428 15.2037 4.00352V19.6648H20.0605V4.07053C20.0605 3.28328 20.4693 2.91477 21.2706 2.91477H28.5151V2.94828ZM112.014 5.69527L115.105 8.82753L118.114 5.69527H122.774L117.345 11.273L125.521 19.6983H117.852L113.551 15.2428L109.217 19.6983H104.671L111.425 12.7638L104.442 5.69527" fill="#00205B"/>
</g>
<defs>
<clipPath id="clip0_0_1355">
<rect width="129" height="20" fill="white"/>
</clipPath>
</defs>
</svg>
