<svg width="48" height="48" viewBox="0 0 48 48" fill="none" xmlns="http://www.w3.org/2000/svg">
<path d="M40.7119 17.3093L26.0012 26.1357C25.8519 26.2253 25.7623 26.3895 25.7623 26.5688V43.0118C25.7623 43.4001 26.1805 43.6391 26.509 43.4449L41.2197 34.9471C41.369 34.8575 41.4735 34.6932 41.4735 34.514V17.7424C41.4586 17.3541 41.0404 17.1151 40.7119 17.3093ZM8.30366 17.3093C7.9751 17.1151 7.54199 17.3541 7.54199 17.7424V34.514C7.54199 34.6932 7.6316 34.8575 7.79588 34.9471L22.5065 43.4449C22.8351 43.6391 23.2533 43.4001 23.2533 43.0118V26.5688C23.2533 26.3895 23.1636 26.2253 23.0143 26.1357L8.30366 17.3093ZM17.2794 32.5426L16.5327 32.1394V34.6484C16.5327 34.9919 16.2638 35.1114 15.9203 34.9322L14.0236 33.9166C13.6801 33.7374 13.4113 33.3192 13.4113 32.9757V30.4667L12.6646 30.0635C12.1419 29.7797 11.8581 29.018 12.2016 28.809L14.5015 27.3902C14.7405 27.2408 15.1736 27.4798 15.4275 27.883L17.7274 31.781C18.0859 32.3485 17.8021 32.8264 17.2794 32.5426Z" fill="#1446A0"/>
<path d="M30.2576 8.75171L24.7467 5.57062C24.5973 5.48102 24.4032 5.48102 24.2538 5.57062L9.36398 14.1581C9.03541 14.3522 9.03541 14.8301 9.36398 15.0243L15.0541 18.4294C15.2184 18.519 15.4125 18.519 15.5619 18.4294L30.2725 9.60298C30.5861 9.40883 30.5861 8.93092 30.2576 8.75171ZM40.1891 14.1879L37.6801 8.72184C37.5606 8.45301 37.2171 8.34847 36.9632 8.49782L22.0734 17.4287C21.8643 17.5632 21.7747 17.832 21.8792 18.056L24.2688 23.5818C24.3882 23.8656 24.7317 23.9701 24.9856 23.8058L39.995 14.8002C40.219 14.6808 40.2937 14.4119 40.1891 14.1879Z" fill="#FF6A3D"/>
</svg>
