<svg width="48" height="48" viewBox="0 0 48 48" fill="none" xmlns="http://www.w3.org/2000/svg">
<path d="M44.132 40.6223L42.3249 35.2159C42.2203 34.9023 42.2502 34.5737 42.3996 34.29C43.7586 31.6615 44.3112 28.5551 43.7287 25.2844C42.8327 20.2663 39.1587 16.0996 34.3946 14.5016C35.6192 17.4736 35.9926 20.7741 35.3803 24.0448C34.1258 30.6907 28.809 35.9776 22.1183 37.1724C21.2521 37.3217 20.3859 37.3964 19.5197 37.4263C21.5508 39.6217 24.2539 41.1749 27.2707 41.7125C30.5265 42.295 33.603 41.7573 36.2315 40.4132C36.5153 40.2638 36.8439 40.234 37.1575 40.3385L42.5788 42.1456C43.5495 42.4742 44.4456 41.5632 44.132 40.6223Z" fill="#FF6A3D"/>
<path d="M16.4132 7.03422C10.7829 8.07965 6.27259 12.6497 5.25703 18.295C4.67458 21.5657 5.22716 24.6721 6.58621 27.3006C6.73556 27.5843 6.76543 27.9129 6.66089 28.2265L4.85379 33.6329C4.54016 34.5887 5.43624 35.4848 6.39206 35.1711L11.8133 33.364C12.112 33.2595 12.4555 33.2894 12.7393 33.4387C15.3529 34.7679 18.4443 35.3205 21.7001 34.738C27.3305 33.7225 31.8855 29.2271 32.9459 23.6117C34.7978 13.6951 26.3 5.19726 16.4132 7.03422ZM19.9975 25.2545H12.9932C12.3062 25.2545 11.7387 24.7019 11.7387 24C11.7387 23.313 12.2913 22.7455 12.9932 22.7455H19.9975C20.6845 22.7455 21.2521 23.2981 21.2521 24C21.2521 24.687 20.6845 25.2545 19.9975 25.2545ZM25.0007 20.2514H12.9932C12.3062 20.2514 11.7387 19.6988 11.7387 18.9969C11.7387 18.3099 12.2913 17.7424 12.9932 17.7424H25.0007C25.6876 17.7424 26.2552 18.295 26.2552 18.9969C26.2552 19.6839 25.6876 20.2514 25.0007 20.2514Z" fill="#1446A0"/>
</svg>
