<svg width="48" height="48" viewBox="0 0 48 48" fill="none" xmlns="http://www.w3.org/2000/svg">
<g clip-path="url(#clip0_1186_2159)">
<path d="M48 0H0V48H48V0Z" fill="white"/>
<path d="M24.5226 25.9863C24.1194 25.9863 23.7311 26.1357 23.4175 26.4493C22.8052 27.0616 22.8052 28.0473 23.4175 28.6596C23.7162 28.9583 24.1194 29.1226 24.5226 29.1226C24.9259 29.1226 25.3142 28.9732 25.6278 28.6596C26.2401 28.0473 26.2401 27.0616 25.6278 26.4493C25.3291 26.1357 24.9259 25.9863 24.5226 25.9863ZM24.5077 17.145C18.8923 17.145 14.3223 21.7001 14.3223 27.3304C14.3223 32.9459 18.8773 37.5159 24.5077 37.5159C30.1231 37.5159 34.6931 32.9608 34.6931 27.3304C34.6782 21.7001 30.1231 17.145 24.5077 17.145ZM29.8543 24.7617L27.9128 26.509C28.0173 26.8376 28.0771 27.1811 28.0771 27.5395C28.0771 28.4953 27.7037 29.3914 27.0317 30.0635C26.3596 30.7355 25.4635 31.1089 24.5077 31.1089C23.5519 31.1089 22.6558 30.7355 21.9837 30.0635C21.3117 29.3914 20.9383 28.4953 20.9383 27.5395C20.9383 26.5837 21.3117 25.6876 21.9837 25.0156C22.6558 24.3435 23.5519 23.9701 24.5077 23.9701C25.0005 23.9701 25.4635 24.0747 25.8966 24.2539L27.8232 22.5215C28.4355 21.9689 29.3913 22.0137 29.9439 22.626C30.5264 23.2533 30.4666 24.2091 29.8543 24.7617Z" fill="#FF6A3D"/>
<path d="M27.3454 11.4101V10.4543H29.4362C29.705 10.4543 29.9291 10.2302 29.9291 9.96142V6.51152C29.9291 5.95893 29.481 5.51089 28.9284 5.51089H20.0423C19.4897 5.51089 19.0417 5.95893 19.0417 6.51152V9.96142C19.0417 10.2302 19.2657 10.4543 19.5345 10.4543H21.6254V11.4101C18.7579 11.9179 16.1593 13.1873 14.0236 14.9944L12.799 13.7399C12.4107 13.3516 11.7685 13.3516 11.3802 13.7399L8.93092 16.1892C8.54262 16.5775 8.54262 17.2197 8.93092 17.608L10.5289 19.206C9.12508 21.5955 8.3186 24.3734 8.3186 27.3304C8.3186 36.2464 15.5768 43.5047 24.4928 43.5047C33.4088 43.5047 40.6671 36.2464 40.6671 27.3304C40.682 19.3703 34.9172 12.7542 27.3454 11.4101ZM24.5078 39.995C17.5184 39.995 11.8282 34.3049 11.8282 27.3155C11.8282 20.3261 17.5184 14.636 24.5078 14.636C31.4972 14.636 37.1873 20.3261 37.1873 27.3155C37.1873 34.3049 31.4972 39.995 24.5078 39.995Z" fill="#1446A0"/>
</g>
<defs>
<clipPath id="clip0_1186_2159">
<rect width="48" height="48" fill="white"/>
</clipPath>
</defs>
</svg>
