<svg width="48" height="48" viewBox="0 0 48 48" fill="none" xmlns="http://www.w3.org/2000/svg">
<g clip-path="url(#clip0_1186_2168)">
<path d="M48 0H0V48H48V0Z" fill="white"/>
<path d="M34.3798 9.88675C33.9018 8.45302 32.5727 7.4972 31.0643 7.4972H17.9516C16.4432 7.4972 15.114 8.45302 14.6361 9.88675L12.2466 16.9956H15.4127L17.4737 10.8426C17.5484 10.6335 17.7276 10.4991 17.9516 10.4991H31.0643C31.2733 10.4991 31.4675 10.6335 31.5422 10.8426L33.5882 16.9956H36.7544L34.3798 9.88675Z" fill="#FF6A3D"/>
<path d="M41.0106 19.5047H8.00502C7.45243 19.5047 7.00439 19.9527 7.00439 20.5053V25.5084C7.00439 26.061 7.45243 26.509 8.00502 26.509H9.7225L11.7536 39.8158C11.903 40.7866 12.7393 41.5184 13.725 41.5184H35.2906C36.2763 41.5184 37.1127 40.8015 37.262 39.8158L39.2931 26.509H41.0106C41.5632 26.509 42.0112 26.061 42.0112 25.5084V20.5053C42.0112 19.9527 41.5632 19.5047 41.0106 19.5047ZM18.9969 36.0075C18.9969 36.8289 18.3249 37.5009 17.5035 37.5009C16.6821 37.5009 16.01 36.8289 16.01 36.0075V29.5109C16.01 28.6895 16.6821 28.0174 17.5035 28.0174C18.3249 28.0174 18.9969 28.6895 18.9969 29.5109V36.0075ZM26.0013 36.0075C26.0013 36.8289 25.3292 37.5009 24.5078 37.5009C23.6864 37.5009 23.0144 36.8289 23.0144 36.0075V29.5109C23.0144 28.6895 23.6864 28.0174 24.5078 28.0174C25.3292 28.0174 26.0013 28.6895 26.0013 29.5109V36.0075ZM33.0056 36.0075C33.0056 36.8289 32.3336 37.5009 31.5122 37.5009C30.6908 37.5009 30.0187 36.8289 30.0187 36.0075V29.5109C30.0187 28.6895 30.6908 28.0174 31.5122 28.0174C32.3336 28.0174 33.0056 28.6895 33.0056 29.5109V36.0075Z" fill="#1446A0"/>
</g>
<defs>
<clipPath id="clip0_1186_2168">
<rect width="48" height="48" fill="white"/>
</clipPath>
</defs>
</svg>
