<svg width="48" height="48" viewBox="0 0 48 48" fill="none" xmlns="http://www.w3.org/2000/svg">
<path d="M34.1706 22.178H40.5029V16.5028C40.5029 15.3976 39.6068 14.5016 38.5017 14.5016H14.0088C13.1874 14.5016 12.5154 13.8295 12.5154 13.0081C12.5154 12.1867 13.1874 11.5146 14.0088 11.5146H37.516V9.49845C37.516 8.39329 36.6199 7.49721 35.5147 7.49721H11.4998C9.28947 7.49721 7.49731 9.28937 7.49731 11.4997V37.5009C7.49731 39.7113 9.28947 41.5034 11.4998 41.5034H38.5017C39.6068 41.5034 40.5029 40.6073 40.5029 39.5022V34.514H34.1706C30.7655 34.514 28.0026 31.7511 28.0026 28.346C28.0026 24.9409 30.7655 22.178 34.1706 22.178Z" fill="#1446A0"/>
<path d="M41.0106 24.6721H34.1705C32.1394 24.6721 30.4966 26.3149 30.4966 28.346C30.4966 30.3771 32.1394 32.0199 34.1705 32.0199H41.0106C41.2794 32.0199 41.5034 31.7959 41.5034 31.5271V25.1948C41.5034 24.8961 41.2794 24.6721 41.0106 24.6721ZM35.0068 29.8395C34.1854 29.8395 33.5134 29.1674 33.5134 28.346C33.5134 27.5246 34.1854 26.8525 35.0068 26.8525C35.8283 26.8525 36.5003 27.5246 36.5003 28.346C36.5003 29.1674 35.8283 29.8395 35.0068 29.8395Z" fill="#FF6A3D"/>
</svg>
