<svg width="48" height="48" viewBox="0 0 48 48" fill="none" xmlns="http://www.w3.org/2000/svg">
<g clip-path="url(#clip0_1186_2191)">
<path d="M48 0H0V48H48V0Z" fill="white"/>
<path d="M40.4282 24.0448C39.4276 25.135 38.4269 26.0311 37.6055 26.7181C37.501 34.1108 31.8407 40.1742 24.6124 40.921V12.0821C24.6572 12.0821 24.687 12.0971 24.7318 12.0971C24.8812 11.0815 25.1649 10.1108 25.5981 9.19975C24.7916 9.08027 23.9702 9.0056 23.1189 9.0056C13.4711 9.0056 5.61548 16.8612 5.61548 26.509C5.61548 36.1568 13.4711 44.0124 23.1189 44.0124C32.7667 44.0124 40.6223 36.1568 40.6223 26.509C40.6223 25.6577 40.5476 24.8513 40.4282 24.0448ZM16.2191 13.7548C14.4269 16.7119 13.2919 20.8339 13.1425 25.5084H8.66215C9.02058 20.4306 11.9776 16.0548 16.2191 13.7548ZM8.78163 28.4953H13.1874C13.4562 32.7517 14.5613 36.5003 16.2191 39.2483C12.2614 37.0977 9.42382 33.14 8.78163 28.4953ZM21.6254 40.6521C18.6833 39.2632 16.6373 33.8867 16.2191 28.4953H21.6254V40.6521ZM21.6254 25.5084H16.1444C16.3684 19.8034 18.4892 13.8444 21.6254 12.351V25.5084Z" fill="#1446A0"/>
<path d="M34.992 5.00311C34.6933 5.00311 34.3797 5.01805 34.081 5.04792C29.6305 5.52583 26.2702 9.81207 26.6585 14.2626C27.1663 20.117 32.5427 24.463 34.3797 25.8071C34.5589 25.9415 34.768 26.0012 34.9771 26.0012C35.2011 26.0012 35.4102 25.9266 35.5894 25.7922C37.501 24.2987 43.3704 19.2358 43.3704 13.3815C43.3853 8.75171 39.6218 5.00311 34.992 5.00311ZM34.992 17.2943C32.8265 17.2943 31.0791 15.547 31.0791 13.3815C31.0791 11.2159 32.8265 9.46858 34.992 9.46858C37.1575 9.46858 38.9049 11.2159 38.9049 13.3815C38.9049 15.547 37.1575 17.2943 34.992 17.2943Z" fill="#FF6A3D"/>
</g>
<defs>
<clipPath id="clip0_1186_2191">
<rect width="48" height="48" fill="white"/>
</clipPath>
</defs>
</svg>
