<svg width="22" height="18" viewBox="0 0 22 18" fill="none" xmlns="http://www.w3.org/2000/svg">
<g clip-path="url(#clip0_0_1069)">
<path d="M1 1.7251H21V16.7251H1V1.7251Z" fill="#DE2910"/>
<path d="M3.39999 7.2751L4.74997 3.2251L6.09996 7.2751L2.5 4.8001H6.99994L3.39999 7.2751Z" fill="#FFDE00"/>
<path d="M9.25534 3.30274L7.86604 3.61062L8.79275 2.53073L8.70186 3.98412L7.93089 2.69743L9.25534 3.30274Z" fill="#FFDE00"/>
<path d="M10.6575 5.07969L9.25754 4.82464L10.5305 4.18869L9.88309 5.49307L9.67148 4.00808L10.6575 5.07969Z" fill="#FFDE00"/>
<path d="M10.4531 7.57276L9.27891 6.7689L10.7006 6.70745L9.57745 7.63435L9.98989 6.19217L10.4531 7.57276Z" fill="#FFDE00"/>
<path d="M8.68715 9.20137L7.91452 8.00637L9.24962 8.49879L7.85564 8.91997L8.79308 7.74899L8.68715 9.20137Z" fill="#FFDE00"/>
</g>
<rect x="0.5" y="1.2251" width="21" height="16" stroke="#EAEFF1"/>
<defs>
<clipPath id="clip0_0_1069">
<rect x="1" y="1.7251" width="20" height="15" fill="white"/>
</clipPath>
</defs>
</svg>
