<svg width="22" height="18" viewBox="0 0 22 18" fill="none" xmlns="http://www.w3.org/2000/svg">
<g clip-path="url(#clip0_0_1033)">
<path fill-rule="evenodd" clip-rule="evenodd" d="M1 1.7251H29.5V2.87941H1V1.7251ZM1 4.03369H29.5V5.188H1V4.03369ZM1 6.33935H29.5V7.49657H1V6.33935ZM1 8.64794H29.5V9.80225H1V8.64794ZM1 10.9565H29.5V12.1108H1V10.9565ZM1 13.2622H29.5V14.4165H1V13.2622ZM1 15.5708H29.5V16.7251H1V15.5708Z" fill="#BD3D44"/>
<path fill-rule="evenodd" clip-rule="evenodd" d="M1 2.87939H29.5V4.03368H1V2.87939ZM1 5.18796H29.5V6.33933H1V5.18796ZM1 7.49364H29.5V8.64793H1V7.49364ZM1 9.80224H29.5V10.9565H1V9.80224ZM1 12.1108H29.5V13.2651H1V12.1108ZM1 14.4165H29.5V15.5708H1V14.4165Z" fill="white"/>
<path fill-rule="evenodd" clip-rule="evenodd" d="M1 1.7251H12.3994V9.80225H1V1.7251Z" fill="#192F5D"/>
<path fill-rule="evenodd" clip-rule="evenodd" d="M1.9492 2.0708L2.05467 2.39008H2.38867L2.11911 2.58639L2.22167 2.90864L1.9492 2.70943L1.67967 2.90571L1.7822 2.58639L1.50977 2.39008H1.84961L1.9492 2.0708ZM3.85058 2.0708L3.95311 2.39008H4.29002L4.01755 2.58639L4.12011 2.90864L3.85058 2.70943L3.57811 2.90571L3.68064 2.58639L3.41111 2.39008H3.74511L3.85058 2.0708ZM5.74902 2.0708L5.85448 2.39011H6.18555L5.91602 2.58643L6.01852 2.90868L5.74608 2.70946L5.47655 2.90574L5.57908 2.58643L5.30661 2.39011H5.64355L5.74902 2.0708ZM7.65039 2.0708L7.75289 2.39011H8.08983L7.81736 2.58643L7.92283 2.90868L7.65036 2.70946L7.37792 2.90574L7.48339 2.58643L7.21092 2.39011H7.54492L7.65039 2.0708ZM9.54883 2.0708L9.6543 2.39011H9.98827L9.71873 2.58643L9.82127 2.90868L9.5488 2.70946L9.27927 2.90574L9.38183 2.58643L9.1123 2.39011H9.44627L9.54883 2.0708ZM11.4502 2.0708L11.5527 2.39011H11.8896L11.6172 2.58643L11.7226 2.90868L11.4502 2.70946L11.1777 2.90574L11.2832 2.58643L11.0107 2.39011H11.3476L11.4502 2.0708ZM2.90136 2.87933L3.00389 3.19871H3.3408L3.06833 3.39496L3.16795 3.71433L2.90427 3.51802L2.63183 3.7143L2.72848 3.39499L2.46483 3.19868H2.79883L2.90136 2.87933ZM4.7998 2.87933L4.90527 3.19871H5.23923L4.96677 3.39496L5.07227 3.71433L4.79977 3.51802L4.52733 3.7143L4.6328 3.39499L4.36033 3.19868H4.69723L4.7998 2.87933ZM6.70117 2.87933L6.80367 3.19871H7.14061L6.86814 3.39496L6.97067 3.71433L6.70114 3.51802L6.4287 3.7143L6.53123 3.39502L6.2617 3.19871H6.5957L6.70117 2.87933ZM8.59961 2.87933L8.70508 3.19871H9.03905L8.76658 3.39496L8.87205 3.71433L8.59958 3.51802L8.33005 3.7143L8.43261 3.39499L8.16014 3.19868H8.49998L8.59961 2.87933ZM10.501 2.87933L10.6035 3.19871H10.9404L10.668 3.39496L10.7705 3.71433L10.501 3.51802L10.2285 3.7143L10.331 3.39499L10.0615 3.19868H10.3955L10.501 2.87933ZM1.9492 3.68508L2.05467 4.01027H2.38867L2.11911 4.20655L2.22167 4.52589L1.9492 4.32668L1.67967 4.52589L1.7822 4.20361L1.50977 4.00736H1.84961L1.9492 3.68508ZM3.85058 3.68508L3.95311 4.00727H4.29002L4.01755 4.20355L4.12011 4.52293L3.85058 4.32368L3.57811 4.52289L3.68064 4.20064L3.41111 4.00436H3.74511L3.85058 3.68508ZM5.74902 3.68508L5.85448 4.00733H6.18555L5.91602 4.20361L6.01852 4.52299L5.74608 4.32374L5.47655 4.52296L5.57908 4.20071L5.30661 4.00443H5.64355L5.74902 3.68508ZM7.65039 3.68508L7.75289 4.00733H8.08983L7.81736 4.20361L7.92283 4.52299L7.65036 4.32374L7.37792 4.52296L7.48339 4.20071L7.21092 4.00443H7.54492L7.65039 3.68508ZM9.54883 3.68508L9.6543 4.00733H9.98827L9.71873 4.20358L9.82127 4.52296L9.5488 4.32371L9.27927 4.52293L9.38183 4.20068L9.1123 4.00439H9.44627L9.54883 3.68508ZM11.4502 3.68508L11.5527 4.00733H11.8896L11.6172 4.20361L11.7226 4.52299L11.4502 4.32374L11.1777 4.52296L11.2832 4.20071L11.0107 4.00443H11.3476L11.4502 3.68508ZM2.90136 4.49364L3.00389 4.81299H3.3408L3.06833 5.00924L3.17089 5.33152L2.90136 5.1323L2.62889 5.32858L2.73142 5.00927L2.46189 4.81299H2.79592L2.90136 4.49364ZM4.7998 4.49364L4.90527 4.81299H5.23923L4.96677 5.00924L5.07227 5.33152L4.79977 5.1323L4.52733 5.32858L4.6328 5.00927L4.36033 4.81299H4.69723L4.7998 4.49364ZM6.70117 4.49364L6.80367 4.81299H7.14061L6.86814 5.00924L6.97067 5.33152L6.70114 5.1323L6.4287 5.32858L6.53123 5.00927L6.2617 4.81299H6.5957L6.70117 4.49364ZM8.59961 4.49364L8.70508 4.81299H9.03905L8.76952 5.00924L8.87205 5.33152L8.59958 5.1323L8.33005 5.32858L8.43261 5.00927L8.16014 4.81299H8.49998L8.59961 4.49364ZM10.501 4.49364L10.6035 4.81299H10.9404L10.668 5.00924L10.7705 5.33152L10.501 5.1323L10.2285 5.32858L10.331 5.00927L10.0615 4.81299H10.3955L10.501 4.49364ZM1.9492 5.30224L2.05467 5.62158H2.38867L2.11911 5.81783L2.22167 6.14011L1.9492 5.94089L1.67967 6.13718L1.7822 5.81786L1.50977 5.62158H1.84961L1.9492 5.30224ZM3.85058 5.30224L3.95311 5.62158H4.29002L4.01755 5.81783L4.12011 6.13721L3.85058 5.94089L3.57811 6.13718L3.68064 5.81786L3.41111 5.62158H3.74511L3.85058 5.30224ZM5.74902 5.30224L5.85448 5.62158H6.18555L5.91602 5.81783L6.01852 6.14011L5.74608 5.94089L5.47655 6.13718L5.57908 5.81786L5.30661 5.62158H5.64355L5.74902 5.30224ZM7.65039 5.30224L7.75289 5.62158H8.08983L7.81736 5.81783L7.92283 6.14011L7.65036 5.94089L7.37792 6.13718L7.48339 5.81786L7.21092 5.62158H7.54492L7.65039 5.30224ZM9.54883 5.30224L9.6543 5.62158H9.98827L9.71873 5.81783L9.82127 6.14011L9.5488 5.94089L9.27927 6.13718L9.38183 5.81786L9.1123 5.62158H9.44627L9.54883 5.30224ZM11.4502 5.30224L11.5527 5.62158H11.8896L11.6172 5.81783L11.7226 6.14011L11.4502 5.94089L11.1777 6.13718L11.2832 5.81786L11.0107 5.62158H11.3476L11.4502 5.30224ZM2.90136 6.11083L3.00389 6.43018H3.3408L3.06833 6.62643L3.17089 6.9458L2.90136 6.74658L2.62889 6.9458L2.73142 6.62352L2.46189 6.42724H2.79592L2.90136 6.11083ZM4.7998 6.11083L4.90527 6.43018H5.23923L4.96677 6.62643L5.07227 6.9458L4.79977 6.74658L4.52733 6.9458L4.6328 6.62352L4.36033 6.42724H4.69723L4.7998 6.11083ZM6.70117 6.11083L6.80367 6.43018H7.14061L6.86814 6.62643L6.97067 6.9458L6.70114 6.74658L6.4287 6.9458L6.53123 6.62352L6.2617 6.42724H6.5957L6.70117 6.11083ZM8.59961 6.11083L8.70508 6.43018H9.03905L8.76952 6.62643L8.87205 6.9458L8.59958 6.74658L8.33005 6.9458L8.43261 6.62352L8.16014 6.42724H8.49998L8.59961 6.11083ZM10.501 6.11083L10.6035 6.43018H10.9404L10.668 6.62643L10.7705 6.9458L10.501 6.74658L10.2285 6.9458L10.331 6.62352L10.0615 6.42724H10.3955L10.501 6.11083ZM1.9492 6.91649L2.05467 7.23877H2.38867L2.11911 7.43502L2.22167 7.75146L1.9492 7.55518L1.67967 7.75143L1.7822 7.43211L1.50977 7.23583H1.84961L1.9492 6.91649ZM3.85058 6.91649L3.95311 7.23877H4.29002L4.01755 7.43502L4.12305 7.75146L3.85055 7.55518L3.57811 7.75143L3.68358 7.43211L3.41111 7.23583H3.74511L3.85058 6.91649ZM5.74902 6.91649L5.85448 7.23877H6.18555L5.91602 7.43502L6.01852 7.75146L5.74608 7.55518L5.47655 7.75143L5.57908 7.43211L5.30661 7.23583H5.64355L5.74902 6.91649ZM7.65039 6.91649L7.75289 7.23877H8.08983L7.81736 7.43502L7.92283 7.75146L7.65036 7.55518L7.37792 7.75143L7.48339 7.43211L7.21092 7.23583H7.54492L7.65039 6.91649ZM9.54883 6.91649L9.6543 7.23877H9.98827L9.71873 7.43502L9.82127 7.75146L9.5488 7.55518L9.27927 7.75143L9.38183 7.43211L9.1123 7.23583H9.44627L9.54883 6.91649ZM11.4502 6.91649L11.5527 7.23877H11.8896L11.6172 7.43502L11.7226 7.75146L11.4502 7.55518L11.1777 7.75143L11.2832 7.43211L11.0107 7.23583H11.3476L11.4502 6.91649ZM2.90136 7.72508L3.00389 8.04443H3.3408L3.06833 8.24071L3.17089 8.56299L2.90136 8.36377L2.62889 8.56002L2.73142 8.24071L2.46189 8.04443H2.79592L2.90136 7.72508ZM4.7998 7.72508L4.90527 8.04443H5.23923L4.96677 8.24071L5.07227 8.56299L4.79977 8.36377L4.52733 8.56002L4.6328 8.24071L4.36033 8.04443H4.69723L4.7998 7.72508ZM6.70117 7.72508L6.80367 8.04443H7.14061L6.86814 8.24071L6.97067 8.56299L6.70114 8.36377L6.4287 8.56002L6.53123 8.24071L6.2617 8.04443H6.5957L6.70117 7.72508ZM8.59961 7.72508L8.70508 8.04443H9.03905L8.76952 8.24071L8.87205 8.56299L8.59958 8.36377L8.33005 8.56002L8.43261 8.24071L8.16014 8.04443H8.49998L8.59961 7.72508ZM10.501 7.72508L10.6035 8.04443H10.9404L10.668 8.24071L10.7705 8.56299L10.501 8.36377L10.2285 8.56002L10.331 8.24071L10.0615 8.04443H10.3955L10.501 7.72508ZM1.9492 8.53368L2.05467 8.85302H2.38867L2.11911 9.0493L2.22167 9.36864L1.9492 9.17236L1.67967 9.36861L1.7822 9.04636L1.50977 8.85008H1.84961L1.9492 8.53368ZM3.85058 8.53368L3.95311 8.85302H4.29002L4.01755 9.0493L4.12305 9.36864L3.85055 9.17236L3.57811 9.36861L3.68358 9.04636L3.41111 8.85008H3.74511L3.85058 8.53368ZM5.74902 8.53368L5.85448 8.85302H6.18555L5.92186 9.0493L6.02439 9.36864L5.75192 9.17236L5.48239 9.36861L5.58495 9.04636L5.31248 8.85008H5.64939L5.74902 8.53368ZM7.65039 8.53368L7.75289 8.85302H8.08983L7.81736 9.0493L7.92283 9.36864L7.65036 9.17236L7.37792 9.36861L7.48339 9.04636L7.21092 8.85008H7.54492L7.65039 8.53368ZM9.54883 8.53368L9.6543 8.85302H9.98827L9.71873 9.0493L9.82127 9.36864L9.5488 9.17236L9.27927 9.36861L9.38183 9.04636L9.1123 8.85008H9.44627L9.54883 8.53368ZM11.4502 8.53368L11.5527 8.85302H11.8896L11.6172 9.0493L11.7226 9.36864L11.4502 9.17236L11.1777 9.36861L11.2832 9.04636L11.0107 8.85008H11.3476L11.4502 8.53368Z" fill="white"/>
</g>
<rect x="0.5" y="1.2251" width="21" height="16" stroke="#EFEFEF"/>
<defs>
<clipPath id="clip0_0_1033">
<rect x="1" y="1.7251" width="20" height="15" fill="white"/>
</clipPath>
</defs>
</svg>
