<svg width="37" height="27" viewBox="0 0 37 27" fill="none" xmlns="http://www.w3.org/2000/svg">
<path d="M0 3.91222H33.1458C35.2744 3.91222 37 5.37186 37 7.17241V23.4733C37 25.2739 35.2744 26.7335 33.1458 26.7335H18.5H3.85417C1.72557 26.7335 0 25.2739 0 23.4733V3.91222Z" fill="#FBBC1A"/>
<path d="M0 8.8025V22.1693C0 23.9698 1.72557 25.4295 3.85417 25.4295H33.1458C35.2744 25.4295 37 23.9698 37 22.1693V8.47648C37 6.67593 35.2744 5.2163 33.1458 5.2163H16.9583V6.84639C16.9583 7.92672 15.923 8.8025 14.6458 8.8025H0Z" fill="url(#paint0_linear_394_2753)"/>
<path d="M0 2.60815C0 1.16771 1.38046 0 3.08333 0H13.875C15.5779 0 16.9583 1.16771 16.9583 2.60815V3.91222H0V2.60815Z" fill="#FBBC1A"/>
<defs>
<linearGradient id="paint0_linear_394_2753" x1="0" y1="0" x2="44.2885" y2="31.3712" gradientUnits="userSpaceOnUse">
<stop stop-color="#FFE69C"/>
<stop offset="1" stop-color="#FFC937"/>
</linearGradient>
</defs>
</svg>
