<svg width="48" height="48" viewBox="0 0 48 48" fill="none" xmlns="http://www.w3.org/2000/svg">
<g filter="url(#filter0_ii_394_2796)">
<path fill-rule="evenodd" clip-rule="evenodd" d="M30.1401 3.97095L40.0676 13.8984V7.14072C40.0676 7.14307 40.0676 7.14541 40.0676 7.14776V40.5043C40.0676 42.2588 38.6453 43.6811 36.8908 43.6811H11.0792C9.32465 43.6811 7.90234 42.2588 7.90234 40.5043V7.14775C7.90234 5.39325 9.32465 3.97095 11.0792 3.97095H30.1401Z" fill="#4876F9"/>
</g>
<g filter="url(#filter1_dd_394_2796)">
<path d="M22.855 23.4288C23.5525 23.4288 24.2097 23.5784 24.8311 23.8758C25.297 24.0957 25.7176 24.395 26.0964 24.7717C26.4657 25.1381 26.7688 25.5657 26.9923 26.0355C26.6933 26.3348 26.3334 26.4825 25.9127 26.4825C25.7613 26.4815 25.6109 26.4592 25.4657 26.4162C25.2109 26.0033 24.8631 25.6556 24.4501 25.4009C23.9712 25.1061 23.4194 24.9513 22.857 24.9539C22.4592 24.9539 22.0728 25.0296 21.6995 25.1812C21.3239 25.3343 20.9831 25.5618 20.6975 25.8498L18.4053 28.1421C18.1171 28.4277 17.8895 28.7686 17.7364 29.1443C17.5864 29.5117 17.5092 29.9048 17.5091 30.3016C17.5091 30.6994 17.585 31.0859 17.7364 31.4592C17.8884 31.8355 18.116 32.1766 18.4053 32.4613C18.6907 32.7497 19.0316 32.9771 19.4075 33.13C19.7748 33.2796 20.1689 33.3573 20.5667 33.3573C20.9646 33.3573 21.351 33.2816 21.7243 33.13C22.0999 32.9769 22.4407 32.7494 22.7262 32.4613L24.331 30.8568C24.8405 30.995 25.3672 31.0653 25.9127 31.0653C25.9998 31.0653 26.1229 31.0613 26.282 31.0539C26.2218 31.1204 26.1606 31.186 26.0984 31.2507L23.8061 33.5429C23.3648 33.9845 22.8647 34.3178 22.3038 34.5451C21.189 35.0002 19.94 34.9995 18.8257 34.5431C18.263 34.3137 17.7521 33.9736 17.3234 33.5429C16.8821 33.1017 16.5488 32.6016 16.3215 32.0426C16.096 31.4906 15.9802 30.8999 15.9805 30.3036C15.9805 29.7069 16.0959 29.1158 16.3215 28.5645C16.5488 28.0056 16.8821 27.5055 17.3234 27.0642L19.6157 24.772C19.6594 24.7283 19.7256 24.6677 19.8127 24.5863C20.2307 24.2131 20.7145 23.9208 21.2393 23.7244C21.7561 23.5307 22.3032 23.4307 22.855 23.429V23.4288ZM28.203 18.0828C28.7999 18.0828 29.3908 18.1984 29.9421 18.4238C30.501 18.6492 31.0011 18.9847 31.4443 19.426C31.8859 19.8673 32.2212 20.3674 32.4465 20.9263C32.672 21.4783 32.7872 22.0691 32.7856 22.6653C32.7856 23.262 32.6701 23.8418 32.4428 24.4044C32.2138 24.9667 31.8736 25.477 31.4426 25.9047L29.1503 28.197C29.1067 28.2424 29.0404 28.3032 28.9533 28.3826C28.5359 28.7567 28.052 29.049 27.5267 29.2446C27.0097 29.4398 26.4616 29.5398 25.909 29.5399C25.2251 29.5423 24.5495 29.3896 23.9332 29.0932C23.4671 28.8733 23.0464 28.574 22.6674 28.1972C22.2981 27.8308 21.995 27.4032 21.7714 26.9334C22.069 26.6341 22.4291 26.4864 22.8513 26.4864C22.9992 26.4864 23.1489 26.509 23.2986 26.5527C23.5526 26.9655 23.8996 27.3132 24.3119 27.5681C24.791 27.8626 25.3429 28.0174 25.9053 28.015C26.3029 28.015 26.6896 27.9393 27.0626 27.7877C27.4385 27.6351 27.7795 27.4076 28.0648 27.1191L30.357 24.8268C30.6458 24.5417 30.8733 24.2007 31.0257 23.8246C31.1753 23.4573 31.253 23.0652 31.253 22.6673C31.253 22.2695 31.1773 21.8831 31.0257 21.5098C30.873 21.1338 30.6456 20.7929 30.357 20.5076C30.0716 20.2193 29.7307 19.9918 29.3548 19.839C28.9873 19.6892 28.5942 19.612 28.1973 19.6116C27.7994 19.6116 27.413 19.6873 27.04 19.839C26.664 19.9916 26.3231 20.2191 26.0378 20.5076L24.4313 22.1121C23.9157 21.9727 23.3837 21.9025 22.8496 21.9037C22.7622 21.9037 22.6391 21.9076 22.48 21.9151C22.5406 21.8488 22.6014 21.7825 22.6657 21.7183L24.9579 19.426C25.3856 18.995 25.8959 18.6548 26.4582 18.4258C27.0249 18.1965 27.6044 18.0808 28.203 18.0828V18.0828Z" fill="white"/>
</g>
<path d="M39.1357 12.9678L31.0703 12.9678L40.0671 21.9646V13.8985L39.1357 12.9678Z" fill="url(#paint0_linear_394_2796)"/>
<path d="M33.3196 13.8984L40.0703 13.8984L30.1428 3.9709L30.1428 10.7216C30.1428 12.4761 31.5651 13.8984 33.3196 13.8984Z" fill="#B5C8FC"/>
<defs>
<filter id="filter0_ii_394_2796" x="7.90234" y="3.7724" width="32.1641" height="40.1073" filterUnits="userSpaceOnUse" color-interpolation-filters="sRGB">
<feFlood flood-opacity="0" result="BackgroundImageFix"/>
<feBlend mode="normal" in="SourceGraphic" in2="BackgroundImageFix" result="shape"/>
<feColorMatrix in="SourceAlpha" type="matrix" values="0 0 0 0 0 0 0 0 0 0 0 0 0 0 0 0 0 0 127 0" result="hardAlpha"/>
<feOffset dy="-0.397101"/>
<feGaussianBlur stdDeviation="0.0992754"/>
<feComposite in2="hardAlpha" operator="arithmetic" k2="-1" k3="1"/>
<feColorMatrix type="matrix" values="0 0 0 0 0 0 0 0 0 0 0 0 0 0 0 0 0 0 0.3 0"/>
<feBlend mode="normal" in2="shape" result="effect1_innerShadow_394_2796"/>
<feColorMatrix in="SourceAlpha" type="matrix" values="0 0 0 0 0 0 0 0 0 0 0 0 0 0 0 0 0 0 127 0" result="hardAlpha"/>
<feOffset dy="0.397101"/>
<feGaussianBlur stdDeviation="0.0992754"/>
<feComposite in2="hardAlpha" operator="arithmetic" k2="-1" k3="1"/>
<feColorMatrix type="matrix" values="0 0 0 0 1 0 0 0 0 1 0 0 0 0 1 0 0 0 0.3 0"/>
<feBlend mode="normal" in2="effect1_innerShadow_394_2796" result="effect2_innerShadow_394_2796"/>
</filter>
<filter id="filter1_dd_394_2796" x="15.7819" y="17.8842" width="18.5916" height="18.9873" filterUnits="userSpaceOnUse" color-interpolation-filters="sRGB">
<feFlood flood-opacity="0" result="BackgroundImageFix"/>
<feColorMatrix in="SourceAlpha" type="matrix" values="0 0 0 0 0 0 0 0 0 0 0 0 0 0 0 0 0 0 127 0" result="hardAlpha"/>
<feOffset dx="0.794203" dy="1.1913"/>
<feGaussianBlur stdDeviation="0.397101"/>
<feColorMatrix type="matrix" values="0 0 0 0 0 0 0 0 0 0 0 0 0 0 0 0 0 0 0.1 0"/>
<feBlend mode="normal" in2="BackgroundImageFix" result="effect1_dropShadow_394_2796"/>
<feColorMatrix in="SourceAlpha" type="matrix" values="0 0 0 0 0 0 0 0 0 0 0 0 0 0 0 0 0 0 127 0" result="hardAlpha"/>
<feOffset/>
<feGaussianBlur stdDeviation="0.0992754"/>
<feColorMatrix type="matrix" values="0 0 0 0 0 0 0 0 0 0 0 0 0 0 0 0 0 0 0.4 0"/>
<feBlend mode="normal" in2="effect1_dropShadow_394_2796" result="effect2_dropShadow_394_2796"/>
<feBlend mode="normal" in="SourceGraphic" in2="effect2_dropShadow_394_2796" result="shape"/>
</filter>
<linearGradient id="paint0_linear_394_2796" x1="33.0868" y1="10.9512" x2="42.0837" y2="19.9481" gradientUnits="userSpaceOnUse">
<stop stop-opacity="0.2"/>
<stop offset="1" stop-opacity="0"/>
</linearGradient>
</defs>
</svg>
