<svg width="45" height="45" viewBox="0 0 45 45" fill="none" xmlns="http://www.w3.org/2000/svg">
<g filter="url(#filter0_ii_394_2751)">
<path fill-rule="evenodd" clip-rule="evenodd" d="M10.2634 3.73267C8.61426 3.73267 7.27734 5.06959 7.27734 6.71876V38.0727C7.27734 39.7219 8.61426 41.0588 10.2634 41.0588H34.5254C36.1746 41.0588 37.5115 39.7219 37.5115 38.0727V13.0636L28.1806 3.73267H34.529C34.5278 3.73267 34.5266 3.73267 34.5254 3.73267H10.2634Z" fill="#FA4E4E"/>
</g>
<path d="M28.4565 28.8706C27.197 28.777 25.9843 28.3093 25.0047 27.4673C23.0922 27.8882 21.2728 28.4961 19.4536 29.2448C18.0077 31.8172 16.6549 33.1269 15.4887 33.1269C15.2554 33.1269 14.9757 33.0803 14.789 32.9398C14.2758 32.7061 13.9961 32.1914 13.9961 31.677C13.9961 31.2559 14.0894 30.0867 18.5207 28.1688C19.5472 26.2979 20.3399 24.3802 20.9931 22.369C20.4332 21.2465 19.2206 18.4867 20.06 17.0837C20.3399 16.569 20.8998 16.2884 21.5064 16.3353C21.9727 16.3353 22.439 16.569 22.719 16.9432C23.3255 17.7852 23.2789 19.5626 22.4857 22.1819C23.2322 23.5832 24.21 24.8483 25.3778 25.9239C26.3576 25.7366 27.3369 25.5964 28.3165 25.5964C30.509 25.643 30.8356 26.6721 30.7889 27.2802C30.7889 28.8706 29.2494 28.8706 28.4565 28.8706V28.8706ZM15.3956 31.7703L15.5356 31.7237C16.1885 31.4899 16.7015 31.0222 17.0748 30.414C16.3749 30.6946 15.8153 31.1624 15.3956 31.7706V31.7703ZM21.5994 17.7385H21.4595C21.4128 17.7385 21.3195 17.7385 21.2728 17.7852C21.0862 18.5802 21.2262 19.4221 21.5528 20.1705C21.8327 19.3755 21.8327 18.5335 21.5994 17.7385V17.7385ZM21.926 24.5207L21.8794 24.614L21.8327 24.5673C21.4128 25.6432 20.9462 26.7189 20.4332 27.748L20.5265 27.7013V27.7946C21.5639 27.4185 22.6232 27.1061 23.6986 26.8591L23.6519 26.8125H23.7919C23.092 26.1108 22.439 25.3157 21.926 24.5207V24.5207ZM28.2699 26.9996C27.8499 26.9996 27.4769 26.9996 27.057 27.0929C27.5236 27.3269 27.9901 27.4204 28.4565 27.4673C28.7831 27.514 29.1097 27.4673 29.3894 27.3738C29.3894 27.2333 29.2028 26.9996 28.2699 26.9996Z" fill="white"/>
<path d="M36.6359 12.1893H29.0547L37.5114 20.646V13.0642L36.6359 12.1893Z" fill="url(#paint0_linear_394_2751)"/>
<path d="M31.1702 13.0642L37.5156 13.0642L28.1841 3.73267L28.1841 10.0781C28.1841 11.7273 29.521 13.0642 31.1702 13.0642Z" fill="#FDB8B8"/>
<defs>
<filter id="filter0_ii_394_2751" x="7.27734" y="3.54604" width="30.2344" height="37.6994" filterUnits="userSpaceOnUse" color-interpolation-filters="sRGB">
<feFlood flood-opacity="0" result="BackgroundImageFix"/>
<feBlend mode="normal" in="SourceGraphic" in2="BackgroundImageFix" result="shape"/>
<feColorMatrix in="SourceAlpha" type="matrix" values="0 0 0 0 0 0 0 0 0 0 0 0 0 0 0 0 0 0 127 0" result="hardAlpha"/>
<feOffset dy="-0.373262"/>
<feGaussianBlur stdDeviation="0.0933154"/>
<feComposite in2="hardAlpha" operator="arithmetic" k2="-1" k3="1"/>
<feColorMatrix type="matrix" values="0 0 0 0 0 0 0 0 0 0 0 0 0 0 0 0 0 0 0.3 0"/>
<feBlend mode="normal" in2="shape" result="effect1_innerShadow_394_2751"/>
<feColorMatrix in="SourceAlpha" type="matrix" values="0 0 0 0 0 0 0 0 0 0 0 0 0 0 0 0 0 0 127 0" result="hardAlpha"/>
<feOffset dy="0.373262"/>
<feGaussianBlur stdDeviation="0.0933154"/>
<feComposite in2="hardAlpha" operator="arithmetic" k2="-1" k3="1"/>
<feColorMatrix type="matrix" values="0 0 0 0 1 0 0 0 0 1 0 0 0 0 1 0 0 0 0.3 0"/>
<feBlend mode="normal" in2="effect1_innerShadow_394_2751" result="effect2_innerShadow_394_2751"/>
</filter>
<linearGradient id="paint0_linear_394_2751" x1="30.9502" y1="10.2939" x2="39.4069" y2="18.7506" gradientUnits="userSpaceOnUse">
<stop stop-opacity="0.2"/>
<stop offset="1" stop-opacity="0"/>
</linearGradient>
</defs>
</svg>
