<svg width="49" height="48" viewBox="0 0 49 48" fill="none" xmlns="http://www.w3.org/2000/svg">
<g filter="url(#filter0_ii_394_2789)">
<path fill-rule="evenodd" clip-rule="evenodd" d="M30.5462 3.97095L40.4738 13.8984V7.12786C40.4738 7.13449 40.4738 7.14112 40.4738 7.14776V40.5043C40.4738 42.2588 39.0515 43.6811 37.297 43.6811H11.4854C9.7309 43.6811 8.30859 42.2588 8.30859 40.5043V7.14775C8.30859 5.39325 9.7309 3.97095 11.4854 3.97095H30.5462Z" fill="#CCCCCC"/>
</g>
<g filter="url(#filter1_dd_394_2789)">
<path d="M19.4297 23.3297C19.4297 22.337 19.6282 21.5428 19.8268 21.0464C20.0253 20.55 20.4224 20.0536 20.9188 19.6565C21.4152 19.1602 21.9116 18.8623 22.6065 18.6638C23.2022 18.4652 23.7978 18.366 24.4927 18.366C25.8826 18.366 26.9746 18.7631 27.9674 19.5573C28.8608 20.3515 29.3572 21.3442 29.3572 22.6348C29.3572 23.2305 29.1587 23.7268 28.9601 24.2232C28.7616 24.7196 28.2652 25.3152 27.471 26.0102C26.6768 26.7051 26.379 27.2015 26.0811 27.4993C25.7833 27.7971 25.684 28.1942 25.4855 28.5913C25.2869 28.9884 25.3862 29.2863 25.3862 30.279H23.4007C23.4007 29.2863 23.5 28.7899 23.5993 28.2935C23.6985 27.7971 23.8971 27.4 24.1949 27.0029C24.4927 26.6058 24.7906 26.1094 25.4855 25.4145C26.1804 24.7196 26.6768 24.2232 26.8753 23.9254C27.0739 23.6276 27.2724 23.1312 27.2724 22.4363C27.2724 21.7413 26.9746 21.245 26.4782 20.7486C25.9819 20.2522 25.2869 19.9544 24.3935 19.9544C22.4079 19.9544 21.4152 21.3442 21.4152 23.3297H19.4297V23.3297ZM25.3862 34.25H23.4007V32.2645H25.3862V34.25Z" fill="white"/>
</g>
<path d="M39.542 12.9678L31.4766 12.9678L40.4734 21.9646V13.8985L39.542 12.9678Z" fill="url(#paint0_linear_394_2789)"/>
<path d="M33.7258 13.8984L40.4766 13.8984L30.549 3.9709L30.549 10.7216C30.549 12.4761 31.9713 13.8984 33.7258 13.8984Z" fill="#EAEAEA"/>
<defs>
<filter id="filter0_ii_394_2789" x="8.30859" y="3.7724" width="32.1641" height="40.1073" filterUnits="userSpaceOnUse" color-interpolation-filters="sRGB">
<feFlood flood-opacity="0" result="BackgroundImageFix"/>
<feBlend mode="normal" in="SourceGraphic" in2="BackgroundImageFix" result="shape"/>
<feColorMatrix in="SourceAlpha" type="matrix" values="0 0 0 0 0 0 0 0 0 0 0 0 0 0 0 0 0 0 127 0" result="hardAlpha"/>
<feOffset dy="-0.397101"/>
<feGaussianBlur stdDeviation="0.0992754"/>
<feComposite in2="hardAlpha" operator="arithmetic" k2="-1" k3="1"/>
<feColorMatrix type="matrix" values="0 0 0 0 0 0 0 0 0 0 0 0 0 0 0 0 0 0 0.3 0"/>
<feBlend mode="normal" in2="shape" result="effect1_innerShadow_394_2789"/>
<feColorMatrix in="SourceAlpha" type="matrix" values="0 0 0 0 0 0 0 0 0 0 0 0 0 0 0 0 0 0 127 0" result="hardAlpha"/>
<feOffset dy="0.397101"/>
<feGaussianBlur stdDeviation="0.0992754"/>
<feComposite in2="hardAlpha" operator="arithmetic" k2="-1" k3="1"/>
<feColorMatrix type="matrix" values="0 0 0 0 1 0 0 0 0 1 0 0 0 0 1 0 0 0 0.3 0"/>
<feBlend mode="normal" in2="effect1_innerShadow_394_2789" result="effect2_innerShadow_394_2789"/>
</filter>
<filter id="filter1_dd_394_2789" x="19.2311" y="18.1674" width="11.7127" height="18.0681" filterUnits="userSpaceOnUse" color-interpolation-filters="sRGB">
<feFlood flood-opacity="0" result="BackgroundImageFix"/>
<feColorMatrix in="SourceAlpha" type="matrix" values="0 0 0 0 0 0 0 0 0 0 0 0 0 0 0 0 0 0 127 0" result="hardAlpha"/>
<feOffset dx="0.794203" dy="1.1913"/>
<feGaussianBlur stdDeviation="0.397101"/>
<feColorMatrix type="matrix" values="0 0 0 0 0 0 0 0 0 0 0 0 0 0 0 0 0 0 0.1 0"/>
<feBlend mode="normal" in2="BackgroundImageFix" result="effect1_dropShadow_394_2789"/>
<feColorMatrix in="SourceAlpha" type="matrix" values="0 0 0 0 0 0 0 0 0 0 0 0 0 0 0 0 0 0 127 0" result="hardAlpha"/>
<feOffset/>
<feGaussianBlur stdDeviation="0.0992754"/>
<feColorMatrix type="matrix" values="0 0 0 0 0 0 0 0 0 0 0 0 0 0 0 0 0 0 0.4 0"/>
<feBlend mode="normal" in2="effect1_dropShadow_394_2789" result="effect2_dropShadow_394_2789"/>
<feBlend mode="normal" in="SourceGraphic" in2="effect2_dropShadow_394_2789" result="shape"/>
</filter>
<linearGradient id="paint0_linear_394_2789" x1="33.4931" y1="10.9512" x2="42.4899" y2="19.9481" gradientUnits="userSpaceOnUse">
<stop stop-opacity="0.2"/>
<stop offset="1" stop-opacity="0"/>
</linearGradient>
</defs>
</svg>
