<svg width="48" height="48" viewBox="0 0 48 48" fill="none" xmlns="http://www.w3.org/2000/svg">
<g filter="url(#filter0_ii_394_2818)">
<path fill-rule="evenodd" clip-rule="evenodd" d="M29.9799 3.97095L39.9074 13.8984V40.5043C39.9074 42.2588 38.4851 43.6811 36.7306 43.6811H10.919C9.1645 43.6811 7.74219 42.2588 7.74219 40.5043V7.14775C7.74219 5.39325 9.16449 3.97095 10.919 3.97095H29.9799Z" fill="#4876F9"/>
</g>
<g filter="url(#filter1_dd_394_2818)">
<path d="M20.8166 33.7536L23.8068 22.7919H23.8619L26.8337 33.7536H28.503L32.2635 20.5996H30.5759L27.6959 31.6351H27.6224L24.6506 20.5996H23.018L20.0278 31.6351H19.9544L17.0744 20.5996H15.3867L19.1473 33.7536H20.8166Z" fill="white"/>
</g>
<path d="M38.9756 12.9678L30.9102 12.9678L39.907 21.9646V13.8985L38.9756 12.9678Z" fill="url(#paint0_linear_394_2818)"/>
<path d="M33.1594 13.8984L39.9102 13.8984L29.9826 3.9709L29.9826 10.7216C29.9826 12.4761 31.4049 13.8984 33.1594 13.8984Z" fill="#B5C8FC"/>
<defs>
<filter id="filter0_ii_394_2818" x="7.74219" y="3.7724" width="32.1641" height="40.1073" filterUnits="userSpaceOnUse" color-interpolation-filters="sRGB">
<feFlood flood-opacity="0" result="BackgroundImageFix"/>
<feBlend mode="normal" in="SourceGraphic" in2="BackgroundImageFix" result="shape"/>
<feColorMatrix in="SourceAlpha" type="matrix" values="0 0 0 0 0 0 0 0 0 0 0 0 0 0 0 0 0 0 127 0" result="hardAlpha"/>
<feOffset dy="-0.397101"/>
<feGaussianBlur stdDeviation="0.0992754"/>
<feComposite in2="hardAlpha" operator="arithmetic" k2="-1" k3="1"/>
<feColorMatrix type="matrix" values="0 0 0 0 0 0 0 0 0 0 0 0 0 0 0 0 0 0 0.3 0"/>
<feBlend mode="normal" in2="shape" result="effect1_innerShadow_394_2818"/>
<feColorMatrix in="SourceAlpha" type="matrix" values="0 0 0 0 0 0 0 0 0 0 0 0 0 0 0 0 0 0 127 0" result="hardAlpha"/>
<feOffset dy="0.397101"/>
<feGaussianBlur stdDeviation="0.0992754"/>
<feComposite in2="hardAlpha" operator="arithmetic" k2="-1" k3="1"/>
<feColorMatrix type="matrix" values="0 0 0 0 1 0 0 0 0 1 0 0 0 0 1 0 0 0 0.3 0"/>
<feBlend mode="normal" in2="effect1_innerShadow_394_2818" result="effect2_innerShadow_394_2818"/>
</filter>
<filter id="filter1_dd_394_2818" x="15.1882" y="20.4011" width="18.662" height="15.3381" filterUnits="userSpaceOnUse" color-interpolation-filters="sRGB">
<feFlood flood-opacity="0" result="BackgroundImageFix"/>
<feColorMatrix in="SourceAlpha" type="matrix" values="0 0 0 0 0 0 0 0 0 0 0 0 0 0 0 0 0 0 127 0" result="hardAlpha"/>
<feOffset dx="0.794203" dy="1.1913"/>
<feGaussianBlur stdDeviation="0.397101"/>
<feColorMatrix type="matrix" values="0 0 0 0 0 0 0 0 0 0 0 0 0 0 0 0 0 0 0.1 0"/>
<feBlend mode="normal" in2="BackgroundImageFix" result="effect1_dropShadow_394_2818"/>
<feColorMatrix in="SourceAlpha" type="matrix" values="0 0 0 0 0 0 0 0 0 0 0 0 0 0 0 0 0 0 127 0" result="hardAlpha"/>
<feOffset/>
<feGaussianBlur stdDeviation="0.0992754"/>
<feColorMatrix type="matrix" values="0 0 0 0 0 0 0 0 0 0 0 0 0 0 0 0 0 0 0.4 0"/>
<feBlend mode="normal" in2="effect1_dropShadow_394_2818" result="effect2_dropShadow_394_2818"/>
<feBlend mode="normal" in="SourceGraphic" in2="effect2_dropShadow_394_2818" result="shape"/>
</filter>
<linearGradient id="paint0_linear_394_2818" x1="32.9267" y1="10.9512" x2="41.9235" y2="19.9481" gradientUnits="userSpaceOnUse">
<stop stop-opacity="0.2"/>
<stop offset="1" stop-opacity="0"/>
</linearGradient>
</defs>
</svg>
