<svg width="48" height="48" viewBox="0 0 48 48" fill="none" xmlns="http://www.w3.org/2000/svg">
<g filter="url(#filter0_ii_394_2761)">
<path fill-rule="evenodd" clip-rule="evenodd" d="M30.1673 3.97095L40.0948 13.8984V7.12191C40.0949 7.13052 40.0949 7.13913 40.0949 7.14776V40.5043C40.0949 42.2588 38.6726 43.6811 36.9181 43.6811H11.1065C9.352 43.6811 7.92969 42.2588 7.92969 40.5043V7.14775C7.92969 5.39325 9.35199 3.97095 11.1065 3.97095H30.1673Z" fill="#32BD7A"/>
</g>
<g filter="url(#filter1_dd_394_2761)">
<path d="M19.557 33.7536L24.0033 27.3717L28.4727 33.7536H30.5915L25.0313 26.0161L30.1912 18.8623H28.0724L24.0033 24.6602L19.9541 18.8623H17.8361L22.9545 26.0161L17.4375 33.7536H19.557Z" fill="white"/>
</g>
<path d="M39.1631 12.9678L31.0977 12.9678L40.0945 21.9646V13.8985L39.1631 12.9678Z" fill="url(#paint0_linear_394_2761)"/>
<path d="M33.3469 13.8984L40.0977 13.8984L30.1701 3.9709L30.1701 10.7216C30.1701 12.4761 31.5924 13.8984 33.3469 13.8984Z" fill="#EBFFEC"/>
<defs>
<filter id="filter0_ii_394_2761" x="7.92969" y="3.7724" width="32.1641" height="40.1073" filterUnits="userSpaceOnUse" color-interpolation-filters="sRGB">
<feFlood flood-opacity="0" result="BackgroundImageFix"/>
<feBlend mode="normal" in="SourceGraphic" in2="BackgroundImageFix" result="shape"/>
<feColorMatrix in="SourceAlpha" type="matrix" values="0 0 0 0 0 0 0 0 0 0 0 0 0 0 0 0 0 0 127 0" result="hardAlpha"/>
<feOffset dy="-0.397101"/>
<feGaussianBlur stdDeviation="0.0992754"/>
<feComposite in2="hardAlpha" operator="arithmetic" k2="-1" k3="1"/>
<feColorMatrix type="matrix" values="0 0 0 0 0 0 0 0 0 0 0 0 0 0 0 0 0 0 0.3 0"/>
<feBlend mode="normal" in2="shape" result="effect1_innerShadow_394_2761"/>
<feColorMatrix in="SourceAlpha" type="matrix" values="0 0 0 0 0 0 0 0 0 0 0 0 0 0 0 0 0 0 127 0" result="hardAlpha"/>
<feOffset dy="0.397101"/>
<feGaussianBlur stdDeviation="0.0992754"/>
<feComposite in2="hardAlpha" operator="arithmetic" k2="-1" k3="1"/>
<feColorMatrix type="matrix" values="0 0 0 0 1 0 0 0 0 1 0 0 0 0 1 0 0 0 0.3 0"/>
<feBlend mode="normal" in2="effect1_innerShadow_394_2761" result="effect2_innerShadow_394_2761"/>
</filter>
<filter id="filter1_dd_394_2761" x="17.2389" y="18.6638" width="14.9393" height="17.0754" filterUnits="userSpaceOnUse" color-interpolation-filters="sRGB">
<feFlood flood-opacity="0" result="BackgroundImageFix"/>
<feColorMatrix in="SourceAlpha" type="matrix" values="0 0 0 0 0 0 0 0 0 0 0 0 0 0 0 0 0 0 127 0" result="hardAlpha"/>
<feOffset dx="0.794203" dy="1.1913"/>
<feGaussianBlur stdDeviation="0.397101"/>
<feColorMatrix type="matrix" values="0 0 0 0 0 0 0 0 0 0 0 0 0 0 0 0 0 0 0.1 0"/>
<feBlend mode="normal" in2="BackgroundImageFix" result="effect1_dropShadow_394_2761"/>
<feColorMatrix in="SourceAlpha" type="matrix" values="0 0 0 0 0 0 0 0 0 0 0 0 0 0 0 0 0 0 127 0" result="hardAlpha"/>
<feOffset/>
<feGaussianBlur stdDeviation="0.0992754"/>
<feColorMatrix type="matrix" values="0 0 0 0 0 0 0 0 0 0 0 0 0 0 0 0 0 0 0.4 0"/>
<feBlend mode="normal" in2="effect1_dropShadow_394_2761" result="effect2_dropShadow_394_2761"/>
<feBlend mode="normal" in="SourceGraphic" in2="effect2_dropShadow_394_2761" result="shape"/>
</filter>
<linearGradient id="paint0_linear_394_2761" x1="33.1142" y1="10.9512" x2="42.111" y2="19.9481" gradientUnits="userSpaceOnUse">
<stop stop-opacity="0.2"/>
<stop offset="1" stop-opacity="0"/>
</linearGradient>
</defs>
</svg>
