<svg width="72" height="72" viewBox="0 0 72 72" fill="none" xmlns="http://www.w3.org/2000/svg">
<path fill-rule="evenodd" clip-rule="evenodd" d="M21.9868 0.803292L33.4711 12.2876L30.1091 15.6496L19.8149 5.35536C17.0777 7.25949 14.4298 9.46114 11.9603 11.9306C9.46116 14.4297 7.25951 17.0777 5.35537 19.8149L15.6198 30.0793L12.2579 33.4413L0.803309 21.9868C-0.0892531 21.0942 -0.238013 19.7256 0.446284 18.6545C5.0281 11.4843 11.4843 5.02808 18.6545 0.416515C19.7256 -0.267783 21.0942 -0.119022 21.9868 0.803292ZM59.7421 38.5289L71.2264 50.0132C72.119 50.9058 72.2678 52.2744 71.5835 53.3454C67.0016 60.5157 60.5454 66.9719 53.3752 71.5537C52.3041 72.238 50.9355 72.0892 50.043 71.1967L38.5587 59.7124L41.9207 56.3504L52.1851 66.6149C54.9223 64.7107 57.5702 62.5091 60.0397 60.0396C62.5091 57.5702 64.7405 54.9223 66.6149 52.1851L56.3504 41.9206L59.7421 38.5289Z" fill="#FF6A3D"/>
<path fill-rule="evenodd" clip-rule="evenodd" d="M0.803285 50.0132L50.0132 0.803309C50.9058 -0.0892531 52.2744 -0.238013 53.3454 0.446284C60.5157 5.0281 66.9719 11.4843 71.5537 18.6545C72.238 19.7256 72.0892 21.0942 71.1967 21.9868L21.9868 71.1967C21.0942 72.0893 19.7256 72.238 18.6545 71.5537C11.4843 66.9719 5.02808 60.5157 0.44626 53.3455C-0.267789 52.2744 -0.119029 50.9058 0.803285 50.0132ZM45.4314 36.8926C46.3537 37.8149 46.3537 39.3322 45.4314 40.2545C44.5091 41.1769 42.9917 41.1769 42.0694 40.2545C41.1471 39.3322 41.1471 37.8149 42.0694 36.8926C42.9917 35.9703 44.5091 35.9703 45.4314 36.8926ZM36.8925 45.4314C37.8149 46.3537 39.3322 46.3537 40.2545 45.4314C41.1768 44.5091 41.1768 42.9917 40.2545 42.0694C39.3322 41.1471 37.8149 41.1471 36.8925 42.0694C35.9702 42.9917 35.9702 44.5091 36.8925 45.4314ZM40.2843 31.7157C41.2066 32.638 41.2066 34.1554 40.2843 35.0777C39.362 36 37.8446 36 36.9223 35.0777C36 34.1554 36 32.638 36.9223 31.7157C37.8149 30.7934 39.3322 30.7934 40.2843 31.7157ZM31.7157 40.2843C32.638 41.2066 34.1554 41.2066 35.0777 40.2843C36 39.362 36 37.8446 35.0777 36.9223C34.1554 36 32.638 36 31.7157 36.9223C30.7934 37.8149 30.7934 39.3322 31.7157 40.2843ZM35.1074 26.5686C36.0297 27.4909 36.0297 29.0083 35.1074 29.9306C34.1851 30.8529 32.6677 30.8529 31.7454 29.9306C30.8231 29.0083 30.8231 27.4909 31.7454 26.5686C32.6677 25.6165 34.1851 25.6165 35.1074 26.5686ZM26.5686 35.1074C27.4909 36.0298 29.0082 36.0298 29.9306 35.1074C30.8529 34.1851 30.8529 32.6678 29.9306 31.7455C29.0082 30.8231 27.4909 30.8231 26.5686 31.7455C25.6165 32.6678 25.6165 34.1851 26.5686 35.1074ZM52.6016 33.0843C53.2859 33.7686 53.2859 34.9289 52.6016 35.6132C51.9173 36.2975 50.757 36.2975 50.0727 35.6132L36.357 21.8975C35.6727 21.2132 35.6727 20.0529 36.357 19.3686C37.0413 18.6843 38.2016 18.6843 38.8859 19.3686L52.6016 33.0843ZM35.643 50.0727C36.3273 50.757 36.3273 51.9174 35.643 52.6017C34.9587 53.286 33.7983 53.286 33.114 52.6017L19.3983 38.886C18.714 38.2017 18.714 37.0413 19.3983 36.357C20.0826 35.6727 21.243 35.6727 21.9273 36.357L35.643 50.0727Z" fill="#1446A0"/>
</svg>
