<svg width="28" height="28" viewBox="0 0 28 28" fill="none" xmlns="http://www.w3.org/2000/svg">
<g clip-path="url(#clip0_6_722)">
<path fill-rule="evenodd" clip-rule="evenodd" d="M8.55184 0.312337L13.018 4.77845L11.7105 6.08589L7.70721 2.08258C6.64275 2.82308 5.613 3.67928 4.65266 4.63961C3.68076 5.61151 2.82457 6.64126 2.08407 7.70572L6.07581 11.6975L4.76837 13.0049L0.313822 8.55035C-0.0332854 8.20325 -0.0911366 7.67101 0.174979 7.25449C1.9568 4.46606 4.46754 1.95531 7.25597 0.161924C7.6725 -0.104192 8.20473 -0.0463407 8.55184 0.312337ZM23.2345 14.9834L27.7006 19.4495C28.0477 19.7966 28.1056 20.3289 27.8394 20.7454C26.0576 23.5338 23.5469 26.0446 20.7584 27.8264C20.3419 28.0925 19.8097 28.0346 19.4626 27.6875L14.9965 23.2214L16.3039 21.914L20.2956 25.9057C21.3601 25.1652 22.3899 24.309 23.3502 23.3487C24.3105 22.3884 25.1783 21.3586 25.9072 20.2942L21.9155 16.3024L23.2345 14.9834Z" fill="white"/>
<path fill-rule="evenodd" clip-rule="evenodd" d="M0.313742 19.4495L19.4509 0.312357C19.798 -0.0347502 20.3303 -0.0926015 20.7468 0.173514C23.5352 1.95533 26.046 4.46608 27.8278 7.25451C28.0939 7.67103 28.0361 8.20327 27.6889 8.55037L8.55176 27.6876C8.20465 28.0347 7.67242 28.0925 7.25589 27.8264C4.46746 26.0446 1.95672 23.5338 0.174899 20.7454C-0.102787 20.3289 -0.0449361 19.7967 0.313742 19.4495ZM17.6691 14.3471C18.0278 14.7057 18.0278 15.2958 17.6691 15.6545C17.3104 16.0132 16.7204 16.0132 16.3617 15.6545C16.003 15.2958 16.003 14.7057 16.3617 14.3471C16.7204 13.9884 17.3104 13.9884 17.6691 14.3471ZM14.3485 17.6677C14.7071 18.0264 15.2972 18.0264 15.6559 17.6677C16.0146 17.309 16.0146 16.719 15.6559 16.3603C15.2972 16.0016 14.7071 16.0016 14.3485 16.3603C13.9898 16.719 13.9898 17.309 14.3485 17.6677ZM15.6675 12.3338C16.0261 12.6925 16.0261 13.2826 15.6675 13.6413C15.3088 14 14.7187 14 14.36 13.6413C14.0013 13.2826 14.0013 12.6925 14.36 12.3338C14.7071 11.9752 15.2972 11.9752 15.6675 12.3338ZM12.3352 15.6661C12.6939 16.0248 13.284 16.0248 13.6427 15.6661C14.0013 15.3074 14.0013 14.7173 13.6427 14.3586C13.284 14 12.6939 14 12.3352 14.3586C11.9766 14.7057 11.9766 15.2958 12.3352 15.6661ZM13.6542 10.3322C14.0129 10.6909 14.0129 11.281 13.6542 11.6396C13.2956 11.9983 12.7055 11.9983 12.3468 11.6396C11.9881 11.281 11.9881 10.6909 12.3468 10.3322C12.7055 9.96194 13.2956 9.96194 13.6542 10.3322ZM10.3336 13.6529C10.6923 14.0115 11.2823 14.0115 11.641 13.6529C11.9997 13.2942 11.9997 12.7041 11.641 12.3454C11.2823 11.9867 10.6923 11.9867 10.3336 12.3454C9.96333 12.7041 9.96333 13.2942 10.3336 13.6529ZM20.4575 12.8661C20.7237 13.1322 20.7237 13.5834 20.4575 13.8495C20.1914 14.1157 19.7402 14.1157 19.4741 13.8495L14.1402 8.51566C13.8741 8.24955 13.8741 7.79831 14.1402 7.53219C14.4063 7.26608 14.8575 7.26608 15.1237 7.53219L20.4575 12.8661ZM13.8625 19.4727C14.1286 19.7388 14.1286 20.19 13.8625 20.4562C13.5964 20.7223 13.1451 20.7223 12.879 20.4562L7.54515 15.1223C7.27903 14.8562 7.27903 14.4049 7.54515 14.1388C7.81126 13.8727 8.2625 13.8727 8.52862 14.1388L13.8625 19.4727Z" fill="white"/>
</g>
<defs>
<clipPath id="clip0_6_722">
<rect width="28" height="28" fill="white"/>
</clipPath>
</defs>
</svg>
