<svg width="57" height="72" viewBox="0 0 57 72" fill="none" xmlns="http://www.w3.org/2000/svg">
<path d="M51.975 3.99377C54.9281 5.73752 56.7 9.16877 56.1656 12.7406C56.1656 12.825 56.1375 12.9375 56.1094 13.0219L53.5781 28.6031C54 29.1375 54.225 29.8407 54.1125 30.6C52.9594 37.7157 48.2906 42.975 41.0906 44.1563V54.8438C41.0906 64.2657 33.3281 72 23.9062 72C14.4844 72 6.72186 64.2657 6.72186 54.8438V44.5219C7.48124 44.6907 8.24061 44.7469 9.02811 44.7469C9.98436 44.7469 10.9125 44.6344 11.8125 44.4094V54.8438C11.8125 61.5094 17.2687 66.9375 23.9344 66.9375C30.6 66.9375 36.0562 61.5094 36.0562 54.8438V44.2125C28.6312 43.2281 23.7375 37.8844 22.5562 30.6C22.4437 29.8688 22.6406 29.1656 23.0906 28.6031L20.5312 12.8813C19.9406 9.25315 21.7125 5.76565 24.7219 3.99377C24.6937 4.38752 24.7219 4.78127 24.8062 5.1469C24.9469 5.96252 25.2562 6.75002 25.7062 7.3969C24.3562 8.55002 23.5969 10.35 23.85 12.2344C23.85 12.3188 23.8781 12.4031 23.8781 12.4875L26.4094 28.0969C27 28.4625 27.4219 29.0813 27.5344 29.8125C28.4625 35.55 32.4281 39.3188 38.3344 39.3188C44.2687 39.3188 48.2062 35.55 49.1344 29.8125C49.2469 29.0813 49.6687 28.4625 50.2594 28.0969C51.1031 22.8657 51.9469 17.6063 52.8187 12.3469C53.1281 10.4344 52.3687 8.57815 50.9906 7.3969C51.4406 6.7219 51.75 5.96252 51.8906 5.1469C51.9469 4.75315 51.975 4.3594 51.975 3.99377Z" fill="#1446A0"/>
<path fill-rule="evenodd" clip-rule="evenodd" d="M49.6688 4.78128C49.9219 3.31878 49.1906 1.91253 47.9531 1.26565L46.4344 0.478152C44.0156 -0.759348 41.0906 0.562527 40.6406 3.29065C40.1906 6.01878 42.525 8.21253 45.1969 7.81878L46.8844 7.56565C48.2906 7.34065 49.4156 6.24378 49.6688 4.78128ZM9.02812 24.525C14.0062 24.525 18.0562 28.5469 18.0562 33.525C18.0562 38.5032 14.0062 42.525 9.02812 42.525C4.05 42.525 0 38.5032 0 33.525C0 28.5469 4.05 24.525 9.02812 24.525ZM10.6031 31.9219C9.19688 30.5157 6.75 31.5 6.75 33.525C6.75 35.5219 9.19688 36.5344 10.6031 35.1282C11.475 34.2282 11.475 32.8219 10.6031 31.9219ZM26.9719 4.78128C26.7188 3.31878 27.45 1.91253 28.6875 1.26565L30.2063 0.478152C32.625 -0.759348 35.55 0.562527 36 3.29065C36.45 6.01878 34.1156 8.21253 31.4438 7.81878L29.7563 7.56565C28.35 7.34065 27.225 6.24378 26.9719 4.78128Z" fill="#FF6A3D"/>
</svg>
