<svg width="72" height="64" viewBox="0 0 72 64" fill="none" xmlns="http://www.w3.org/2000/svg">
<path d="M59.9062 51.1875C58.9781 51.1875 58.1344 51.5531 57.5156 52.1719C56.8969 52.7906 56.5312 53.6344 56.5312 54.5625C56.5312 55.4906 56.8969 56.3344 57.5156 56.9531C58.1344 57.5719 58.9781 57.9375 59.9062 57.9375C60.8344 57.9375 61.6781 57.5719 62.2969 56.9531C62.9156 56.3344 63.2812 55.4906 63.2812 54.5625C63.2812 53.6344 62.9156 52.7906 62.2969 52.1719C61.6781 51.5531 60.8344 51.1875 59.9062 51.1875ZM53.55 48.2062C55.1812 46.575 57.4313 45.5625 59.9062 45.5625C62.3813 45.5625 64.6313 46.575 66.2625 48.2062C67.8938 49.8375 68.9062 52.0875 68.9062 54.5625C68.9062 57.0375 67.8938 59.2875 66.2625 60.9188C64.6313 62.55 62.3813 63.5625 59.9062 63.5625C57.4313 63.5625 55.1812 62.55 53.55 60.9188C51.9187 59.2875 50.9062 57.0375 50.9062 54.5625C50.9062 52.0875 51.9187 49.8375 53.55 48.2062Z" fill="#FF6A3D"/>
<path d="M18.2812 9.5625V5.0625C18.2812 2.27813 20.5594 0 23.3438 0H48.6562C51.4406 0 53.7188 2.27813 53.7188 5.0625V9.5625H50.3438V5.0625C50.3438 4.13438 49.5844 3.375 48.6562 3.375H23.3438C22.4156 3.375 21.6562 4.13438 21.6562 5.0625V9.5625H18.2812ZM59.9062 51.1875C58.05 51.1875 56.5312 52.7062 56.5312 54.5625C56.5312 56.4188 58.05 57.9375 59.9062 57.9375C61.7625 57.9375 63.2812 56.4188 63.2812 54.5625C63.2812 52.7062 61.7625 51.1875 59.9062 51.1875ZM59.9062 45.5625C64.8844 45.5625 68.9062 49.5844 68.9062 54.5625C68.9062 59.5406 64.8844 63.5625 59.9062 63.5625C54.9281 63.5625 50.9062 59.5406 50.9062 54.5625C50.9062 49.5844 54.9281 45.5625 59.9062 45.5625ZM12.0938 51.1875C10.2375 51.1875 8.71875 52.7062 8.71875 54.5625C8.71875 56.4188 10.2375 57.9375 12.0938 57.9375C13.95 57.9375 15.4688 56.4188 15.4688 54.5625C15.4688 52.7062 13.95 51.1875 12.0938 51.1875ZM12.0938 45.5625C17.0719 45.5625 21.0938 49.5844 21.0938 54.5625C21.0938 59.5406 17.0719 63.5625 12.0938 63.5625C7.11562 63.5625 3.09375 59.5406 3.09375 54.5625C3.09375 49.5844 7.11562 45.5625 12.0938 45.5625Z" fill="#FF6A3D"/>
<path fill-rule="evenodd" clip-rule="evenodd" d="M51.0469 29.3062L38.925 37.8L50.8219 46.1531C50.0625 46.9969 49.4156 47.925 48.8813 48.9094L36 39.8531L23.0906 48.8812C22.5844 47.8969 21.9375 46.9687 21.15 46.125L33.0469 37.7719L20.925 29.2781L17.0156 43.1719C15.975 42.7219 14.9062 42.4125 13.7812 42.2719L18.3094 26.1844C12.7125 25.5094 7.14375 24.4969 1.6875 23.1187C0.675 22.8656 0 21.9937 0 20.9531C0 19.4344 0 17.8875 0 16.3125C0 14.4562 1.51875 12.9375 3.375 12.9375H51.5531L67.6125 6.91873C69.7781 6.21561 72 7.90311 72 10.1531V21.0094C72 22.05 71.325 22.9219 70.3125 23.175C64.8562 24.5531 59.2875 25.5375 53.6906 26.2406L58.2188 42.3281C57.0938 42.4969 55.9969 42.7781 54.9844 43.2281L51.0469 29.3062ZM48.8813 26.7187C44.5781 27.0844 40.275 27.2812 36 27.2812C31.6969 27.2812 27.3937 27.1125 23.1187 26.7187L36 35.7469L48.8813 26.7187ZM68.2313 9.11248C68.8219 8.88748 69.4688 9.19686 69.6656 9.75936C69.8906 10.35 69.5812 10.9969 69.0187 11.1937L52.5656 17.3531C52.425 17.4094 52.2844 17.4375 52.1437 17.4375H3.375C2.75625 17.4375 2.25 16.9312 2.25 16.3125C2.25 15.6937 2.75625 15.1875 3.375 15.1875H51.975L68.2313 9.11248Z" fill="#1446A0"/>
</svg>
