<svg width="72" height="69" viewBox="0 0 72 69" fill="none" xmlns="http://www.w3.org/2000/svg">
<path d="M5.56366 43.0512C4.64135 42.1289 4.64135 40.6116 5.56366 39.6893C6.48598 38.7669 8.00333 38.7669 8.9554 39.6893L10.0265 40.7306L36.1488 14.6975C36.8628 13.9835 37.9042 13.8942 38.8265 14.1917L44.8959 16.3339C45.2529 16.4529 45.5504 16.6612 45.7885 16.8992L51.7091 22.8198C51.9769 23.0876 52.1554 23.4149 52.3042 23.7719L54.4761 29.9603C54.8033 30.8529 54.5356 31.805 53.9108 32.4298L27.8182 58.4628L28.8893 59.5041C29.8116 60.4264 29.8116 61.9438 28.8893 62.8661C27.967 63.7884 26.4496 63.7884 25.4975 62.8661C18.8331 56.2612 12.1984 49.6562 5.56366 43.0512ZM13.3885 64.3537C14.3108 65.276 14.3108 66.7934 13.3885 67.7157C12.4661 68.638 10.9488 68.638 9.99672 67.7157L0.714074 58.4331C-0.20824 57.5107 -0.20824 55.9934 0.714074 55.0711C1.63639 54.1488 3.15374 54.1488 4.10581 55.0711L7.08102 58.0165L11.3058 53.7917L14.6975 57.1537L10.4728 61.3785L13.3885 64.3537ZM24.3967 55.0711L49.448 30.0793L47.9306 25.7653L42.7835 20.6182L38.4694 19.1008L13.4182 44.0926C17.048 47.7521 20.7372 51.4116 24.3967 55.0711Z" fill="#1446A0"/>
<path fill-rule="evenodd" clip-rule="evenodd" d="M24.3967 50.0132L44.2711 30.1686H32.4298L18.4761 44.0926C20.4397 46.0562 22.4331 48.0496 24.3967 50.0132ZM46.1752 15.6198L52.9587 22.3736L56.1422 19.2198L55.4579 16.5421L72 0H65.2166L52.0662 13.1207L49.3587 12.4364L46.1752 15.6198Z" fill="#FF6A3D"/>
</svg>
