<svg width="72" height="72" viewBox="0 0 72 72" fill="none" xmlns="http://www.w3.org/2000/svg">
<path fill-rule="evenodd" clip-rule="evenodd" d="M48.375 36C54.5907 36 59.625 41.0344 59.625 47.25C59.625 53.4656 54.5907 58.5 48.375 58.5C47.25 58.5 46.1532 58.3313 45.1125 58.0219C44.8594 57.2906 44.5782 56.5875 44.1844 55.9125C44.1 55.6875 43.9594 55.4906 43.8188 55.2656C42.2719 52.7344 39.9938 50.9062 37.4344 49.8937C37.2375 49.05 37.125 48.15 37.125 47.25C37.125 41.0344 42.1594 36 48.375 36ZM1.43441 31.6406L16.6219 5.34375C19.5469 0.253125 26.1282 -1.51875 31.2188 1.43437C36.3094 4.3875 38.0813 10.9406 35.1282 16.0312L34.1438 17.7469L28.35 19.2938C28.2375 19.3219 28.125 19.35 27.9844 19.4062L31.2188 13.7812C32.9063 10.8281 31.8938 7.03125 28.9407 5.31562C25.9875 3.6 22.1907 4.64062 20.475 7.59375L12.8813 20.7563L20.3344 25.0312C18.1407 28.2938 17.2969 32.4563 18.3938 36.5063C18.8438 38.2219 19.6313 39.7688 20.6157 41.1469L19.9407 42.3281C17.0157 47.4188 10.4344 49.1906 5.34378 46.2375C0.253155 43.3125 -1.51872 36.7313 1.43441 31.6406ZM53.4375 45.5625C54.3657 45.5625 55.125 46.3219 55.125 47.25C55.125 48.1781 54.3657 48.9375 53.4375 48.9375H43.3125C42.3844 48.9375 41.625 48.1781 41.625 47.25C41.625 46.3219 42.3844 45.5625 43.3125 45.5625H53.4375Z" fill="#1446A0"/>
<path fill-rule="evenodd" clip-rule="evenodd" d="M27.7032 53.6625C32.4 50.9625 38.4188 52.5656 41.1188 57.2625C43.8188 61.9594 42.2157 67.9781 37.5188 70.6781C32.8219 73.3781 26.8032 71.775 24.1032 67.0781C21.375 62.3812 23.0063 56.3906 27.7032 53.6625ZM29.2219 22.5562L58.5563 14.6812C64.2375 13.1625 70.1157 16.5656 71.6344 22.2469C73.1532 27.9281 69.75 33.8062 64.0688 35.325L58.5844 36.7875C57.1219 35.3531 55.3782 34.2281 53.4094 33.525L62.8875 30.9937C66.1782 30.1219 68.1469 26.6906 67.275 23.4281C66.4032 20.1375 62.9719 18.1687 59.7094 19.0406L45.0282 22.9781L47.6157 32.6531C43.875 32.85 40.5 34.425 37.9969 36.9281C36.2532 38.6719 34.9313 40.8656 34.2563 43.3125C28.7157 44.55 23.0907 41.175 21.6282 35.6344C20.1375 29.9531 23.5407 24.075 29.2219 22.5562ZM37.9407 61.8469C38.8407 62.1 39.375 63 39.1219 63.9C38.8688 64.8 37.9688 65.3344 37.0688 65.0812L27.2813 62.4656C26.3813 62.2125 25.8469 61.3125 26.1 60.4125C26.3532 59.5125 27.2532 58.9781 28.1532 59.2312L37.9407 61.8469Z" fill="#FF6A3D"/>
</svg>
