<svg width="57" height="72" viewBox="0 0 57 72" fill="none" xmlns="http://www.w3.org/2000/svg">
<path d="M8.91563 72C8.91563 68.9906 10.4062 66.3469 12.6844 64.6875C10.6031 63.5625 8.69063 62.1281 7.03125 60.4687C2.67188 56.1094 0 50.1187 0 43.5094C0 34.1437 5.42813 25.65 13.8938 21.6844C13.1063 24.8344 14.0063 28.2656 16.1438 30.7125C11.9813 33.3281 9.225 37.8281 9.05625 42.7781C8.775 51.2156 17.3531 57.4594 26.6625 55.2656L50.85 48.7969C52.0594 48.4875 53.2969 49.1906 53.6063 50.4C53.9156 51.6094 53.2125 52.8187 52.0031 53.1562L28.575 59.4281L29.6438 63.0562H47.8125C52.7625 63.0562 56.8406 67.1062 56.8406 72.0562H8.91563V72Z" fill="#1446A0"/>
<path d="M31.6406 45.7875C30.4312 46.0969 29.1937 45.3937 28.8844 44.1844C28.575 42.975 29.2781 41.7656 30.4875 41.4281L43.0031 38.0812C44.2125 37.7719 45.45 38.475 45.7594 39.6844C46.0687 40.8937 45.3656 42.1031 44.1562 42.4406L31.6406 45.7875Z" fill="#FF6A3D"/>
<path fill-rule="evenodd" clip-rule="evenodd" d="M28.8844 0.0281213L23.4281 1.49062C22.8375 1.65937 22.4719 2.27812 22.6406 2.86875L24.4687 9.675L22.3875 10.2375C21.15 10.575 20.3906 11.8687 20.7281 13.1062L22.0219 17.9156C18.4219 18.8719 16.2844 22.5844 17.2406 26.1844C18.1969 29.7844 21.9094 31.9219 25.5094 30.9656L27.4219 38.1094C27.7312 39.3187 28.9969 40.0219 30.1781 39.7125L42.1594 36.5062C43.3687 36.1969 44.0719 34.9594 43.7625 33.75L37.0406 8.71875C36.7031 7.48125 35.4094 6.72187 34.1719 7.05937L32.0906 7.62187L30.2625 0.843746C30.0937 0.224996 29.475 -0.112504 28.8844 0.0281213ZM24.3281 26.5781C25.5375 26.2687 26.2406 25.0312 25.9312 23.8219C25.5937 22.6125 24.3844 21.9094 23.175 22.2187C21.9656 22.5281 21.2625 23.7656 21.5719 24.975C21.8812 26.2125 23.1187 26.9156 24.3281 26.5781Z" fill="#FF6A3D"/>
</svg>
